M48
; DRILL file {KiCad 5.1.6} date Wed Sep 23 15:21:57 2020
; FORMAT={-:-/ absolute / inch / decimal}
; #@! TF.CreationDate,2020-09-23T15:21:57+12:00
; #@! TF.GenerationSoftware,Kicad,Pcbnew,5.1.6
FMAT,2
INCH
T1C0.0118
T2C0.0236
T3C0.0315
T4C0.0400
T5C0.0472
T6C0.0551
T7C0.1200
T8C0.0256
%
G90
G05
T1
X4.69Y-3.4465
X4.69Y-3.485
X4.84Y-2.935
X4.86Y-3.175
X4.86Y-3.7
X4.91Y-3.39
X5.17Y-4.04
X5.2369Y-3.6444
X5.2972Y-4.0403
X5.35Y-3.105
X5.4Y-3.645
X5.405Y-3.45
X5.415Y-3.765
X5.435Y-3.545
X5.445Y-3.7897
X5.515Y-3.365
X5.55Y-3.65
X5.55Y-4.065
X5.6748Y-4.1502
X5.695Y-4.13
X5.725Y-4.0175
X5.725Y-4.1075
X5.7275Y-3.93
X6.1175Y-3.89
X6.1375Y-3.8675
X6.16Y-4.1875
X6.3368Y-4.1073
X6.3575Y-4.1275
X6.4225Y-4.0625
X6.48Y-4.1625
X6.52Y-3.735
X6.525Y-4.12
X6.57Y-3.615
T3
X6.47Y-3.455
X6.6621Y-3.455
T4
X6.17Y-2.975
X6.27Y-2.975
X6.37Y-2.975
X6.47Y-2.975
X6.57Y-2.975
X6.67Y-2.975
X6.77Y-2.975
X6.87Y-2.975
X5.47Y-4.875
X5.57Y-4.875
X5.67Y-4.875
X5.77Y-4.875
X5.87Y-4.875
X5.97Y-4.875
X6.07Y-4.875
X6.17Y-4.875
X6.37Y-4.875
X6.47Y-4.875
X6.57Y-4.875
X6.67Y-4.875
X6.77Y-4.875
X6.87Y-4.875
X5.11Y-2.975
X5.21Y-2.975
X5.31Y-2.975
X5.41Y-2.975
X5.51Y-2.975
X5.61Y-2.975
X5.71Y-2.975
X5.81Y-2.975
X5.91Y-2.975
X6.01Y-2.975
T5
X5.0Y-4.6394
X5.1Y-4.6394
X5.2Y-4.6394
X5.0Y-4.325
X5.1Y-4.325
X5.2Y-4.325
T6
X4.64Y-4.585
X4.64Y-4.785
X4.64Y-4.055
X4.64Y-4.255
T7
X4.92Y-4.875
X6.97Y-4.675
X4.97Y-2.975
X6.97Y-3.575
T8
X4.5724Y-3.3612
X4.5724Y-3.5888
T2
G00X4.4405Y-3.3049
M15
G01X4.4169Y-3.3049
M16
G05
G00X4.4405Y-3.6451
M15
G01X4.4169Y-3.6451
M16
G05
G00X4.6149Y-3.3049
M15
G01X4.5716Y-3.3049
M16
G05
G00X4.6149Y-3.6451
M15
G01X4.5716Y-3.6451
M16
G05
T0
M30
