%TF.GenerationSoftware,KiCad,Pcbnew,5.1.6*%
%TF.CreationDate,2020-09-23T15:23:14+12:00*%
%TF.ProjectId,dumbuino,64756d62-7569-46e6-9f2e-6b696361645f,v01*%
%TF.SameCoordinates,Original*%
%TF.FileFunction,Copper,L1,Top*%
%TF.FilePolarity,Positive*%
%FSLAX46Y46*%
G04 Gerber Fmt 4.6, Leading zero omitted, Abs format (unit mm)*
G04 Created by KiCad (PCBNEW 5.1.6) date 2020-09-23 15:23:14*
%MOMM*%
%LPD*%
G01*
G04 APERTURE LIST*
%TA.AperFunction,ComponentPad*%
%ADD10O,3.600000X2.080000*%
%TD*%
%TA.AperFunction,SMDPad,CuDef*%
%ADD11R,1.450000X0.600000*%
%TD*%
%TA.AperFunction,SMDPad,CuDef*%
%ADD12R,1.450000X0.300000*%
%TD*%
%TA.AperFunction,ComponentPad*%
%ADD13O,2.100000X1.000000*%
%TD*%
%TA.AperFunction,ComponentPad*%
%ADD14O,1.600000X1.000000*%
%TD*%
%TA.AperFunction,SMDPad,CuDef*%
%ADD15C,0.100000*%
%TD*%
%TA.AperFunction,ComponentPad*%
%ADD16C,1.500000*%
%TD*%
%TA.AperFunction,SMDPad,CuDef*%
%ADD17R,0.450000X1.750000*%
%TD*%
%TA.AperFunction,SMDPad,CuDef*%
%ADD18R,1.550000X1.300000*%
%TD*%
%TA.AperFunction,ComponentPad*%
%ADD19O,1.905000X2.000000*%
%TD*%
%TA.AperFunction,ComponentPad*%
%ADD20R,1.905000X2.000000*%
%TD*%
%TA.AperFunction,SMDPad,CuDef*%
%ADD21R,1.100000X1.100000*%
%TD*%
%TA.AperFunction,ComponentPad*%
%ADD22O,1.727200X2.032000*%
%TD*%
%TA.AperFunction,ComponentPad*%
%ADD23C,4.064000*%
%TD*%
%TA.AperFunction,ViaPad*%
%ADD24C,0.600000*%
%TD*%
%TA.AperFunction,Conductor*%
%ADD25C,0.200000*%
%TD*%
%TA.AperFunction,Conductor*%
%ADD26C,0.400000*%
%TD*%
%TA.AperFunction,Conductor*%
%ADD27C,2.000000*%
%TD*%
G04 APERTURE END LIST*
D10*
%TO.P,J3,2*%
%TO.N,GND*%
X117856000Y-116459000D03*
%TO.P,J3,1*%
%TO.N,Net-(J3-Pad1)*%
%TA.AperFunction,ComponentPad*%
G36*
G01*
X119406001Y-122579000D02*
X116305999Y-122579000D01*
G75*
G02*
X116056000Y-122329001I0J249999D01*
G01*
X116056000Y-120748999D01*
G75*
G02*
X116305999Y-120499000I249999J0D01*
G01*
X119406001Y-120499000D01*
G75*
G02*
X119656000Y-120748999I0J-249999D01*
G01*
X119656000Y-122329001D01*
G75*
G02*
X119406001Y-122579000I-249999J0D01*
G01*
G37*
%TD.AperFunction*%
%TD*%
D11*
%TO.P,J1,B1*%
%TO.N,GND*%
X117583000Y-91515000D03*
%TO.P,J1,A9*%
%TO.N,Net-(C1-Pad1)*%
X117583000Y-90715000D03*
%TO.P,J1,B9*%
X117583000Y-85815000D03*
%TO.P,J1,B12*%
%TO.N,GND*%
X117583000Y-85015000D03*
%TO.P,J1,A1*%
X117583000Y-85015000D03*
%TO.P,J1,A4*%
%TO.N,Net-(C1-Pad1)*%
X117583000Y-85815000D03*
%TO.P,J1,B4*%
X117583000Y-90715000D03*
%TO.P,J1,A12*%
%TO.N,GND*%
X117583000Y-91515000D03*
D12*
%TO.P,J1,B8*%
%TO.N,N/C*%
X117583000Y-86515000D03*
%TO.P,J1,A5*%
%TO.N,Net-(J1-PadA5)*%
X117583000Y-87015000D03*
%TO.P,J1,B7*%
%TO.N,Net-(J1-PadA7)*%
X117583000Y-87515000D03*
%TO.P,J1,A7*%
X117583000Y-88515000D03*
%TO.P,J1,B6*%
%TO.N,Net-(J1-PadA6)*%
X117583000Y-89015000D03*
%TO.P,J1,A8*%
%TO.N,N/C*%
X117583000Y-89515000D03*
%TO.P,J1,B5*%
%TO.N,Net-(J1-PadB5)*%
X117583000Y-90015000D03*
%TO.P,J1,A6*%
%TO.N,Net-(J1-PadA6)*%
X117583000Y-88015000D03*
D13*
%TO.P,J1,S1*%
%TO.N,GND*%
X116668000Y-92585000D03*
X116668000Y-83945000D03*
D14*
X112488000Y-83945000D03*
X112488000Y-92585000D03*
%TD*%
%TA.AperFunction,SMDPad,CuDef*%
D15*
%TO.P,U2,1*%
%TO.N,/3(\u002A\u002A)*%
G36*
X165630334Y-100195555D02*
G01*
X166019243Y-100584464D01*
X164887872Y-101715835D01*
X164498963Y-101326926D01*
X165630334Y-100195555D01*
G37*
%TD.AperFunction*%
%TA.AperFunction,SMDPad,CuDef*%
%TO.P,U2,2*%
%TO.N,/4*%
G36*
X165064648Y-99629870D02*
G01*
X165453557Y-100018779D01*
X164322186Y-101150150D01*
X163933277Y-100761241D01*
X165064648Y-99629870D01*
G37*
%TD.AperFunction*%
%TA.AperFunction,SMDPad,CuDef*%
%TO.P,U2,3*%
%TO.N,N/C*%
G36*
X164498963Y-99064184D02*
G01*
X164887872Y-99453093D01*
X163756501Y-100584464D01*
X163367592Y-100195555D01*
X164498963Y-99064184D01*
G37*
%TD.AperFunction*%
%TA.AperFunction,SMDPad,CuDef*%
%TO.P,U2,4*%
%TO.N,+5V*%
G36*
X163933278Y-98498499D02*
G01*
X164322187Y-98887408D01*
X163190816Y-100018779D01*
X162801907Y-99629870D01*
X163933278Y-98498499D01*
G37*
%TD.AperFunction*%
%TA.AperFunction,SMDPad,CuDef*%
%TO.P,U2,5*%
%TO.N,GND*%
G36*
X163367592Y-97932813D02*
G01*
X163756501Y-98321722D01*
X162625130Y-99453093D01*
X162236221Y-99064184D01*
X163367592Y-97932813D01*
G37*
%TD.AperFunction*%
%TA.AperFunction,SMDPad,CuDef*%
%TO.P,U2,6*%
%TO.N,N/C*%
G36*
X162801907Y-97367128D02*
G01*
X163190816Y-97756037D01*
X162059445Y-98887408D01*
X161670536Y-98498499D01*
X162801907Y-97367128D01*
G37*
%TD.AperFunction*%
%TA.AperFunction,SMDPad,CuDef*%
%TO.P,U2,7*%
%TO.N,Net-(C10-Pad1)*%
G36*
X162236221Y-96801443D02*
G01*
X162625130Y-97190352D01*
X161493759Y-98321723D01*
X161104850Y-97932814D01*
X162236221Y-96801443D01*
G37*
%TD.AperFunction*%
%TA.AperFunction,SMDPad,CuDef*%
%TO.P,U2,8*%
%TO.N,Net-(C9-Pad1)*%
G36*
X161670536Y-96235757D02*
G01*
X162059445Y-96624666D01*
X160928074Y-97756037D01*
X160539165Y-97367128D01*
X161670536Y-96235757D01*
G37*
%TD.AperFunction*%
%TA.AperFunction,SMDPad,CuDef*%
%TO.P,U2,9*%
%TO.N,/5(\u002A\u002A)*%
G36*
X158488555Y-96624666D02*
G01*
X158877464Y-96235757D01*
X160008835Y-97367128D01*
X159619926Y-97756037D01*
X158488555Y-96624666D01*
G37*
%TD.AperFunction*%
%TA.AperFunction,SMDPad,CuDef*%
%TO.P,U2,10*%
%TO.N,/6(\u002A\u002A)*%
G36*
X157922870Y-97190352D02*
G01*
X158311779Y-96801443D01*
X159443150Y-97932814D01*
X159054241Y-98321723D01*
X157922870Y-97190352D01*
G37*
%TD.AperFunction*%
%TA.AperFunction,SMDPad,CuDef*%
%TO.P,U2,11*%
%TO.N,/7*%
G36*
X157357184Y-97756037D02*
G01*
X157746093Y-97367128D01*
X158877464Y-98498499D01*
X158488555Y-98887408D01*
X157357184Y-97756037D01*
G37*
%TD.AperFunction*%
%TA.AperFunction,SMDPad,CuDef*%
%TO.P,U2,12*%
%TO.N,/8*%
G36*
X156791499Y-98321722D02*
G01*
X157180408Y-97932813D01*
X158311779Y-99064184D01*
X157922870Y-99453093D01*
X156791499Y-98321722D01*
G37*
%TD.AperFunction*%
%TA.AperFunction,SMDPad,CuDef*%
%TO.P,U2,13*%
%TO.N,/9(\u002A\u002A)*%
G36*
X156225813Y-98887408D02*
G01*
X156614722Y-98498499D01*
X157746093Y-99629870D01*
X157357184Y-100018779D01*
X156225813Y-98887408D01*
G37*
%TD.AperFunction*%
%TA.AperFunction,SMDPad,CuDef*%
%TO.P,U2,14*%
%TO.N,/10(\u002A\u002A/SS)*%
G36*
X155660128Y-99453093D02*
G01*
X156049037Y-99064184D01*
X157180408Y-100195555D01*
X156791499Y-100584464D01*
X155660128Y-99453093D01*
G37*
%TD.AperFunction*%
%TA.AperFunction,SMDPad,CuDef*%
%TO.P,U2,15*%
%TO.N,/11(\u002A\u002A/MOSI)*%
G36*
X155094443Y-100018779D02*
G01*
X155483352Y-99629870D01*
X156614723Y-100761241D01*
X156225814Y-101150150D01*
X155094443Y-100018779D01*
G37*
%TD.AperFunction*%
%TA.AperFunction,SMDPad,CuDef*%
%TO.P,U2,16*%
%TO.N,/12(MISO)*%
G36*
X154528757Y-100584464D02*
G01*
X154917666Y-100195555D01*
X156049037Y-101326926D01*
X155660128Y-101715835D01*
X154528757Y-100584464D01*
G37*
%TD.AperFunction*%
%TA.AperFunction,SMDPad,CuDef*%
%TO.P,U2,17*%
%TO.N,/13(SCK)*%
G36*
X155660128Y-102246165D02*
G01*
X156049037Y-102635074D01*
X154917666Y-103766445D01*
X154528757Y-103377536D01*
X155660128Y-102246165D01*
G37*
%TD.AperFunction*%
%TA.AperFunction,SMDPad,CuDef*%
%TO.P,U2,18*%
%TO.N,+5V*%
G36*
X156225814Y-102811850D02*
G01*
X156614723Y-103200759D01*
X155483352Y-104332130D01*
X155094443Y-103943221D01*
X156225814Y-102811850D01*
G37*
%TD.AperFunction*%
%TA.AperFunction,SMDPad,CuDef*%
%TO.P,U2,19*%
%TO.N,N/C*%
G36*
X156791499Y-103377536D02*
G01*
X157180408Y-103766445D01*
X156049037Y-104897816D01*
X155660128Y-104508907D01*
X156791499Y-103377536D01*
G37*
%TD.AperFunction*%
%TA.AperFunction,SMDPad,CuDef*%
%TO.P,U2,20*%
G36*
X157357184Y-103943221D02*
G01*
X157746093Y-104332130D01*
X156614722Y-105463501D01*
X156225813Y-105074592D01*
X157357184Y-103943221D01*
G37*
%TD.AperFunction*%
%TA.AperFunction,SMDPad,CuDef*%
%TO.P,U2,21*%
%TO.N,GND*%
G36*
X157922870Y-104508907D02*
G01*
X158311779Y-104897816D01*
X157180408Y-106029187D01*
X156791499Y-105640278D01*
X157922870Y-104508907D01*
G37*
%TD.AperFunction*%
%TA.AperFunction,SMDPad,CuDef*%
%TO.P,U2,22*%
%TO.N,N/C*%
G36*
X158488555Y-105074592D02*
G01*
X158877464Y-105463501D01*
X157746093Y-106594872D01*
X157357184Y-106205963D01*
X158488555Y-105074592D01*
G37*
%TD.AperFunction*%
%TA.AperFunction,SMDPad,CuDef*%
%TO.P,U2,23*%
%TO.N,/A0*%
G36*
X159054241Y-105640277D02*
G01*
X159443150Y-106029186D01*
X158311779Y-107160557D01*
X157922870Y-106771648D01*
X159054241Y-105640277D01*
G37*
%TD.AperFunction*%
%TA.AperFunction,SMDPad,CuDef*%
%TO.P,U2,24*%
%TO.N,/A1*%
G36*
X159619926Y-106205963D02*
G01*
X160008835Y-106594872D01*
X158877464Y-107726243D01*
X158488555Y-107337334D01*
X159619926Y-106205963D01*
G37*
%TD.AperFunction*%
%TA.AperFunction,SMDPad,CuDef*%
%TO.P,U2,25*%
%TO.N,/A2*%
G36*
X160539165Y-106594872D02*
G01*
X160928074Y-106205963D01*
X162059445Y-107337334D01*
X161670536Y-107726243D01*
X160539165Y-106594872D01*
G37*
%TD.AperFunction*%
%TA.AperFunction,SMDPad,CuDef*%
%TO.P,U2,26*%
%TO.N,/A3*%
G36*
X161104850Y-106029186D02*
G01*
X161493759Y-105640277D01*
X162625130Y-106771648D01*
X162236221Y-107160557D01*
X161104850Y-106029186D01*
G37*
%TD.AperFunction*%
%TA.AperFunction,SMDPad,CuDef*%
%TO.P,U2,27*%
%TO.N,/A4(SDA)*%
G36*
X161670536Y-105463501D02*
G01*
X162059445Y-105074592D01*
X163190816Y-106205963D01*
X162801907Y-106594872D01*
X161670536Y-105463501D01*
G37*
%TD.AperFunction*%
%TA.AperFunction,SMDPad,CuDef*%
%TO.P,U2,28*%
%TO.N,/A5(SCL)*%
G36*
X162236221Y-104897816D02*
G01*
X162625130Y-104508907D01*
X163756501Y-105640278D01*
X163367592Y-106029187D01*
X162236221Y-104897816D01*
G37*
%TD.AperFunction*%
%TA.AperFunction,SMDPad,CuDef*%
%TO.P,U2,29*%
%TO.N,/Reset*%
G36*
X162801907Y-104332130D02*
G01*
X163190816Y-103943221D01*
X164322187Y-105074592D01*
X163933278Y-105463501D01*
X162801907Y-104332130D01*
G37*
%TD.AperFunction*%
%TA.AperFunction,SMDPad,CuDef*%
%TO.P,U2,30*%
%TO.N,/0(Rx)*%
G36*
X163367592Y-103766445D02*
G01*
X163756501Y-103377536D01*
X164887872Y-104508907D01*
X164498963Y-104897816D01*
X163367592Y-103766445D01*
G37*
%TD.AperFunction*%
%TA.AperFunction,SMDPad,CuDef*%
%TO.P,U2,31*%
%TO.N,/1(Tx)*%
G36*
X163933277Y-103200759D02*
G01*
X164322186Y-102811850D01*
X165453557Y-103943221D01*
X165064648Y-104332130D01*
X163933277Y-103200759D01*
G37*
%TD.AperFunction*%
%TA.AperFunction,SMDPad,CuDef*%
%TO.P,U2,32*%
%TO.N,/2*%
G36*
X164498963Y-102635074D02*
G01*
X164887872Y-102246165D01*
X166019243Y-103377536D01*
X165630334Y-103766445D01*
X164498963Y-102635074D01*
G37*
%TD.AperFunction*%
%TD*%
D16*
%TO.P,Y1,1*%
%TO.N,Net-(C9-Pad1)*%
X164338000Y-87757000D03*
%TO.P,Y1,2*%
%TO.N,Net-(C10-Pad1)*%
X169218000Y-87757000D03*
%TD*%
D17*
%TO.P,U1,28*%
%TO.N,N/C*%
X130649000Y-94063000D03*
%TO.P,U1,27*%
X131299000Y-94063000D03*
%TO.P,U1,26*%
X131949000Y-94063000D03*
%TO.P,U1,25*%
%TO.N,GND*%
X132599000Y-94063000D03*
%TO.P,U1,24*%
%TO.N,N/C*%
X133249000Y-94063000D03*
%TO.P,U1,23*%
%TO.N,Net-(D3-Pad1)*%
X133899000Y-94063000D03*
%TO.P,U1,22*%
%TO.N,Net-(D4-Pad1)*%
X134549000Y-94063000D03*
%TO.P,U1,21*%
%TO.N,GND*%
X135199000Y-94063000D03*
%TO.P,U1,20*%
%TO.N,+5V*%
X135849000Y-94063000D03*
%TO.P,U1,19*%
X136499000Y-94063000D03*
%TO.P,U1,18*%
%TO.N,GND*%
X137149000Y-94063000D03*
%TO.P,U1,17*%
%TO.N,Net-(C4-Pad1)*%
X137799000Y-94063000D03*
%TO.P,U1,16*%
%TO.N,Net-(J1-PadA7)*%
X138449000Y-94063000D03*
%TO.P,U1,15*%
%TO.N,Net-(J1-PadA6)*%
X139099000Y-94063000D03*
%TO.P,U1,14*%
%TO.N,N/C*%
X139099000Y-101263000D03*
%TO.P,U1,13*%
X138449000Y-101263000D03*
%TO.P,U1,12*%
X137799000Y-101263000D03*
%TO.P,U1,11*%
X137149000Y-101263000D03*
%TO.P,U1,10*%
X136499000Y-101263000D03*
%TO.P,U1,9*%
X135849000Y-101263000D03*
%TO.P,U1,8*%
X135199000Y-101263000D03*
%TO.P,U1,7*%
%TO.N,GND*%
X134549000Y-101263000D03*
%TO.P,U1,6*%
%TO.N,N/C*%
X133899000Y-101263000D03*
%TO.P,U1,5*%
%TO.N,Net-(R5-Pad2)*%
X133249000Y-101263000D03*
%TO.P,U1,4*%
%TO.N,+5V*%
X132599000Y-101263000D03*
%TO.P,U1,3*%
%TO.N,N/C*%
X131949000Y-101263000D03*
%TO.P,U1,2*%
%TO.N,Net-(C7-Pad1)*%
X131299000Y-101263000D03*
%TO.P,U1,1*%
%TO.N,Net-(R4-Pad2)*%
X130649000Y-101263000D03*
%TD*%
D18*
%TO.P,Reset,2*%
%TO.N,Net-(R9-Pad1)*%
X121328000Y-79085000D03*
%TO.P,Reset,1*%
%TO.N,/Reset*%
X121328000Y-74585000D03*
X113368000Y-74585000D03*
%TO.P,Reset,2*%
%TO.N,Net-(R9-Pad1)*%
X113368000Y-79085000D03*
%TD*%
%TO.P,R10,2*%
%TO.N,GND*%
%TA.AperFunction,SMDPad,CuDef*%
G36*
G01*
X141781000Y-83750999D02*
X141781000Y-84651001D01*
G75*
G02*
X141531001Y-84901000I-249999J0D01*
G01*
X140880999Y-84901000D01*
G75*
G02*
X140631000Y-84651001I0J249999D01*
G01*
X140631000Y-83750999D01*
G75*
G02*
X140880999Y-83501000I249999J0D01*
G01*
X141531001Y-83501000D01*
G75*
G02*
X141781000Y-83750999I0J-249999D01*
G01*
G37*
%TD.AperFunction*%
%TO.P,R10,1*%
%TO.N,Net-(D6-Pad1)*%
%TA.AperFunction,SMDPad,CuDef*%
G36*
G01*
X143831000Y-83750999D02*
X143831000Y-84651001D01*
G75*
G02*
X143581001Y-84901000I-249999J0D01*
G01*
X142930999Y-84901000D01*
G75*
G02*
X142681000Y-84651001I0J249999D01*
G01*
X142681000Y-83750999D01*
G75*
G02*
X142930999Y-83501000I249999J0D01*
G01*
X143581001Y-83501000D01*
G75*
G02*
X143831000Y-83750999I0J-249999D01*
G01*
G37*
%TD.AperFunction*%
%TD*%
%TO.P,R9,2*%
%TO.N,GND*%
%TA.AperFunction,SMDPad,CuDef*%
G36*
G01*
X122869000Y-82365001D02*
X122869000Y-81464999D01*
G75*
G02*
X123118999Y-81215000I249999J0D01*
G01*
X123769001Y-81215000D01*
G75*
G02*
X124019000Y-81464999I0J-249999D01*
G01*
X124019000Y-82365001D01*
G75*
G02*
X123769001Y-82615000I-249999J0D01*
G01*
X123118999Y-82615000D01*
G75*
G02*
X122869000Y-82365001I0J249999D01*
G01*
G37*
%TD.AperFunction*%
%TO.P,R9,1*%
%TO.N,Net-(R9-Pad1)*%
%TA.AperFunction,SMDPad,CuDef*%
G36*
G01*
X120819000Y-82365001D02*
X120819000Y-81464999D01*
G75*
G02*
X121068999Y-81215000I249999J0D01*
G01*
X121719001Y-81215000D01*
G75*
G02*
X121969000Y-81464999I0J-249999D01*
G01*
X121969000Y-82365001D01*
G75*
G02*
X121719001Y-82615000I-249999J0D01*
G01*
X121068999Y-82615000D01*
G75*
G02*
X120819000Y-82365001I0J249999D01*
G01*
G37*
%TD.AperFunction*%
%TD*%
%TO.P,R8,2*%
%TO.N,Net-(D5-Pad2)*%
%TA.AperFunction,SMDPad,CuDef*%
G36*
G01*
X131269000Y-82365001D02*
X131269000Y-81464999D01*
G75*
G02*
X131518999Y-81215000I249999J0D01*
G01*
X132169001Y-81215000D01*
G75*
G02*
X132419000Y-81464999I0J-249999D01*
G01*
X132419000Y-82365001D01*
G75*
G02*
X132169001Y-82615000I-249999J0D01*
G01*
X131518999Y-82615000D01*
G75*
G02*
X131269000Y-82365001I0J249999D01*
G01*
G37*
%TD.AperFunction*%
%TO.P,R8,1*%
%TO.N,+5V*%
%TA.AperFunction,SMDPad,CuDef*%
G36*
G01*
X129219000Y-82365001D02*
X129219000Y-81464999D01*
G75*
G02*
X129468999Y-81215000I249999J0D01*
G01*
X130119001Y-81215000D01*
G75*
G02*
X130369000Y-81464999I0J-249999D01*
G01*
X130369000Y-82365001D01*
G75*
G02*
X130119001Y-82615000I-249999J0D01*
G01*
X129468999Y-82615000D01*
G75*
G02*
X129219000Y-82365001I0J249999D01*
G01*
G37*
%TD.AperFunction*%
%TD*%
%TO.P,R7,2*%
%TO.N,Net-(D4-Pad2)*%
%TA.AperFunction,SMDPad,CuDef*%
G36*
G01*
X131269000Y-84651001D02*
X131269000Y-83750999D01*
G75*
G02*
X131518999Y-83501000I249999J0D01*
G01*
X132169001Y-83501000D01*
G75*
G02*
X132419000Y-83750999I0J-249999D01*
G01*
X132419000Y-84651001D01*
G75*
G02*
X132169001Y-84901000I-249999J0D01*
G01*
X131518999Y-84901000D01*
G75*
G02*
X131269000Y-84651001I0J249999D01*
G01*
G37*
%TD.AperFunction*%
%TO.P,R7,1*%
%TO.N,+5V*%
%TA.AperFunction,SMDPad,CuDef*%
G36*
G01*
X129219000Y-84651001D02*
X129219000Y-83750999D01*
G75*
G02*
X129468999Y-83501000I249999J0D01*
G01*
X130119001Y-83501000D01*
G75*
G02*
X130369000Y-83750999I0J-249999D01*
G01*
X130369000Y-84651001D01*
G75*
G02*
X130119001Y-84901000I-249999J0D01*
G01*
X129468999Y-84901000D01*
G75*
G02*
X129219000Y-84651001I0J249999D01*
G01*
G37*
%TD.AperFunction*%
%TD*%
%TO.P,R6,2*%
%TO.N,Net-(D3-Pad2)*%
%TA.AperFunction,SMDPad,CuDef*%
G36*
G01*
X131251000Y-86937001D02*
X131251000Y-86036999D01*
G75*
G02*
X131500999Y-85787000I249999J0D01*
G01*
X132151001Y-85787000D01*
G75*
G02*
X132401000Y-86036999I0J-249999D01*
G01*
X132401000Y-86937001D01*
G75*
G02*
X132151001Y-87187000I-249999J0D01*
G01*
X131500999Y-87187000D01*
G75*
G02*
X131251000Y-86937001I0J249999D01*
G01*
G37*
%TD.AperFunction*%
%TO.P,R6,1*%
%TO.N,+5V*%
%TA.AperFunction,SMDPad,CuDef*%
G36*
G01*
X129201000Y-86937001D02*
X129201000Y-86036999D01*
G75*
G02*
X129450999Y-85787000I249999J0D01*
G01*
X130101001Y-85787000D01*
G75*
G02*
X130351000Y-86036999I0J-249999D01*
G01*
X130351000Y-86937001D01*
G75*
G02*
X130101001Y-87187000I-249999J0D01*
G01*
X129450999Y-87187000D01*
G75*
G02*
X129201000Y-86937001I0J249999D01*
G01*
G37*
%TD.AperFunction*%
%TD*%
%TO.P,R5,2*%
%TO.N,Net-(R5-Pad2)*%
%TA.AperFunction,SMDPad,CuDef*%
G36*
G01*
X142806000Y-100514999D02*
X142806000Y-101415001D01*
G75*
G02*
X142556001Y-101665000I-249999J0D01*
G01*
X141905999Y-101665000D01*
G75*
G02*
X141656000Y-101415001I0J249999D01*
G01*
X141656000Y-100514999D01*
G75*
G02*
X141905999Y-100265000I249999J0D01*
G01*
X142556001Y-100265000D01*
G75*
G02*
X142806000Y-100514999I0J-249999D01*
G01*
G37*
%TD.AperFunction*%
%TO.P,R5,1*%
%TO.N,/1(Tx)*%
%TA.AperFunction,SMDPad,CuDef*%
G36*
G01*
X144856000Y-100514999D02*
X144856000Y-101415001D01*
G75*
G02*
X144606001Y-101665000I-249999J0D01*
G01*
X143955999Y-101665000D01*
G75*
G02*
X143706000Y-101415001I0J249999D01*
G01*
X143706000Y-100514999D01*
G75*
G02*
X143955999Y-100265000I249999J0D01*
G01*
X144606001Y-100265000D01*
G75*
G02*
X144856000Y-100514999I0J-249999D01*
G01*
G37*
%TD.AperFunction*%
%TD*%
%TO.P,R4,2*%
%TO.N,Net-(R4-Pad2)*%
%TA.AperFunction,SMDPad,CuDef*%
G36*
G01*
X142815000Y-98228999D02*
X142815000Y-99129001D01*
G75*
G02*
X142565001Y-99379000I-249999J0D01*
G01*
X141914999Y-99379000D01*
G75*
G02*
X141665000Y-99129001I0J249999D01*
G01*
X141665000Y-98228999D01*
G75*
G02*
X141914999Y-97979000I249999J0D01*
G01*
X142565001Y-97979000D01*
G75*
G02*
X142815000Y-98228999I0J-249999D01*
G01*
G37*
%TD.AperFunction*%
%TO.P,R4,1*%
%TO.N,/0(Rx)*%
%TA.AperFunction,SMDPad,CuDef*%
G36*
G01*
X144865000Y-98228999D02*
X144865000Y-99129001D01*
G75*
G02*
X144615001Y-99379000I-249999J0D01*
G01*
X143964999Y-99379000D01*
G75*
G02*
X143715000Y-99129001I0J249999D01*
G01*
X143715000Y-98228999D01*
G75*
G02*
X143964999Y-97979000I249999J0D01*
G01*
X144615001Y-97979000D01*
G75*
G02*
X144865000Y-98228999I0J-249999D01*
G01*
G37*
%TD.AperFunction*%
%TD*%
%TO.P,R3,2*%
%TO.N,GND*%
%TA.AperFunction,SMDPad,CuDef*%
G36*
G01*
X122869000Y-85413001D02*
X122869000Y-84512999D01*
G75*
G02*
X123118999Y-84263000I249999J0D01*
G01*
X123769001Y-84263000D01*
G75*
G02*
X124019000Y-84512999I0J-249999D01*
G01*
X124019000Y-85413001D01*
G75*
G02*
X123769001Y-85663000I-249999J0D01*
G01*
X123118999Y-85663000D01*
G75*
G02*
X122869000Y-85413001I0J249999D01*
G01*
G37*
%TD.AperFunction*%
%TO.P,R3,1*%
%TO.N,Net-(J1-PadA5)*%
%TA.AperFunction,SMDPad,CuDef*%
G36*
G01*
X120819000Y-85413001D02*
X120819000Y-84512999D01*
G75*
G02*
X121068999Y-84263000I249999J0D01*
G01*
X121719001Y-84263000D01*
G75*
G02*
X121969000Y-84512999I0J-249999D01*
G01*
X121969000Y-85413001D01*
G75*
G02*
X121719001Y-85663000I-249999J0D01*
G01*
X121068999Y-85663000D01*
G75*
G02*
X120819000Y-85413001I0J249999D01*
G01*
G37*
%TD.AperFunction*%
%TD*%
%TO.P,R2,2*%
%TO.N,GND*%
%TA.AperFunction,SMDPad,CuDef*%
G36*
G01*
X122869000Y-87699001D02*
X122869000Y-86798999D01*
G75*
G02*
X123118999Y-86549000I249999J0D01*
G01*
X123769001Y-86549000D01*
G75*
G02*
X124019000Y-86798999I0J-249999D01*
G01*
X124019000Y-87699001D01*
G75*
G02*
X123769001Y-87949000I-249999J0D01*
G01*
X123118999Y-87949000D01*
G75*
G02*
X122869000Y-87699001I0J249999D01*
G01*
G37*
%TD.AperFunction*%
%TO.P,R2,1*%
%TO.N,Net-(J1-PadB5)*%
%TA.AperFunction,SMDPad,CuDef*%
G36*
G01*
X120819000Y-87699001D02*
X120819000Y-86798999D01*
G75*
G02*
X121068999Y-86549000I249999J0D01*
G01*
X121719001Y-86549000D01*
G75*
G02*
X121969000Y-86798999I0J-249999D01*
G01*
X121969000Y-87699001D01*
G75*
G02*
X121719001Y-87949000I-249999J0D01*
G01*
X121068999Y-87949000D01*
G75*
G02*
X120819000Y-87699001I0J249999D01*
G01*
G37*
%TD.AperFunction*%
%TD*%
%TO.P,R1,2*%
%TO.N,Net-(D1-Pad2)*%
%TA.AperFunction,SMDPad,CuDef*%
G36*
G01*
X131251000Y-89223001D02*
X131251000Y-88322999D01*
G75*
G02*
X131500999Y-88073000I249999J0D01*
G01*
X132151001Y-88073000D01*
G75*
G02*
X132401000Y-88322999I0J-249999D01*
G01*
X132401000Y-89223001D01*
G75*
G02*
X132151001Y-89473000I-249999J0D01*
G01*
X131500999Y-89473000D01*
G75*
G02*
X131251000Y-89223001I0J249999D01*
G01*
G37*
%TD.AperFunction*%
%TO.P,R1,1*%
%TO.N,+5V*%
%TA.AperFunction,SMDPad,CuDef*%
G36*
G01*
X129201000Y-89223001D02*
X129201000Y-88322999D01*
G75*
G02*
X129450999Y-88073000I249999J0D01*
G01*
X130101001Y-88073000D01*
G75*
G02*
X130351000Y-88322999I0J-249999D01*
G01*
X130351000Y-89223001D01*
G75*
G02*
X130101001Y-89473000I-249999J0D01*
G01*
X129450999Y-89473000D01*
G75*
G02*
X129201000Y-89223001I0J249999D01*
G01*
G37*
%TD.AperFunction*%
%TD*%
D19*
%TO.P,Q2,3*%
%TO.N,GND*%
X127000000Y-117840760D03*
%TO.P,Q2,2*%
%TO.N,Net-(J3-Pad1)*%
X129540000Y-117840760D03*
D20*
%TO.P,Q2,1*%
%TO.N,/10(\u002A\u002A/SS)*%
X132080000Y-117840760D03*
%TD*%
D19*
%TO.P,Q1,3*%
%TO.N,GND*%
X127000000Y-109855000D03*
%TO.P,Q1,2*%
%TO.N,Net-(J2-Pad1)*%
X129540000Y-109855000D03*
D20*
%TO.P,Q1,1*%
%TO.N,/9(\u002A\u002A)*%
X132080000Y-109855000D03*
%TD*%
D10*
%TO.P,J2,2*%
%TO.N,GND*%
X117856000Y-102997000D03*
%TO.P,J2,1*%
%TO.N,Net-(J2-Pad1)*%
%TA.AperFunction,ComponentPad*%
G36*
G01*
X119406001Y-109117000D02*
X116305999Y-109117000D01*
G75*
G02*
X116056000Y-108867001I0J249999D01*
G01*
X116056000Y-107286999D01*
G75*
G02*
X116305999Y-107037000I249999J0D01*
G01*
X119406001Y-107037000D01*
G75*
G02*
X119656000Y-107286999I0J-249999D01*
G01*
X119656000Y-108867001D01*
G75*
G02*
X119406001Y-109117000I-249999J0D01*
G01*
G37*
%TD.AperFunction*%
%TD*%
%TO.P,FB1,2*%
%TO.N,Net-(C1-Pad1)*%
%TA.AperFunction,SMDPad,CuDef*%
G36*
G01*
X117143000Y-95180999D02*
X117143000Y-96081001D01*
G75*
G02*
X116893001Y-96331000I-249999J0D01*
G01*
X116242999Y-96331000D01*
G75*
G02*
X115993000Y-96081001I0J249999D01*
G01*
X115993000Y-95180999D01*
G75*
G02*
X116242999Y-94931000I249999J0D01*
G01*
X116893001Y-94931000D01*
G75*
G02*
X117143000Y-95180999I0J-249999D01*
G01*
G37*
%TD.AperFunction*%
%TO.P,FB1,1*%
%TO.N,Net-(D2-Pad2)*%
%TA.AperFunction,SMDPad,CuDef*%
G36*
G01*
X119193000Y-95180999D02*
X119193000Y-96081001D01*
G75*
G02*
X118943001Y-96331000I-249999J0D01*
G01*
X118292999Y-96331000D01*
G75*
G02*
X118043000Y-96081001I0J249999D01*
G01*
X118043000Y-95180999D01*
G75*
G02*
X118292999Y-94931000I249999J0D01*
G01*
X118943001Y-94931000D01*
G75*
G02*
X119193000Y-95180999I0J-249999D01*
G01*
G37*
%TD.AperFunction*%
%TD*%
%TO.P,13,2*%
%TO.N,/13(SCK)*%
%TA.AperFunction,SMDPad,CuDef*%
G36*
G01*
X141781000Y-81464999D02*
X141781000Y-82365001D01*
G75*
G02*
X141531001Y-82615000I-249999J0D01*
G01*
X140880999Y-82615000D01*
G75*
G02*
X140631000Y-82365001I0J249999D01*
G01*
X140631000Y-81464999D01*
G75*
G02*
X140880999Y-81215000I249999J0D01*
G01*
X141531001Y-81215000D01*
G75*
G02*
X141781000Y-81464999I0J-249999D01*
G01*
G37*
%TD.AperFunction*%
%TO.P,13,1*%
%TO.N,Net-(D6-Pad1)*%
%TA.AperFunction,SMDPad,CuDef*%
G36*
G01*
X143831000Y-81464999D02*
X143831000Y-82365001D01*
G75*
G02*
X143581001Y-82615000I-249999J0D01*
G01*
X142930999Y-82615000D01*
G75*
G02*
X142681000Y-82365001I0J249999D01*
G01*
X142681000Y-81464999D01*
G75*
G02*
X142930999Y-81215000I249999J0D01*
G01*
X143581001Y-81215000D01*
G75*
G02*
X143831000Y-81464999I0J-249999D01*
G01*
G37*
%TD.AperFunction*%
%TD*%
%TO.P,RES,2*%
%TO.N,Net-(D5-Pad2)*%
%TA.AperFunction,SMDPad,CuDef*%
G36*
G01*
X134415000Y-81464999D02*
X134415000Y-82365001D01*
G75*
G02*
X134165001Y-82615000I-249999J0D01*
G01*
X133514999Y-82615000D01*
G75*
G02*
X133265000Y-82365001I0J249999D01*
G01*
X133265000Y-81464999D01*
G75*
G02*
X133514999Y-81215000I249999J0D01*
G01*
X134165001Y-81215000D01*
G75*
G02*
X134415000Y-81464999I0J-249999D01*
G01*
G37*
%TD.AperFunction*%
%TO.P,RES,1*%
%TO.N,/Reset*%
%TA.AperFunction,SMDPad,CuDef*%
G36*
G01*
X136465000Y-81464999D02*
X136465000Y-82365001D01*
G75*
G02*
X136215001Y-82615000I-249999J0D01*
G01*
X135564999Y-82615000D01*
G75*
G02*
X135315000Y-82365001I0J249999D01*
G01*
X135315000Y-81464999D01*
G75*
G02*
X135564999Y-81215000I249999J0D01*
G01*
X136215001Y-81215000D01*
G75*
G02*
X136465000Y-81464999I0J-249999D01*
G01*
G37*
%TD.AperFunction*%
%TD*%
%TO.P,TX,2*%
%TO.N,Net-(D4-Pad2)*%
%TA.AperFunction,SMDPad,CuDef*%
G36*
G01*
X134415000Y-83750999D02*
X134415000Y-84651001D01*
G75*
G02*
X134165001Y-84901000I-249999J0D01*
G01*
X133514999Y-84901000D01*
G75*
G02*
X133265000Y-84651001I0J249999D01*
G01*
X133265000Y-83750999D01*
G75*
G02*
X133514999Y-83501000I249999J0D01*
G01*
X134165001Y-83501000D01*
G75*
G02*
X134415000Y-83750999I0J-249999D01*
G01*
G37*
%TD.AperFunction*%
%TO.P,TX,1*%
%TO.N,Net-(D4-Pad1)*%
%TA.AperFunction,SMDPad,CuDef*%
G36*
G01*
X136465000Y-83750999D02*
X136465000Y-84651001D01*
G75*
G02*
X136215001Y-84901000I-249999J0D01*
G01*
X135564999Y-84901000D01*
G75*
G02*
X135315000Y-84651001I0J249999D01*
G01*
X135315000Y-83750999D01*
G75*
G02*
X135564999Y-83501000I249999J0D01*
G01*
X136215001Y-83501000D01*
G75*
G02*
X136465000Y-83750999I0J-249999D01*
G01*
G37*
%TD.AperFunction*%
%TD*%
%TO.P,RX,2*%
%TO.N,Net-(D3-Pad2)*%
%TA.AperFunction,SMDPad,CuDef*%
G36*
G01*
X134415000Y-86036999D02*
X134415000Y-86937001D01*
G75*
G02*
X134165001Y-87187000I-249999J0D01*
G01*
X133514999Y-87187000D01*
G75*
G02*
X133265000Y-86937001I0J249999D01*
G01*
X133265000Y-86036999D01*
G75*
G02*
X133514999Y-85787000I249999J0D01*
G01*
X134165001Y-85787000D01*
G75*
G02*
X134415000Y-86036999I0J-249999D01*
G01*
G37*
%TD.AperFunction*%
%TO.P,RX,1*%
%TO.N,Net-(D3-Pad1)*%
%TA.AperFunction,SMDPad,CuDef*%
G36*
G01*
X136465000Y-86036999D02*
X136465000Y-86937001D01*
G75*
G02*
X136215001Y-87187000I-249999J0D01*
G01*
X135564999Y-87187000D01*
G75*
G02*
X135315000Y-86937001I0J249999D01*
G01*
X135315000Y-86036999D01*
G75*
G02*
X135564999Y-85787000I249999J0D01*
G01*
X136215001Y-85787000D01*
G75*
G02*
X136465000Y-86036999I0J-249999D01*
G01*
G37*
%TD.AperFunction*%
%TD*%
D21*
%TO.P,D2,2*%
%TO.N,Net-(D2-Pad2)*%
X120650000Y-95631000D03*
%TO.P,D2,1*%
%TO.N,+5V*%
X123450000Y-95631000D03*
%TD*%
%TO.P,PWR,2*%
%TO.N,Net-(D1-Pad2)*%
%TA.AperFunction,SMDPad,CuDef*%
G36*
G01*
X134433000Y-88322999D02*
X134433000Y-89223001D01*
G75*
G02*
X134183001Y-89473000I-249999J0D01*
G01*
X133532999Y-89473000D01*
G75*
G02*
X133283000Y-89223001I0J249999D01*
G01*
X133283000Y-88322999D01*
G75*
G02*
X133532999Y-88073000I249999J0D01*
G01*
X134183001Y-88073000D01*
G75*
G02*
X134433000Y-88322999I0J-249999D01*
G01*
G37*
%TD.AperFunction*%
%TO.P,PWR,1*%
%TO.N,GND*%
%TA.AperFunction,SMDPad,CuDef*%
G36*
G01*
X136483000Y-88322999D02*
X136483000Y-89223001D01*
G75*
G02*
X136233001Y-89473000I-249999J0D01*
G01*
X135582999Y-89473000D01*
G75*
G02*
X135333000Y-89223001I0J249999D01*
G01*
X135333000Y-88322999D01*
G75*
G02*
X135582999Y-88073000I249999J0D01*
G01*
X136233001Y-88073000D01*
G75*
G02*
X136483000Y-88322999I0J-249999D01*
G01*
G37*
%TD.AperFunction*%
%TD*%
%TO.P,C10,1*%
%TO.N,Net-(C10-Pad1)*%
%TA.AperFunction,SMDPad,CuDef*%
G36*
G01*
X170773000Y-91370999D02*
X170773000Y-92271001D01*
G75*
G02*
X170523001Y-92521000I-249999J0D01*
G01*
X169872999Y-92521000D01*
G75*
G02*
X169623000Y-92271001I0J249999D01*
G01*
X169623000Y-91370999D01*
G75*
G02*
X169872999Y-91121000I249999J0D01*
G01*
X170523001Y-91121000D01*
G75*
G02*
X170773000Y-91370999I0J-249999D01*
G01*
G37*
%TD.AperFunction*%
%TO.P,C10,2*%
%TO.N,GND*%
%TA.AperFunction,SMDPad,CuDef*%
G36*
G01*
X168723000Y-91370999D02*
X168723000Y-92271001D01*
G75*
G02*
X168473001Y-92521000I-249999J0D01*
G01*
X167822999Y-92521000D01*
G75*
G02*
X167573000Y-92271001I0J249999D01*
G01*
X167573000Y-91370999D01*
G75*
G02*
X167822999Y-91121000I249999J0D01*
G01*
X168473001Y-91121000D01*
G75*
G02*
X168723000Y-91370999I0J-249999D01*
G01*
G37*
%TD.AperFunction*%
%TD*%
%TO.P,C9,1*%
%TO.N,Net-(C9-Pad1)*%
%TA.AperFunction,SMDPad,CuDef*%
G36*
G01*
X162983000Y-92271001D02*
X162983000Y-91370999D01*
G75*
G02*
X163232999Y-91121000I249999J0D01*
G01*
X163883001Y-91121000D01*
G75*
G02*
X164133000Y-91370999I0J-249999D01*
G01*
X164133000Y-92271001D01*
G75*
G02*
X163883001Y-92521000I-249999J0D01*
G01*
X163232999Y-92521000D01*
G75*
G02*
X162983000Y-92271001I0J249999D01*
G01*
G37*
%TD.AperFunction*%
%TO.P,C9,2*%
%TO.N,GND*%
%TA.AperFunction,SMDPad,CuDef*%
G36*
G01*
X165033000Y-92271001D02*
X165033000Y-91370999D01*
G75*
G02*
X165282999Y-91121000I249999J0D01*
G01*
X165933001Y-91121000D01*
G75*
G02*
X166183000Y-91370999I0J-249999D01*
G01*
X166183000Y-92271001D01*
G75*
G02*
X165933001Y-92521000I-249999J0D01*
G01*
X165282999Y-92521000D01*
G75*
G02*
X165033000Y-92271001I0J249999D01*
G01*
G37*
%TD.AperFunction*%
%TD*%
%TO.P,C8,2*%
%TO.N,GND*%
%TA.AperFunction,SMDPad,CuDef*%
G36*
G01*
X165645217Y-96809820D02*
X165008820Y-97446217D01*
G75*
G02*
X164655268Y-97446217I-176776J176776D01*
G01*
X164195647Y-96986596D01*
G75*
G02*
X164195647Y-96633044I176776J176776D01*
G01*
X164832044Y-95996647D01*
G75*
G02*
X165185596Y-95996647I176776J-176776D01*
G01*
X165645217Y-96456268D01*
G75*
G02*
X165645217Y-96809820I-176776J-176776D01*
G01*
G37*
%TD.AperFunction*%
%TO.P,C8,1*%
%TO.N,+5V*%
%TA.AperFunction,SMDPad,CuDef*%
G36*
G01*
X167094785Y-98259388D02*
X166458388Y-98895785D01*
G75*
G02*
X166104836Y-98895785I-176776J176776D01*
G01*
X165645215Y-98436164D01*
G75*
G02*
X165645215Y-98082612I176776J176776D01*
G01*
X166281612Y-97446215D01*
G75*
G02*
X166635164Y-97446215I176776J-176776D01*
G01*
X167094785Y-97905836D01*
G75*
G02*
X167094785Y-98259388I-176776J-176776D01*
G01*
G37*
%TD.AperFunction*%
%TD*%
%TO.P,C7,2*%
%TO.N,/Reset*%
%TA.AperFunction,SMDPad,CuDef*%
G36*
G01*
X143715000Y-103701001D02*
X143715000Y-102800999D01*
G75*
G02*
X143964999Y-102551000I249999J0D01*
G01*
X144615001Y-102551000D01*
G75*
G02*
X144865000Y-102800999I0J-249999D01*
G01*
X144865000Y-103701001D01*
G75*
G02*
X144615001Y-103951000I-249999J0D01*
G01*
X143964999Y-103951000D01*
G75*
G02*
X143715000Y-103701001I0J249999D01*
G01*
G37*
%TD.AperFunction*%
%TO.P,C7,1*%
%TO.N,Net-(C7-Pad1)*%
%TA.AperFunction,SMDPad,CuDef*%
G36*
G01*
X141665000Y-103701001D02*
X141665000Y-102800999D01*
G75*
G02*
X141914999Y-102551000I249999J0D01*
G01*
X142565001Y-102551000D01*
G75*
G02*
X142815000Y-102800999I0J-249999D01*
G01*
X142815000Y-103701001D01*
G75*
G02*
X142565001Y-103951000I-249999J0D01*
G01*
X141914999Y-103951000D01*
G75*
G02*
X141665000Y-103701001I0J249999D01*
G01*
G37*
%TD.AperFunction*%
%TD*%
%TO.P,C6,2*%
%TO.N,GND*%
%TA.AperFunction,SMDPad,CuDef*%
G36*
G01*
X134433000Y-91116999D02*
X134433000Y-92017001D01*
G75*
G02*
X134183001Y-92267000I-249999J0D01*
G01*
X133532999Y-92267000D01*
G75*
G02*
X133283000Y-92017001I0J249999D01*
G01*
X133283000Y-91116999D01*
G75*
G02*
X133532999Y-90867000I249999J0D01*
G01*
X134183001Y-90867000D01*
G75*
G02*
X134433000Y-91116999I0J-249999D01*
G01*
G37*
%TD.AperFunction*%
%TO.P,C6,1*%
%TO.N,+5V*%
%TA.AperFunction,SMDPad,CuDef*%
G36*
G01*
X136483000Y-91116999D02*
X136483000Y-92017001D01*
G75*
G02*
X136233001Y-92267000I-249999J0D01*
G01*
X135582999Y-92267000D01*
G75*
G02*
X135333000Y-92017001I0J249999D01*
G01*
X135333000Y-91116999D01*
G75*
G02*
X135582999Y-90867000I249999J0D01*
G01*
X136233001Y-90867000D01*
G75*
G02*
X136483000Y-91116999I0J-249999D01*
G01*
G37*
%TD.AperFunction*%
%TD*%
%TO.P,C5,2*%
%TO.N,GND*%
%TA.AperFunction,SMDPad,CuDef*%
G36*
G01*
X134063000Y-104209001D02*
X134063000Y-103308999D01*
G75*
G02*
X134312999Y-103059000I249999J0D01*
G01*
X134963001Y-103059000D01*
G75*
G02*
X135213000Y-103308999I0J-249999D01*
G01*
X135213000Y-104209001D01*
G75*
G02*
X134963001Y-104459000I-249999J0D01*
G01*
X134312999Y-104459000D01*
G75*
G02*
X134063000Y-104209001I0J249999D01*
G01*
G37*
%TD.AperFunction*%
%TO.P,C5,1*%
%TO.N,+5V*%
%TA.AperFunction,SMDPad,CuDef*%
G36*
G01*
X132013000Y-104209001D02*
X132013000Y-103308999D01*
G75*
G02*
X132262999Y-103059000I249999J0D01*
G01*
X132913001Y-103059000D01*
G75*
G02*
X133163000Y-103308999I0J-249999D01*
G01*
X133163000Y-104209001D01*
G75*
G02*
X132913001Y-104459000I-249999J0D01*
G01*
X132262999Y-104459000D01*
G75*
G02*
X132013000Y-104209001I0J249999D01*
G01*
G37*
%TD.AperFunction*%
%TD*%
%TO.P,C4,2*%
%TO.N,GND*%
%TA.AperFunction,SMDPad,CuDef*%
G36*
G01*
X139397000Y-92017001D02*
X139397000Y-91116999D01*
G75*
G02*
X139646999Y-90867000I249999J0D01*
G01*
X140297001Y-90867000D01*
G75*
G02*
X140547000Y-91116999I0J-249999D01*
G01*
X140547000Y-92017001D01*
G75*
G02*
X140297001Y-92267000I-249999J0D01*
G01*
X139646999Y-92267000D01*
G75*
G02*
X139397000Y-92017001I0J249999D01*
G01*
G37*
%TD.AperFunction*%
%TO.P,C4,1*%
%TO.N,Net-(C4-Pad1)*%
%TA.AperFunction,SMDPad,CuDef*%
G36*
G01*
X137347000Y-92017001D02*
X137347000Y-91116999D01*
G75*
G02*
X137596999Y-90867000I249999J0D01*
G01*
X138247001Y-90867000D01*
G75*
G02*
X138497000Y-91116999I0J-249999D01*
G01*
X138497000Y-92017001D01*
G75*
G02*
X138247001Y-92267000I-249999J0D01*
G01*
X137596999Y-92267000D01*
G75*
G02*
X137347000Y-92017001I0J249999D01*
G01*
G37*
%TD.AperFunction*%
%TD*%
%TO.P,C3,2*%
%TO.N,GND*%
%TA.AperFunction,SMDPad,CuDef*%
G36*
G01*
X122887000Y-93033001D02*
X122887000Y-92132999D01*
G75*
G02*
X123136999Y-91883000I249999J0D01*
G01*
X123787001Y-91883000D01*
G75*
G02*
X124037000Y-92132999I0J-249999D01*
G01*
X124037000Y-93033001D01*
G75*
G02*
X123787001Y-93283000I-249999J0D01*
G01*
X123136999Y-93283000D01*
G75*
G02*
X122887000Y-93033001I0J249999D01*
G01*
G37*
%TD.AperFunction*%
%TO.P,C3,1*%
%TO.N,+5V*%
%TA.AperFunction,SMDPad,CuDef*%
G36*
G01*
X120837000Y-93033001D02*
X120837000Y-92132999D01*
G75*
G02*
X121086999Y-91883000I249999J0D01*
G01*
X121737001Y-91883000D01*
G75*
G02*
X121987000Y-92132999I0J-249999D01*
G01*
X121987000Y-93033001D01*
G75*
G02*
X121737001Y-93283000I-249999J0D01*
G01*
X121086999Y-93283000D01*
G75*
G02*
X120837000Y-93033001I0J249999D01*
G01*
G37*
%TD.AperFunction*%
%TD*%
%TO.P,C2,2*%
%TO.N,GND*%
%TA.AperFunction,SMDPad,CuDef*%
G36*
G01*
X122887000Y-90747001D02*
X122887000Y-89846999D01*
G75*
G02*
X123136999Y-89597000I249999J0D01*
G01*
X123787001Y-89597000D01*
G75*
G02*
X124037000Y-89846999I0J-249999D01*
G01*
X124037000Y-90747001D01*
G75*
G02*
X123787001Y-90997000I-249999J0D01*
G01*
X123136999Y-90997000D01*
G75*
G02*
X122887000Y-90747001I0J249999D01*
G01*
G37*
%TD.AperFunction*%
%TO.P,C2,1*%
%TO.N,+5V*%
%TA.AperFunction,SMDPad,CuDef*%
G36*
G01*
X120837000Y-90747001D02*
X120837000Y-89846999D01*
G75*
G02*
X121086999Y-89597000I249999J0D01*
G01*
X121737001Y-89597000D01*
G75*
G02*
X121987000Y-89846999I0J-249999D01*
G01*
X121987000Y-90747001D01*
G75*
G02*
X121737001Y-90997000I-249999J0D01*
G01*
X121086999Y-90997000D01*
G75*
G02*
X120837000Y-90747001I0J249999D01*
G01*
G37*
%TD.AperFunction*%
%TD*%
%TO.P,C1,2*%
%TO.N,GND*%
%TA.AperFunction,SMDPad,CuDef*%
G36*
G01*
X113088000Y-95180999D02*
X113088000Y-96081001D01*
G75*
G02*
X112838001Y-96331000I-249999J0D01*
G01*
X112187999Y-96331000D01*
G75*
G02*
X111938000Y-96081001I0J249999D01*
G01*
X111938000Y-95180999D01*
G75*
G02*
X112187999Y-94931000I249999J0D01*
G01*
X112838001Y-94931000D01*
G75*
G02*
X113088000Y-95180999I0J-249999D01*
G01*
G37*
%TD.AperFunction*%
%TO.P,C1,1*%
%TO.N,Net-(C1-Pad1)*%
%TA.AperFunction,SMDPad,CuDef*%
G36*
G01*
X115138000Y-95180999D02*
X115138000Y-96081001D01*
G75*
G02*
X114888001Y-96331000I-249999J0D01*
G01*
X114237999Y-96331000D01*
G75*
G02*
X113988000Y-96081001I0J249999D01*
G01*
X113988000Y-95180999D01*
G75*
G02*
X114237999Y-94931000I249999J0D01*
G01*
X114888001Y-94931000D01*
G75*
G02*
X115138000Y-95180999I0J-249999D01*
G01*
G37*
%TD.AperFunction*%
%TD*%
D22*
%TO.P,P1,1*%
%TO.N,N/C*%
X138938000Y-123825000D03*
%TO.P,P1,2*%
X141478000Y-123825000D03*
%TO.P,P1,3*%
%TO.N,/Reset*%
X144018000Y-123825000D03*
%TO.P,P1,4*%
%TO.N,N/C*%
X146558000Y-123825000D03*
%TO.P,P1,5*%
%TO.N,+5V*%
X149098000Y-123825000D03*
%TO.P,P1,6*%
%TO.N,GND*%
X151638000Y-123825000D03*
%TO.P,P1,7*%
X154178000Y-123825000D03*
%TO.P,P1,8*%
%TO.N,N/C*%
X156718000Y-123825000D03*
%TD*%
%TO.P,P2,1*%
%TO.N,/A0*%
X161798000Y-123825000D03*
%TO.P,P2,2*%
%TO.N,/A1*%
X164338000Y-123825000D03*
%TO.P,P2,3*%
%TO.N,/A2*%
X166878000Y-123825000D03*
%TO.P,P2,4*%
%TO.N,/A3*%
X169418000Y-123825000D03*
%TO.P,P2,5*%
%TO.N,/A4(SDA)*%
X171958000Y-123825000D03*
%TO.P,P2,6*%
%TO.N,/A5(SCL)*%
X174498000Y-123825000D03*
%TD*%
%TO.P,P3,1*%
%TO.N,/A5(SCL)*%
X129794000Y-75565000D03*
%TO.P,P3,2*%
%TO.N,/A4(SDA)*%
X132334000Y-75565000D03*
%TO.P,P3,3*%
%TO.N,N/C*%
X134874000Y-75565000D03*
%TO.P,P3,4*%
%TO.N,GND*%
X137414000Y-75565000D03*
%TO.P,P3,5*%
%TO.N,/13(SCK)*%
X139954000Y-75565000D03*
%TO.P,P3,6*%
%TO.N,/12(MISO)*%
X142494000Y-75565000D03*
%TO.P,P3,7*%
%TO.N,/11(\u002A\u002A/MOSI)*%
X145034000Y-75565000D03*
%TO.P,P3,8*%
%TO.N,/10(\u002A\u002A/SS)*%
X147574000Y-75565000D03*
%TO.P,P3,9*%
%TO.N,/9(\u002A\u002A)*%
X150114000Y-75565000D03*
%TO.P,P3,10*%
%TO.N,/8*%
X152654000Y-75565000D03*
%TD*%
%TO.P,P4,1*%
%TO.N,/7*%
X156718000Y-75565000D03*
%TO.P,P4,2*%
%TO.N,/6(\u002A\u002A)*%
X159258000Y-75565000D03*
%TO.P,P4,3*%
%TO.N,/5(\u002A\u002A)*%
X161798000Y-75565000D03*
%TO.P,P4,4*%
%TO.N,/4*%
X164338000Y-75565000D03*
%TO.P,P4,5*%
%TO.N,/3(\u002A\u002A)*%
X166878000Y-75565000D03*
%TO.P,P4,6*%
%TO.N,/2*%
X169418000Y-75565000D03*
%TO.P,P4,7*%
%TO.N,/1(Tx)*%
X171958000Y-75565000D03*
%TO.P,P4,8*%
%TO.N,/0(Rx)*%
X174498000Y-75565000D03*
%TD*%
D23*
%TO.P,P5,1*%
%TO.N,N/C*%
X124968000Y-123825000D03*
%TD*%
%TO.P,P6,1*%
%TO.N,N/C*%
X177038000Y-118745000D03*
%TD*%
%TO.P,P7,1*%
%TO.N,N/C*%
X126238000Y-75565000D03*
%TD*%
%TO.P,P8,1*%
%TO.N,N/C*%
X177038000Y-90805000D03*
%TD*%
D24*
%TO.N,/Reset*%
X164592000Y-105727500D03*
X145415000Y-104330500D03*
X122936000Y-74549000D03*
X135890000Y-78867000D03*
X138049000Y-90043000D03*
%TO.N,GND*%
X166878000Y-91821000D03*
X165608000Y-94869000D03*
X124714000Y-86106000D03*
X123444000Y-80645000D03*
X123444000Y-93980000D03*
X137287000Y-87630000D03*
X156464000Y-106362500D03*
X134549000Y-102623500D03*
X137160000Y-92583000D03*
X133018250Y-92568750D03*
X140970000Y-92710000D03*
X140081000Y-85471000D03*
%TO.N,/A4(SDA)*%
X161480500Y-104838500D03*
%TO.N,/A5(SCL)*%
X160953500Y-104324432D03*
%TO.N,/9(\u002A\u002A)*%
X155892500Y-98234500D03*
X144138932Y-105416068D03*
%TO.N,/1(Tx)*%
X165735000Y-104648000D03*
X145415000Y-102044500D03*
%TO.N,/0(Rx)*%
X163131500Y-103187500D03*
X145478500Y-99822000D03*
%TO.N,/10(\u002A\u002A/SS)*%
X155384500Y-98806000D03*
X144653000Y-104902000D03*
%TO.N,Net-(C7-Pad1)*%
X140970000Y-103251000D03*
X131318000Y-102616000D03*
%TO.N,Net-(J1-PadA7)*%
X119126000Y-87542000D03*
X137541000Y-95631000D03*
%TO.N,Net-(J1-PadA6)*%
X138303000Y-96258999D03*
X119126000Y-88519000D03*
%TD*%
D25*
%TO.N,/Reset*%
X113368000Y-74585000D02*
X121328000Y-74585000D01*
X121564020Y-74585000D02*
X121328000Y-74585000D01*
X163631361Y-104703361D02*
X163562047Y-104703361D01*
X163567861Y-104703361D02*
X164592000Y-105727500D01*
X163562047Y-104703361D02*
X163567861Y-104703361D01*
X145415000Y-104330500D02*
X145369500Y-104330500D01*
X144335500Y-103251000D02*
X145415000Y-104330500D01*
X144290000Y-103251000D02*
X144335500Y-103251000D01*
X145415000Y-104330500D02*
X145415000Y-121158000D01*
X144018000Y-122555000D02*
X144018000Y-123825000D01*
X145415000Y-121158000D02*
X144018000Y-122555000D01*
X122900000Y-74585000D02*
X122936000Y-74549000D01*
X121328000Y-74585000D02*
X122900000Y-74585000D01*
X135890000Y-78867000D02*
X135890000Y-81915000D01*
X138049000Y-84910404D02*
X135890000Y-82751404D01*
X135890000Y-82751404D02*
X135890000Y-81915000D01*
X138049000Y-90043000D02*
X138049000Y-84910404D01*
D26*
%TO.N,+5V*%
X121412000Y-93593000D02*
X121412000Y-90297000D01*
X123450000Y-95631000D02*
X121412000Y-93593000D01*
X135849000Y-94063000D02*
X136499000Y-94063000D01*
X132599000Y-103748000D02*
X132588000Y-103759000D01*
X132599000Y-101263000D02*
X132599000Y-103748000D01*
X155854583Y-103571990D02*
X155333118Y-104093455D01*
X155854583Y-103571990D02*
X155889010Y-103571990D01*
X155889010Y-103571990D02*
X158496000Y-100965000D01*
X161855686Y-100965000D02*
X163562047Y-99258639D01*
X158496000Y-100965000D02*
X161855686Y-100965000D01*
X123815999Y-95265001D02*
X123450000Y-95631000D01*
X129794000Y-88755000D02*
X129776000Y-88773000D01*
X129794000Y-81915000D02*
X129794000Y-88755000D01*
D25*
X164649686Y-98171000D02*
X166370000Y-98171000D01*
X163562047Y-99258639D02*
X164649686Y-98171000D01*
D26*
X129794000Y-103759000D02*
X128889999Y-102854999D01*
X132588000Y-103759000D02*
X129794000Y-103759000D01*
X123450000Y-95631000D02*
X128874998Y-95631000D01*
X128889999Y-96885999D02*
X128889999Y-102854999D01*
X136499000Y-96844998D02*
X136540001Y-96885999D01*
X136499000Y-94063000D02*
X136499000Y-96844998D01*
X136540001Y-96885999D02*
X128889999Y-96885999D01*
X142351999Y-96885999D02*
X136540001Y-96885999D01*
X153670000Y-104521000D02*
X154905573Y-104521000D01*
X154905573Y-104521000D02*
X155854583Y-103571990D01*
X152527000Y-97505998D02*
X152527000Y-103378000D01*
X151907001Y-96885999D02*
X152527000Y-97505998D01*
X142351999Y-96885999D02*
X151907001Y-96885999D01*
X149098000Y-107950000D02*
X153098500Y-103949500D01*
X149098000Y-123825000D02*
X149098000Y-107950000D01*
X153098500Y-103949500D02*
X153670000Y-104521000D01*
X152527000Y-103378000D02*
X153098500Y-103949500D01*
X128889999Y-95646001D02*
X128874998Y-95631000D01*
X128889999Y-96885999D02*
X128889999Y-95646001D01*
X128889999Y-89659001D02*
X129776000Y-88773000D01*
X128889999Y-95646001D02*
X128889999Y-89659001D01*
D25*
X135908000Y-93753000D02*
X135908000Y-91567000D01*
X135849000Y-93812000D02*
X135908000Y-93753000D01*
X135849000Y-94063000D02*
X135849000Y-93812000D01*
%TO.N,GND*%
X165608000Y-91821000D02*
X166878000Y-91821000D01*
X166878000Y-91821000D02*
X168148000Y-91821000D01*
X162996361Y-98645503D02*
X164920432Y-96721432D01*
X162996361Y-98692953D02*
X162996361Y-98645503D01*
D26*
X117583000Y-91670000D02*
X116668000Y-92585000D01*
X117583000Y-91515000D02*
X117583000Y-91670000D01*
X117583000Y-84860000D02*
X116668000Y-83945000D01*
X117583000Y-85015000D02*
X117583000Y-84860000D01*
D25*
X164920432Y-95556568D02*
X165608000Y-94869000D01*
X164920432Y-96721432D02*
X164920432Y-95556568D01*
X123462000Y-92583000D02*
X123462000Y-90297000D01*
X123444000Y-86106000D02*
X124714000Y-86106000D01*
X123444000Y-84963000D02*
X123444000Y-86106000D01*
X123444000Y-86106000D02*
X123444000Y-87249000D01*
X123444000Y-81915000D02*
X123444000Y-80645000D01*
X123462000Y-93962000D02*
X123444000Y-93980000D01*
X123462000Y-92583000D02*
X123462000Y-93962000D01*
X136144000Y-88773000D02*
X137287000Y-87630000D01*
X135908000Y-88773000D02*
X136144000Y-88773000D01*
X157551639Y-105274861D02*
X157551639Y-105269047D01*
X156464000Y-106362500D02*
X157551639Y-105274861D01*
X134549000Y-103670000D02*
X134638000Y-103759000D01*
X134549000Y-101263000D02*
X134549000Y-102623500D01*
X134549000Y-102623500D02*
X134549000Y-103670000D01*
X132599000Y-95007000D02*
X132599000Y-94063000D01*
X132757001Y-95165001D02*
X132599000Y-95007000D01*
X133900001Y-95165001D02*
X132757001Y-95165001D01*
X135199000Y-94063000D02*
X135199000Y-95052000D01*
X135199000Y-95052000D02*
X135085999Y-95165001D01*
X135085999Y-95165001D02*
X133900001Y-95165001D01*
X137149000Y-92594000D02*
X137160000Y-92583000D01*
X137149000Y-94063000D02*
X137149000Y-92594000D01*
X133858000Y-91729000D02*
X133858000Y-91567000D01*
X132599000Y-92988000D02*
X133018250Y-92568750D01*
X132599000Y-94063000D02*
X132599000Y-92988000D01*
X133018250Y-92568750D02*
X133858000Y-91729000D01*
X139972000Y-91567000D02*
X139972000Y-91585000D01*
X139972000Y-91712000D02*
X140970000Y-92710000D01*
X139972000Y-91567000D02*
X139972000Y-91712000D01*
D26*
X112513000Y-92610000D02*
X112488000Y-92585000D01*
X112513000Y-95631000D02*
X112513000Y-92610000D01*
D25*
X141206000Y-84346000D02*
X140081000Y-85471000D01*
X141206000Y-84201000D02*
X141206000Y-84346000D01*
%TO.N,/A0*%
X161798000Y-122555000D02*
X161798000Y-123825000D01*
X162194950Y-112537950D02*
X162194950Y-122158050D01*
X158168990Y-108511990D02*
X162194950Y-112537950D01*
X158168990Y-106914437D02*
X158168990Y-108511990D01*
X162194950Y-122158050D02*
X161798000Y-122555000D01*
X158683010Y-106400417D02*
X158168990Y-106914437D01*
%TO.N,/A1*%
X159225897Y-106966103D02*
X159248695Y-106966103D01*
X158496000Y-107696000D02*
X159225897Y-106966103D01*
X158496000Y-108331000D02*
X158496000Y-107696000D01*
X162521960Y-112356960D02*
X158496000Y-108331000D01*
X162521960Y-120556804D02*
X162521960Y-112356960D01*
X164338000Y-122372844D02*
X162521960Y-120556804D01*
X164338000Y-123825000D02*
X164338000Y-122372844D01*
%TO.N,/A2*%
X166878000Y-122555000D02*
X166878000Y-123825000D01*
X165319030Y-120996030D02*
X166878000Y-122555000D01*
X163423647Y-120996030D02*
X165319030Y-120996030D01*
X162848970Y-108492970D02*
X162848970Y-120421353D01*
X161322103Y-106966103D02*
X162848970Y-108492970D01*
X162848970Y-120421353D02*
X163423647Y-120996030D01*
X161299305Y-106966103D02*
X161322103Y-106966103D01*
%TO.N,/A3*%
X161864990Y-106400417D02*
X161899417Y-106400417D01*
X161899417Y-106400417D02*
X163175980Y-107676980D01*
X163175980Y-120285902D02*
X163559098Y-120669020D01*
X163175980Y-107676980D02*
X163175980Y-120285902D01*
X163559098Y-120669020D02*
X167532020Y-120669020D01*
X169418000Y-122555000D02*
X169418000Y-123825000D01*
X167532020Y-120669020D02*
X169418000Y-122555000D01*
%TO.N,/A4(SDA)*%
X171958000Y-122555000D02*
X171958000Y-123825000D01*
X169745010Y-120342010D02*
X171958000Y-122555000D01*
X163694549Y-120342010D02*
X169745010Y-120342010D01*
X163502990Y-120150451D02*
X163694549Y-120342010D01*
X163502990Y-106907046D02*
X163502990Y-120150451D01*
X162430676Y-105834732D02*
X163502990Y-106907046D01*
X161480500Y-104884556D02*
X162430676Y-105834732D01*
X161480500Y-104838500D02*
X161480500Y-104884556D01*
%TO.N,/A5(SCL)*%
X163417826Y-105690512D02*
X163475512Y-105690512D01*
X162996361Y-105269047D02*
X163417826Y-105690512D01*
X174498000Y-122555000D02*
X174498000Y-123825000D01*
X163830000Y-106102686D02*
X163830000Y-120015000D01*
X171958000Y-120015000D02*
X174498000Y-122555000D01*
X163830000Y-120015000D02*
X171958000Y-120015000D01*
X162996361Y-105269047D02*
X163830000Y-106102686D01*
X162038813Y-104311499D02*
X160966433Y-104311499D01*
X160966433Y-104311499D02*
X160953500Y-104324432D01*
X162996361Y-105269047D02*
X162038813Y-104311499D01*
%TO.N,/9(\u002A\u002A)*%
X156985953Y-99258639D02*
X155800157Y-98072843D01*
X155501990Y-84844450D02*
X152326990Y-81669451D01*
X152326990Y-81669451D02*
X152326990Y-79174990D01*
X152326990Y-79174990D02*
X150114000Y-76962000D01*
X150114000Y-76962000D02*
X150114000Y-75565000D01*
X155501990Y-97843990D02*
X155501990Y-84844450D01*
X155892500Y-98234500D02*
X155501990Y-97843990D01*
X144138932Y-105416068D02*
X144760980Y-106038116D01*
X144760980Y-106038116D02*
X144760980Y-112459560D01*
X144760980Y-112459560D02*
X143120550Y-114099990D01*
X136324990Y-114099990D02*
X132080000Y-109855000D01*
X143120550Y-114099990D02*
X136324990Y-114099990D01*
%TO.N,/8*%
X157551639Y-98692953D02*
X155829000Y-96970314D01*
X155829000Y-96970314D02*
X155829000Y-84709000D01*
X152654000Y-81534000D02*
X152654000Y-75565000D01*
X155829000Y-84709000D02*
X152654000Y-81534000D01*
%TO.N,/7*%
X156718000Y-76835000D02*
X156718000Y-75565000D01*
X155448000Y-78105000D02*
X156718000Y-76835000D01*
X154051000Y-78105000D02*
X155448000Y-78105000D01*
X152981010Y-79174990D02*
X154051000Y-78105000D01*
X156156010Y-96085010D02*
X156156010Y-84573549D01*
X158117324Y-98046324D02*
X156156010Y-96085010D01*
X152981010Y-81398550D02*
X152981010Y-79174990D01*
X156156010Y-84573549D02*
X152981010Y-81398550D01*
X158117324Y-98127268D02*
X158117324Y-98046324D01*
%TO.N,/6(\u002A\u002A)*%
X157660990Y-78432010D02*
X159258000Y-76835000D01*
X153308020Y-79310440D02*
X154186450Y-78432010D01*
X159258000Y-76835000D02*
X159258000Y-75565000D01*
X153308020Y-81263098D02*
X153308020Y-79310440D01*
X154186450Y-78432010D02*
X157660990Y-78432010D01*
X156483020Y-84438098D02*
X153308020Y-81263098D01*
X156483020Y-95396020D02*
X156483020Y-84438098D01*
X158648583Y-97561583D02*
X156483020Y-95396020D01*
X158683010Y-97561583D02*
X158648583Y-97561583D01*
%TO.N,/5(\u002A\u002A)*%
X159873980Y-78759020D02*
X161798000Y-76835000D01*
X154321900Y-78759020D02*
X159873980Y-78759020D01*
X153635030Y-79445890D02*
X154321900Y-78759020D01*
X153635030Y-81127648D02*
X153635030Y-79445890D01*
X156810030Y-84302647D02*
X156581382Y-84074000D01*
X156810030Y-94580030D02*
X156810030Y-84302647D01*
X161798000Y-76835000D02*
X161798000Y-75565000D01*
X156581382Y-84074000D02*
X153635030Y-81127648D01*
X159225897Y-96995897D02*
X156810030Y-94580030D01*
X159248695Y-96995897D02*
X159225897Y-96995897D01*
%TO.N,/4*%
X164338000Y-76835000D02*
X164338000Y-75565000D01*
X171450000Y-90550999D02*
X173189960Y-88811039D01*
X171450000Y-94361000D02*
X171450000Y-90550999D01*
X166370000Y-99441000D02*
X171450000Y-94361000D01*
X165642427Y-99441000D02*
X166370000Y-99441000D01*
X164693417Y-100390010D02*
X165642427Y-99441000D01*
X173189960Y-88811039D02*
X173189960Y-80007880D01*
X173189960Y-80007880D02*
X171941100Y-78759020D01*
X166262020Y-78759020D02*
X164338000Y-76835000D01*
X171941100Y-78759020D02*
X166262020Y-78759020D01*
%TO.N,/3(\u002A\u002A)*%
X166878000Y-76835000D02*
X166878000Y-75565000D01*
X171777010Y-94496451D02*
X171777010Y-90686450D01*
X165562460Y-100711000D02*
X171777010Y-94496451D01*
X165503798Y-100711000D02*
X165562460Y-100711000D01*
X171968570Y-90494892D02*
X173516970Y-88946492D01*
X171777010Y-90686450D02*
X171968570Y-90494892D01*
X165259103Y-100955695D02*
X165503798Y-100711000D01*
X173516970Y-88946492D02*
X173516970Y-79872430D01*
X173516970Y-79872430D02*
X172076550Y-78432010D01*
X168475010Y-78432010D02*
X166878000Y-76835000D01*
X172076550Y-78432010D02*
X168475010Y-78432010D01*
%TO.N,/2*%
X169418000Y-76835000D02*
X169418000Y-75565000D01*
X172212000Y-78105000D02*
X170688000Y-78105000D01*
X172104020Y-90821902D02*
X173843980Y-89081942D01*
X170688000Y-78105000D02*
X169418000Y-76835000D01*
X172104020Y-94631902D02*
X172104020Y-90821902D01*
X173843980Y-89081942D02*
X173843980Y-79736980D01*
X166878000Y-99857920D02*
X172104020Y-94631902D01*
X166878000Y-103505000D02*
X166878000Y-99857920D01*
X166624000Y-103759000D02*
X166878000Y-103505000D01*
X166011798Y-103759000D02*
X166624000Y-103759000D01*
X173843980Y-79736980D02*
X172212000Y-78105000D01*
X165259103Y-103006305D02*
X166011798Y-103759000D01*
%TO.N,/1(Tx)*%
X164693417Y-103571990D02*
X164722490Y-103571990D01*
X171958000Y-76781000D02*
X171958000Y-75565000D01*
X172431030Y-94767353D02*
X172431030Y-90957352D01*
X170551383Y-96647000D02*
X172431030Y-94767353D01*
X170551380Y-96647000D02*
X170551383Y-96647000D01*
X167205010Y-99993370D02*
X170551380Y-96647000D01*
X167205010Y-103640451D02*
X167205010Y-99993370D01*
X172431030Y-90957352D02*
X174170990Y-89217393D01*
X165735000Y-104648000D02*
X165735000Y-104648000D01*
X166197461Y-104648000D02*
X167205010Y-103640451D01*
X164693417Y-103606417D02*
X165735000Y-104648000D01*
X164693417Y-103571990D02*
X164693417Y-103606417D01*
X165735000Y-104648000D02*
X166197461Y-104648000D01*
X145360500Y-102044500D02*
X144281000Y-100965000D01*
X145415000Y-102044500D02*
X145360500Y-102044500D01*
X171958000Y-76781000D02*
X171958000Y-76835000D01*
X171958000Y-77343000D02*
X174170990Y-79555990D01*
X174170990Y-79555990D02*
X174170990Y-89217393D01*
X171958000Y-76781000D02*
X171958000Y-77343000D01*
%TO.N,/0(Rx)*%
X167532020Y-104120980D02*
X166433500Y-105219500D01*
X166433500Y-105219500D02*
X165209556Y-105219500D01*
X167532020Y-100128820D02*
X167532020Y-104120980D01*
X172758040Y-91092804D02*
X172758040Y-94902800D01*
X165209556Y-105219500D02*
X164127732Y-104137676D01*
X172758040Y-94902800D02*
X167532020Y-100128820D01*
X174498000Y-89352844D02*
X172758040Y-91092804D01*
X174498000Y-75565000D02*
X174498000Y-89352844D01*
X165209556Y-105219500D02*
X165209556Y-105219500D01*
X164081676Y-104137676D02*
X163131500Y-103187500D01*
X164127732Y-104137676D02*
X164081676Y-104137676D01*
X145433000Y-99822000D02*
X144290000Y-98679000D01*
X145478500Y-99822000D02*
X145433000Y-99822000D01*
%TO.N,/13(SCK)*%
X139954000Y-76835000D02*
X139954000Y-75565000D01*
X155288897Y-103006305D02*
X154193950Y-101911358D01*
X154193950Y-85386254D02*
X151018950Y-82211255D01*
X154193950Y-101911358D02*
X154193950Y-85386254D01*
X151018950Y-82211255D02*
X151018950Y-79716790D01*
X151018950Y-79716790D02*
X150388190Y-79086030D01*
X150388190Y-79086030D02*
X142205030Y-79086030D01*
X141478000Y-78359000D02*
X139954000Y-76835000D01*
X142205030Y-79086030D02*
X141478000Y-78359000D01*
X141206000Y-80085060D02*
X142205030Y-79086030D01*
X141206000Y-81915000D02*
X141206000Y-80085060D01*
%TO.N,/10(\u002A\u002A/SS)*%
X155174980Y-98579036D02*
X155174980Y-84979902D01*
X155174980Y-84979902D02*
X151999980Y-81804902D01*
X151999980Y-81804902D02*
X151999980Y-79310440D01*
X151999980Y-79310440D02*
X150771770Y-78082230D01*
X150771770Y-78082230D02*
X150749000Y-78105000D01*
X150749000Y-78105000D02*
X148844000Y-78105000D01*
X147574000Y-76835000D02*
X147574000Y-75565000D01*
X148844000Y-78105000D02*
X147574000Y-76835000D01*
X155174980Y-98579036D02*
X156420268Y-99824324D01*
X144653000Y-104902000D02*
X145087990Y-105336990D01*
X145087990Y-105336990D02*
X145087990Y-112595010D01*
X145087990Y-112595010D02*
X143256000Y-114427000D01*
X135493760Y-114427000D02*
X132080000Y-117840760D01*
X143256000Y-114427000D02*
X135493760Y-114427000D01*
%TO.N,/12(MISO)*%
X155288897Y-100955695D02*
X154520960Y-100187758D01*
X154520960Y-85250804D02*
X151345960Y-82075804D01*
X154520960Y-100187758D02*
X154520960Y-85250804D01*
X151345960Y-82075804D02*
X151345960Y-79581340D01*
X151345960Y-79581340D02*
X150523640Y-78759020D01*
X150523640Y-78759020D02*
X144418020Y-78759020D01*
X142494000Y-76835000D02*
X142494000Y-75565000D01*
X144418020Y-78759020D02*
X142494000Y-76835000D01*
%TO.N,/11(\u002A\u002A/MOSI)*%
X155854583Y-100390010D02*
X154847970Y-99383397D01*
X154847970Y-99383397D02*
X154847970Y-85115352D01*
X154847970Y-85115352D02*
X151672970Y-81940353D01*
X151672970Y-81940353D02*
X151672970Y-79445890D01*
X151672970Y-79445890D02*
X150659090Y-78432010D01*
X150659090Y-78432010D02*
X146631010Y-78432010D01*
X145034000Y-76835000D02*
X145034000Y-75565000D01*
X146631010Y-78432010D02*
X145034000Y-76835000D01*
D26*
%TO.N,Net-(C1-Pad1)*%
X116819398Y-90715000D02*
X117583000Y-90715000D01*
X116662962Y-85815000D02*
X115876979Y-86600983D01*
X115876979Y-89772581D02*
X116819398Y-90715000D01*
X117583000Y-85815000D02*
X116662962Y-85815000D01*
X115876979Y-86600983D02*
X115876979Y-88212021D01*
X115876979Y-88212021D02*
X114860979Y-88212021D01*
X115876979Y-88212021D02*
X115876979Y-89772581D01*
X114563000Y-88510000D02*
X114563000Y-95631000D01*
X114860979Y-88212021D02*
X114563000Y-88510000D01*
X114563000Y-95631000D02*
X116568000Y-95631000D01*
D25*
%TO.N,Net-(C4-Pad1)*%
X137799000Y-91690000D02*
X137922000Y-91567000D01*
X137799000Y-94063000D02*
X137799000Y-91690000D01*
%TO.N,Net-(C7-Pad1)*%
X140970000Y-103251000D02*
X142240000Y-103251000D01*
X131299000Y-102597000D02*
X131318000Y-102616000D01*
X131299000Y-101263000D02*
X131299000Y-102597000D01*
%TO.N,Net-(C9-Pad1)*%
X163558000Y-88537000D02*
X164338000Y-87757000D01*
X163558000Y-91821000D02*
X163558000Y-88537000D01*
X161720769Y-93658231D02*
X163558000Y-91821000D01*
X161720769Y-96574433D02*
X161720769Y-93658231D01*
X161299305Y-96995897D02*
X161720769Y-96574433D01*
%TO.N,Net-(C10-Pad1)*%
X170198000Y-91821000D02*
X170198000Y-88537000D01*
X169418000Y-87757000D02*
X169218000Y-87757000D01*
X170198000Y-88537000D02*
X169418000Y-87757000D01*
X163730159Y-95696414D02*
X163764586Y-95696414D01*
X161864990Y-97561583D02*
X163730159Y-95696414D01*
X163764586Y-95696414D02*
X165354000Y-94107000D01*
X167912000Y-94107000D02*
X170198000Y-91821000D01*
X165354000Y-94107000D02*
X167912000Y-94107000D01*
%TO.N,Net-(D1-Pad2)*%
X131826000Y-88773000D02*
X133858000Y-88773000D01*
D26*
%TO.N,Net-(D2-Pad2)*%
X118618000Y-95631000D02*
X120650000Y-95631000D01*
D25*
%TO.N,Net-(D3-Pad2)*%
X131826000Y-86487000D02*
X133840000Y-86487000D01*
%TO.N,Net-(D3-Pad1)*%
X133899000Y-94063000D02*
X133899000Y-92988000D01*
X133899000Y-92988000D02*
X134747000Y-92140000D01*
X134747000Y-92140000D02*
X134747000Y-87630000D01*
X134747000Y-87630000D02*
X135890000Y-86487000D01*
%TO.N,Net-(D4-Pad2)*%
X131844000Y-84201000D02*
X133840000Y-84201000D01*
%TO.N,Net-(D4-Pad1)*%
X136692010Y-87134586D02*
X136692010Y-85003010D01*
X136412586Y-87414010D02*
X136692010Y-87134586D01*
X135425450Y-87414010D02*
X136412586Y-87414010D01*
X136692010Y-85003010D02*
X135890000Y-84201000D01*
X134549000Y-94063000D02*
X134549000Y-92800460D01*
X135074010Y-87765450D02*
X135425450Y-87414010D01*
X135074010Y-92275451D02*
X135074010Y-87765450D01*
X134549000Y-92800460D02*
X135074010Y-92275451D01*
%TO.N,Net-(D5-Pad2)*%
X131844000Y-81915000D02*
X133840000Y-81915000D01*
%TO.N,Net-(D6-Pad1)*%
X143256000Y-81915000D02*
X143256000Y-84201000D01*
%TO.N,Net-(J1-PadA5)*%
X119342000Y-87015000D02*
X121394000Y-84963000D01*
X117583000Y-87015000D02*
X119342000Y-87015000D01*
%TO.N,Net-(J1-PadA7)*%
X118535001Y-87542001D02*
X118508000Y-87515000D01*
X118535001Y-88487999D02*
X118535001Y-87542001D01*
X118508000Y-88515000D02*
X118535001Y-88487999D01*
X118508000Y-87515000D02*
X117583000Y-87515000D01*
X117583000Y-88515000D02*
X118508000Y-88515000D01*
X119099000Y-87515000D02*
X119126000Y-87542000D01*
X118508000Y-87515000D02*
X119099000Y-87515000D01*
X137956000Y-95631000D02*
X137541000Y-95631000D01*
X138449000Y-95138000D02*
X137956000Y-95631000D01*
X138449000Y-94063000D02*
X138449000Y-95138000D01*
%TO.N,Net-(J1-PadA6)*%
X116630999Y-88042001D02*
X116658000Y-88015000D01*
X116630999Y-88988000D02*
X116630999Y-88042001D01*
X116657999Y-89015000D02*
X116630999Y-88988000D01*
X116658000Y-88015000D02*
X117583000Y-88015000D01*
X117583000Y-89015000D02*
X116657999Y-89015000D01*
X139192000Y-93970000D02*
X139099000Y-94063000D01*
X139099000Y-95462999D02*
X138303000Y-96258999D01*
X139099000Y-94063000D02*
X139099000Y-95462999D01*
X118630000Y-89015000D02*
X117583000Y-89015000D01*
X119126000Y-88519000D02*
X118630000Y-89015000D01*
%TO.N,Net-(J1-PadB5)*%
X121274000Y-87249000D02*
X121394000Y-87249000D01*
X118508000Y-90015000D02*
X121274000Y-87249000D01*
X117583000Y-90015000D02*
X118508000Y-90015000D01*
D27*
%TO.N,Net-(J2-Pad1)*%
X129540000Y-109855000D02*
X129540000Y-108077000D01*
X118896000Y-107037000D02*
X117856000Y-108077000D01*
X128500000Y-107037000D02*
X118896000Y-107037000D01*
X129540000Y-108077000D02*
X128500000Y-107037000D01*
%TO.N,Net-(J3-Pad1)*%
X129540000Y-117840760D02*
X129540000Y-115697000D01*
X129540000Y-115697000D02*
X128778000Y-114935000D01*
X124460000Y-114935000D02*
X117856000Y-121539000D01*
X128778000Y-114935000D02*
X124460000Y-114935000D01*
D25*
%TO.N,Net-(R4-Pad2)*%
X130649000Y-100188000D02*
X130649000Y-101263000D01*
X132158000Y-98679000D02*
X130649000Y-100188000D01*
X142240000Y-98679000D02*
X132158000Y-98679000D01*
%TO.N,Net-(R5-Pad2)*%
X133249000Y-101263000D02*
X133249000Y-99542000D01*
X133249000Y-99542000D02*
X133604000Y-99187000D01*
X140453000Y-99187000D02*
X142231000Y-100965000D01*
X133604000Y-99187000D02*
X140453000Y-99187000D01*
%TO.N,Net-(R9-Pad1)*%
X113368000Y-79085000D02*
X121328000Y-79085000D01*
X121328000Y-81849000D02*
X121394000Y-81915000D01*
X121328000Y-79085000D02*
X121328000Y-81849000D01*
%TD*%
M02*
