%TF.GenerationSoftware,KiCad,Pcbnew,5.1.6*%
%TF.CreationDate,2020-09-23T15:23:14+12:00*%
%TF.ProjectId,dumbuino,64756d62-7569-46e6-9f2e-6b696361645f,v01*%
%TF.SameCoordinates,Original*%
%TF.FileFunction,Soldermask,Top*%
%TF.FilePolarity,Negative*%
%FSLAX46Y46*%
G04 Gerber Fmt 4.6, Leading zero omitted, Abs format (unit mm)*
G04 Created by KiCad (PCBNEW 5.1.6) date 2020-09-23 15:23:14*
%MOMM*%
%LPD*%
G01*
G04 APERTURE LIST*
%ADD10C,0.100000*%
G04 APERTURE END LIST*
D10*
G36*
X125560713Y-121871089D02*
G01*
X125930513Y-122024265D01*
X125930515Y-122024266D01*
X126258893Y-122243681D01*
X126263325Y-122246643D01*
X126546357Y-122529675D01*
X126546359Y-122529678D01*
X126741347Y-122821497D01*
X126768735Y-122862487D01*
X126921911Y-123232287D01*
X127000000Y-123624865D01*
X127000000Y-124025135D01*
X126921911Y-124417713D01*
X126768735Y-124787513D01*
X126768734Y-124787515D01*
X126549319Y-125115893D01*
X126546357Y-125120325D01*
X126263325Y-125403357D01*
X126263322Y-125403359D01*
X125930515Y-125625734D01*
X125930514Y-125625735D01*
X125930513Y-125625735D01*
X125560713Y-125778911D01*
X125168135Y-125857000D01*
X124767865Y-125857000D01*
X124375287Y-125778911D01*
X124005487Y-125625735D01*
X124005486Y-125625735D01*
X124005485Y-125625734D01*
X123672678Y-125403359D01*
X123672675Y-125403357D01*
X123389643Y-125120325D01*
X123386681Y-125115893D01*
X123167266Y-124787515D01*
X123167265Y-124787513D01*
X123014089Y-124417713D01*
X122936000Y-124025135D01*
X122936000Y-123624865D01*
X123014089Y-123232287D01*
X123167265Y-122862487D01*
X123194654Y-122821497D01*
X123389641Y-122529678D01*
X123389643Y-122529675D01*
X123672675Y-122246643D01*
X123677107Y-122243681D01*
X124005485Y-122024266D01*
X124005487Y-122024265D01*
X124375287Y-121871089D01*
X124767865Y-121793000D01*
X125168135Y-121793000D01*
X125560713Y-121871089D01*
G37*
G36*
X144187294Y-122821496D02*
G01*
X144279200Y-122849376D01*
X144350084Y-122870878D01*
X144469317Y-122934609D01*
X144500111Y-122951069D01*
X144631612Y-123058988D01*
X144739531Y-123190488D01*
X144739533Y-123190492D01*
X144819722Y-123340515D01*
X144841224Y-123411399D01*
X144869104Y-123503305D01*
X144881600Y-123630180D01*
X144881600Y-124019819D01*
X144869104Y-124146694D01*
X144819722Y-124309484D01*
X144819720Y-124309489D01*
X144761874Y-124417711D01*
X144739531Y-124459512D01*
X144631612Y-124591012D01*
X144500112Y-124698931D01*
X144500108Y-124698933D01*
X144350085Y-124779122D01*
X144279201Y-124800624D01*
X144187295Y-124828504D01*
X144018000Y-124845178D01*
X143848706Y-124828504D01*
X143756800Y-124800624D01*
X143685916Y-124779122D01*
X143535893Y-124698933D01*
X143535889Y-124698931D01*
X143404388Y-124591012D01*
X143296469Y-124459512D01*
X143274126Y-124417711D01*
X143216278Y-124309485D01*
X143166897Y-124146697D01*
X143166896Y-124146695D01*
X143154400Y-124019820D01*
X143154400Y-123630181D01*
X143166896Y-123503306D01*
X143216278Y-123340517D01*
X143216278Y-123340516D01*
X143296467Y-123190493D01*
X143296469Y-123190489D01*
X143404388Y-123058988D01*
X143535888Y-122951069D01*
X143566682Y-122934609D01*
X143685915Y-122870878D01*
X143756799Y-122849376D01*
X143848705Y-122821496D01*
X144018000Y-122804822D01*
X144187294Y-122821496D01*
G37*
G36*
X141647294Y-122821496D02*
G01*
X141739200Y-122849376D01*
X141810084Y-122870878D01*
X141929317Y-122934609D01*
X141960111Y-122951069D01*
X142091612Y-123058988D01*
X142199531Y-123190488D01*
X142199533Y-123190492D01*
X142279722Y-123340515D01*
X142301224Y-123411399D01*
X142329104Y-123503305D01*
X142341600Y-123630180D01*
X142341600Y-124019819D01*
X142329104Y-124146694D01*
X142279722Y-124309484D01*
X142279720Y-124309489D01*
X142221874Y-124417711D01*
X142199531Y-124459512D01*
X142091612Y-124591012D01*
X141960112Y-124698931D01*
X141960108Y-124698933D01*
X141810085Y-124779122D01*
X141739201Y-124800624D01*
X141647295Y-124828504D01*
X141478000Y-124845178D01*
X141308706Y-124828504D01*
X141216800Y-124800624D01*
X141145916Y-124779122D01*
X140995893Y-124698933D01*
X140995889Y-124698931D01*
X140864388Y-124591012D01*
X140756469Y-124459512D01*
X140734126Y-124417711D01*
X140676278Y-124309485D01*
X140626897Y-124146697D01*
X140626896Y-124146695D01*
X140614400Y-124019820D01*
X140614400Y-123630181D01*
X140626896Y-123503306D01*
X140676278Y-123340517D01*
X140676278Y-123340516D01*
X140756467Y-123190493D01*
X140756469Y-123190489D01*
X140864388Y-123058988D01*
X140995888Y-122951069D01*
X141026682Y-122934609D01*
X141145915Y-122870878D01*
X141216799Y-122849376D01*
X141308705Y-122821496D01*
X141478000Y-122804822D01*
X141647294Y-122821496D01*
G37*
G36*
X146727294Y-122821496D02*
G01*
X146819200Y-122849376D01*
X146890084Y-122870878D01*
X147009317Y-122934609D01*
X147040111Y-122951069D01*
X147171612Y-123058988D01*
X147279531Y-123190488D01*
X147279533Y-123190492D01*
X147359722Y-123340515D01*
X147381224Y-123411399D01*
X147409104Y-123503305D01*
X147421600Y-123630180D01*
X147421600Y-124019819D01*
X147409104Y-124146694D01*
X147359722Y-124309484D01*
X147359720Y-124309489D01*
X147301874Y-124417711D01*
X147279531Y-124459512D01*
X147171612Y-124591012D01*
X147040112Y-124698931D01*
X147040108Y-124698933D01*
X146890085Y-124779122D01*
X146819201Y-124800624D01*
X146727295Y-124828504D01*
X146558000Y-124845178D01*
X146388706Y-124828504D01*
X146296800Y-124800624D01*
X146225916Y-124779122D01*
X146075893Y-124698933D01*
X146075889Y-124698931D01*
X145944388Y-124591012D01*
X145836469Y-124459512D01*
X145814126Y-124417711D01*
X145756278Y-124309485D01*
X145706897Y-124146697D01*
X145706896Y-124146695D01*
X145694400Y-124019820D01*
X145694400Y-123630181D01*
X145706896Y-123503306D01*
X145756278Y-123340517D01*
X145756278Y-123340516D01*
X145836467Y-123190493D01*
X145836469Y-123190489D01*
X145944388Y-123058988D01*
X146075888Y-122951069D01*
X146106682Y-122934609D01*
X146225915Y-122870878D01*
X146296799Y-122849376D01*
X146388705Y-122821496D01*
X146558000Y-122804822D01*
X146727294Y-122821496D01*
G37*
G36*
X149267294Y-122821496D02*
G01*
X149359200Y-122849376D01*
X149430084Y-122870878D01*
X149549317Y-122934609D01*
X149580111Y-122951069D01*
X149711612Y-123058988D01*
X149819531Y-123190488D01*
X149819533Y-123190492D01*
X149899722Y-123340515D01*
X149921224Y-123411399D01*
X149949104Y-123503305D01*
X149961600Y-123630180D01*
X149961600Y-124019819D01*
X149949104Y-124146694D01*
X149899722Y-124309484D01*
X149899720Y-124309489D01*
X149841874Y-124417711D01*
X149819531Y-124459512D01*
X149711612Y-124591012D01*
X149580112Y-124698931D01*
X149580108Y-124698933D01*
X149430085Y-124779122D01*
X149359201Y-124800624D01*
X149267295Y-124828504D01*
X149098000Y-124845178D01*
X148928706Y-124828504D01*
X148836800Y-124800624D01*
X148765916Y-124779122D01*
X148615893Y-124698933D01*
X148615889Y-124698931D01*
X148484388Y-124591012D01*
X148376469Y-124459512D01*
X148354126Y-124417711D01*
X148296278Y-124309485D01*
X148246897Y-124146697D01*
X148246896Y-124146695D01*
X148234400Y-124019820D01*
X148234400Y-123630181D01*
X148246896Y-123503306D01*
X148296278Y-123340517D01*
X148296278Y-123340516D01*
X148376467Y-123190493D01*
X148376469Y-123190489D01*
X148484388Y-123058988D01*
X148615888Y-122951069D01*
X148646682Y-122934609D01*
X148765915Y-122870878D01*
X148836799Y-122849376D01*
X148928705Y-122821496D01*
X149098000Y-122804822D01*
X149267294Y-122821496D01*
G37*
G36*
X151807294Y-122821496D02*
G01*
X151899200Y-122849376D01*
X151970084Y-122870878D01*
X152089317Y-122934609D01*
X152120111Y-122951069D01*
X152251612Y-123058988D01*
X152359531Y-123190488D01*
X152359533Y-123190492D01*
X152439722Y-123340515D01*
X152461224Y-123411399D01*
X152489104Y-123503305D01*
X152501600Y-123630180D01*
X152501600Y-124019819D01*
X152489104Y-124146694D01*
X152439722Y-124309484D01*
X152439720Y-124309489D01*
X152381874Y-124417711D01*
X152359531Y-124459512D01*
X152251612Y-124591012D01*
X152120112Y-124698931D01*
X152120108Y-124698933D01*
X151970085Y-124779122D01*
X151899201Y-124800624D01*
X151807295Y-124828504D01*
X151638000Y-124845178D01*
X151468706Y-124828504D01*
X151376800Y-124800624D01*
X151305916Y-124779122D01*
X151155893Y-124698933D01*
X151155889Y-124698931D01*
X151024388Y-124591012D01*
X150916469Y-124459512D01*
X150894126Y-124417711D01*
X150836278Y-124309485D01*
X150786897Y-124146697D01*
X150786896Y-124146695D01*
X150774400Y-124019820D01*
X150774400Y-123630181D01*
X150786896Y-123503306D01*
X150836278Y-123340517D01*
X150836278Y-123340516D01*
X150916467Y-123190493D01*
X150916469Y-123190489D01*
X151024388Y-123058988D01*
X151155888Y-122951069D01*
X151186682Y-122934609D01*
X151305915Y-122870878D01*
X151376799Y-122849376D01*
X151468705Y-122821496D01*
X151638000Y-122804822D01*
X151807294Y-122821496D01*
G37*
G36*
X154347294Y-122821496D02*
G01*
X154439200Y-122849376D01*
X154510084Y-122870878D01*
X154629317Y-122934609D01*
X154660111Y-122951069D01*
X154791612Y-123058988D01*
X154899531Y-123190488D01*
X154899533Y-123190492D01*
X154979722Y-123340515D01*
X155001224Y-123411399D01*
X155029104Y-123503305D01*
X155041600Y-123630180D01*
X155041600Y-124019819D01*
X155029104Y-124146694D01*
X154979722Y-124309484D01*
X154979720Y-124309489D01*
X154921874Y-124417711D01*
X154899531Y-124459512D01*
X154791612Y-124591012D01*
X154660112Y-124698931D01*
X154660108Y-124698933D01*
X154510085Y-124779122D01*
X154439201Y-124800624D01*
X154347295Y-124828504D01*
X154178000Y-124845178D01*
X154008706Y-124828504D01*
X153916800Y-124800624D01*
X153845916Y-124779122D01*
X153695893Y-124698933D01*
X153695889Y-124698931D01*
X153564388Y-124591012D01*
X153456469Y-124459512D01*
X153434126Y-124417711D01*
X153376278Y-124309485D01*
X153326897Y-124146697D01*
X153326896Y-124146695D01*
X153314400Y-124019820D01*
X153314400Y-123630181D01*
X153326896Y-123503306D01*
X153376278Y-123340517D01*
X153376278Y-123340516D01*
X153456467Y-123190493D01*
X153456469Y-123190489D01*
X153564388Y-123058988D01*
X153695888Y-122951069D01*
X153726682Y-122934609D01*
X153845915Y-122870878D01*
X153916799Y-122849376D01*
X154008705Y-122821496D01*
X154178000Y-122804822D01*
X154347294Y-122821496D01*
G37*
G36*
X139107294Y-122821496D02*
G01*
X139199200Y-122849376D01*
X139270084Y-122870878D01*
X139389317Y-122934609D01*
X139420111Y-122951069D01*
X139551612Y-123058988D01*
X139659531Y-123190488D01*
X139659533Y-123190492D01*
X139739722Y-123340515D01*
X139761224Y-123411399D01*
X139789104Y-123503305D01*
X139801600Y-123630180D01*
X139801600Y-124019819D01*
X139789104Y-124146694D01*
X139739722Y-124309484D01*
X139739720Y-124309489D01*
X139681874Y-124417711D01*
X139659531Y-124459512D01*
X139551612Y-124591012D01*
X139420112Y-124698931D01*
X139420108Y-124698933D01*
X139270085Y-124779122D01*
X139199201Y-124800624D01*
X139107295Y-124828504D01*
X138938000Y-124845178D01*
X138768706Y-124828504D01*
X138676800Y-124800624D01*
X138605916Y-124779122D01*
X138455893Y-124698933D01*
X138455889Y-124698931D01*
X138324388Y-124591012D01*
X138216469Y-124459512D01*
X138194126Y-124417711D01*
X138136278Y-124309485D01*
X138086897Y-124146697D01*
X138086896Y-124146695D01*
X138074400Y-124019820D01*
X138074400Y-123630181D01*
X138086896Y-123503306D01*
X138136278Y-123340517D01*
X138136278Y-123340516D01*
X138216467Y-123190493D01*
X138216469Y-123190489D01*
X138324388Y-123058988D01*
X138455888Y-122951069D01*
X138486682Y-122934609D01*
X138605915Y-122870878D01*
X138676799Y-122849376D01*
X138768705Y-122821496D01*
X138938000Y-122804822D01*
X139107294Y-122821496D01*
G37*
G36*
X164507294Y-122821496D02*
G01*
X164599200Y-122849376D01*
X164670084Y-122870878D01*
X164789317Y-122934609D01*
X164820111Y-122951069D01*
X164951612Y-123058988D01*
X165059531Y-123190488D01*
X165059533Y-123190492D01*
X165139722Y-123340515D01*
X165161224Y-123411399D01*
X165189104Y-123503305D01*
X165201600Y-123630180D01*
X165201600Y-124019819D01*
X165189104Y-124146694D01*
X165139722Y-124309484D01*
X165139720Y-124309489D01*
X165081874Y-124417711D01*
X165059531Y-124459512D01*
X164951612Y-124591012D01*
X164820112Y-124698931D01*
X164820108Y-124698933D01*
X164670085Y-124779122D01*
X164599201Y-124800624D01*
X164507295Y-124828504D01*
X164338000Y-124845178D01*
X164168706Y-124828504D01*
X164076800Y-124800624D01*
X164005916Y-124779122D01*
X163855893Y-124698933D01*
X163855889Y-124698931D01*
X163724388Y-124591012D01*
X163616469Y-124459512D01*
X163594126Y-124417711D01*
X163536278Y-124309485D01*
X163486897Y-124146697D01*
X163486896Y-124146695D01*
X163474400Y-124019820D01*
X163474400Y-123630181D01*
X163486896Y-123503306D01*
X163536278Y-123340517D01*
X163536278Y-123340516D01*
X163616467Y-123190493D01*
X163616469Y-123190489D01*
X163724388Y-123058988D01*
X163855888Y-122951069D01*
X163886682Y-122934609D01*
X164005915Y-122870878D01*
X164076799Y-122849376D01*
X164168705Y-122821496D01*
X164338000Y-122804822D01*
X164507294Y-122821496D01*
G37*
G36*
X156887294Y-122821496D02*
G01*
X156979200Y-122849376D01*
X157050084Y-122870878D01*
X157169317Y-122934609D01*
X157200111Y-122951069D01*
X157331612Y-123058988D01*
X157439531Y-123190488D01*
X157439533Y-123190492D01*
X157519722Y-123340515D01*
X157541224Y-123411399D01*
X157569104Y-123503305D01*
X157581600Y-123630180D01*
X157581600Y-124019819D01*
X157569104Y-124146694D01*
X157519722Y-124309484D01*
X157519720Y-124309489D01*
X157461874Y-124417711D01*
X157439531Y-124459512D01*
X157331612Y-124591012D01*
X157200112Y-124698931D01*
X157200108Y-124698933D01*
X157050085Y-124779122D01*
X156979201Y-124800624D01*
X156887295Y-124828504D01*
X156718000Y-124845178D01*
X156548706Y-124828504D01*
X156456800Y-124800624D01*
X156385916Y-124779122D01*
X156235893Y-124698933D01*
X156235889Y-124698931D01*
X156104388Y-124591012D01*
X155996469Y-124459512D01*
X155974126Y-124417711D01*
X155916278Y-124309485D01*
X155866897Y-124146697D01*
X155866896Y-124146695D01*
X155854400Y-124019820D01*
X155854400Y-123630181D01*
X155866896Y-123503306D01*
X155916278Y-123340517D01*
X155916278Y-123340516D01*
X155996467Y-123190493D01*
X155996469Y-123190489D01*
X156104388Y-123058988D01*
X156235888Y-122951069D01*
X156266682Y-122934609D01*
X156385915Y-122870878D01*
X156456799Y-122849376D01*
X156548705Y-122821496D01*
X156718000Y-122804822D01*
X156887294Y-122821496D01*
G37*
G36*
X174667294Y-122821496D02*
G01*
X174759200Y-122849376D01*
X174830084Y-122870878D01*
X174949317Y-122934609D01*
X174980111Y-122951069D01*
X175111612Y-123058988D01*
X175219531Y-123190488D01*
X175219533Y-123190492D01*
X175299722Y-123340515D01*
X175321224Y-123411399D01*
X175349104Y-123503305D01*
X175361600Y-123630180D01*
X175361600Y-124019819D01*
X175349104Y-124146694D01*
X175299722Y-124309484D01*
X175299720Y-124309489D01*
X175241874Y-124417711D01*
X175219531Y-124459512D01*
X175111612Y-124591012D01*
X174980112Y-124698931D01*
X174980108Y-124698933D01*
X174830085Y-124779122D01*
X174759201Y-124800624D01*
X174667295Y-124828504D01*
X174498000Y-124845178D01*
X174328706Y-124828504D01*
X174236800Y-124800624D01*
X174165916Y-124779122D01*
X174015893Y-124698933D01*
X174015889Y-124698931D01*
X173884388Y-124591012D01*
X173776469Y-124459512D01*
X173754126Y-124417711D01*
X173696278Y-124309485D01*
X173646897Y-124146697D01*
X173646896Y-124146695D01*
X173634400Y-124019820D01*
X173634400Y-123630181D01*
X173646896Y-123503306D01*
X173696278Y-123340517D01*
X173696278Y-123340516D01*
X173776467Y-123190493D01*
X173776469Y-123190489D01*
X173884388Y-123058988D01*
X174015888Y-122951069D01*
X174046682Y-122934609D01*
X174165915Y-122870878D01*
X174236799Y-122849376D01*
X174328705Y-122821496D01*
X174498000Y-122804822D01*
X174667294Y-122821496D01*
G37*
G36*
X172127294Y-122821496D02*
G01*
X172219200Y-122849376D01*
X172290084Y-122870878D01*
X172409317Y-122934609D01*
X172440111Y-122951069D01*
X172571612Y-123058988D01*
X172679531Y-123190488D01*
X172679533Y-123190492D01*
X172759722Y-123340515D01*
X172781224Y-123411399D01*
X172809104Y-123503305D01*
X172821600Y-123630180D01*
X172821600Y-124019819D01*
X172809104Y-124146694D01*
X172759722Y-124309484D01*
X172759720Y-124309489D01*
X172701874Y-124417711D01*
X172679531Y-124459512D01*
X172571612Y-124591012D01*
X172440112Y-124698931D01*
X172440108Y-124698933D01*
X172290085Y-124779122D01*
X172219201Y-124800624D01*
X172127295Y-124828504D01*
X171958000Y-124845178D01*
X171788706Y-124828504D01*
X171696800Y-124800624D01*
X171625916Y-124779122D01*
X171475893Y-124698933D01*
X171475889Y-124698931D01*
X171344388Y-124591012D01*
X171236469Y-124459512D01*
X171214126Y-124417711D01*
X171156278Y-124309485D01*
X171106897Y-124146697D01*
X171106896Y-124146695D01*
X171094400Y-124019820D01*
X171094400Y-123630181D01*
X171106896Y-123503306D01*
X171156278Y-123340517D01*
X171156278Y-123340516D01*
X171236467Y-123190493D01*
X171236469Y-123190489D01*
X171344388Y-123058988D01*
X171475888Y-122951069D01*
X171506682Y-122934609D01*
X171625915Y-122870878D01*
X171696799Y-122849376D01*
X171788705Y-122821496D01*
X171958000Y-122804822D01*
X172127294Y-122821496D01*
G37*
G36*
X169587294Y-122821496D02*
G01*
X169679200Y-122849376D01*
X169750084Y-122870878D01*
X169869317Y-122934609D01*
X169900111Y-122951069D01*
X170031612Y-123058988D01*
X170139531Y-123190488D01*
X170139533Y-123190492D01*
X170219722Y-123340515D01*
X170241224Y-123411399D01*
X170269104Y-123503305D01*
X170281600Y-123630180D01*
X170281600Y-124019819D01*
X170269104Y-124146694D01*
X170219722Y-124309484D01*
X170219720Y-124309489D01*
X170161874Y-124417711D01*
X170139531Y-124459512D01*
X170031612Y-124591012D01*
X169900112Y-124698931D01*
X169900108Y-124698933D01*
X169750085Y-124779122D01*
X169679201Y-124800624D01*
X169587295Y-124828504D01*
X169418000Y-124845178D01*
X169248706Y-124828504D01*
X169156800Y-124800624D01*
X169085916Y-124779122D01*
X168935893Y-124698933D01*
X168935889Y-124698931D01*
X168804388Y-124591012D01*
X168696469Y-124459512D01*
X168674126Y-124417711D01*
X168616278Y-124309485D01*
X168566897Y-124146697D01*
X168566896Y-124146695D01*
X168554400Y-124019820D01*
X168554400Y-123630181D01*
X168566896Y-123503306D01*
X168616278Y-123340517D01*
X168616278Y-123340516D01*
X168696467Y-123190493D01*
X168696469Y-123190489D01*
X168804388Y-123058988D01*
X168935888Y-122951069D01*
X168966682Y-122934609D01*
X169085915Y-122870878D01*
X169156799Y-122849376D01*
X169248705Y-122821496D01*
X169418000Y-122804822D01*
X169587294Y-122821496D01*
G37*
G36*
X167047294Y-122821496D02*
G01*
X167139200Y-122849376D01*
X167210084Y-122870878D01*
X167329317Y-122934609D01*
X167360111Y-122951069D01*
X167491612Y-123058988D01*
X167599531Y-123190488D01*
X167599533Y-123190492D01*
X167679722Y-123340515D01*
X167701224Y-123411399D01*
X167729104Y-123503305D01*
X167741600Y-123630180D01*
X167741600Y-124019819D01*
X167729104Y-124146694D01*
X167679722Y-124309484D01*
X167679720Y-124309489D01*
X167621874Y-124417711D01*
X167599531Y-124459512D01*
X167491612Y-124591012D01*
X167360112Y-124698931D01*
X167360108Y-124698933D01*
X167210085Y-124779122D01*
X167139201Y-124800624D01*
X167047295Y-124828504D01*
X166878000Y-124845178D01*
X166708706Y-124828504D01*
X166616800Y-124800624D01*
X166545916Y-124779122D01*
X166395893Y-124698933D01*
X166395889Y-124698931D01*
X166264388Y-124591012D01*
X166156469Y-124459512D01*
X166134126Y-124417711D01*
X166076278Y-124309485D01*
X166026897Y-124146697D01*
X166026896Y-124146695D01*
X166014400Y-124019820D01*
X166014400Y-123630181D01*
X166026896Y-123503306D01*
X166076278Y-123340517D01*
X166076278Y-123340516D01*
X166156467Y-123190493D01*
X166156469Y-123190489D01*
X166264388Y-123058988D01*
X166395888Y-122951069D01*
X166426682Y-122934609D01*
X166545915Y-122870878D01*
X166616799Y-122849376D01*
X166708705Y-122821496D01*
X166878000Y-122804822D01*
X167047294Y-122821496D01*
G37*
G36*
X161967294Y-122821496D02*
G01*
X162059200Y-122849376D01*
X162130084Y-122870878D01*
X162249317Y-122934609D01*
X162280111Y-122951069D01*
X162411612Y-123058988D01*
X162519531Y-123190488D01*
X162519533Y-123190492D01*
X162599722Y-123340515D01*
X162621224Y-123411399D01*
X162649104Y-123503305D01*
X162661600Y-123630180D01*
X162661600Y-124019819D01*
X162649104Y-124146694D01*
X162599722Y-124309484D01*
X162599720Y-124309489D01*
X162541874Y-124417711D01*
X162519531Y-124459512D01*
X162411612Y-124591012D01*
X162280112Y-124698931D01*
X162280108Y-124698933D01*
X162130085Y-124779122D01*
X162059201Y-124800624D01*
X161967295Y-124828504D01*
X161798000Y-124845178D01*
X161628706Y-124828504D01*
X161536800Y-124800624D01*
X161465916Y-124779122D01*
X161315893Y-124698933D01*
X161315889Y-124698931D01*
X161184388Y-124591012D01*
X161076469Y-124459512D01*
X161054126Y-124417711D01*
X160996278Y-124309485D01*
X160946897Y-124146697D01*
X160946896Y-124146695D01*
X160934400Y-124019820D01*
X160934400Y-123630181D01*
X160946896Y-123503306D01*
X160996278Y-123340517D01*
X160996278Y-123340516D01*
X161076467Y-123190493D01*
X161076469Y-123190489D01*
X161184388Y-123058988D01*
X161315888Y-122951069D01*
X161346682Y-122934609D01*
X161465915Y-122870878D01*
X161536799Y-122849376D01*
X161628705Y-122821496D01*
X161798000Y-122804822D01*
X161967294Y-122821496D01*
G37*
G36*
X119491398Y-120503212D02*
G01*
X119529701Y-120514831D01*
X119564985Y-120533691D01*
X119595921Y-120559079D01*
X119621309Y-120590015D01*
X119640169Y-120625299D01*
X119651788Y-120663602D01*
X119656000Y-120706370D01*
X119656000Y-122371630D01*
X119651788Y-122414398D01*
X119640169Y-122452701D01*
X119621309Y-122487985D01*
X119595921Y-122518921D01*
X119564985Y-122544309D01*
X119529701Y-122563169D01*
X119491398Y-122574788D01*
X119448630Y-122579000D01*
X116263370Y-122579000D01*
X116220602Y-122574788D01*
X116182299Y-122563169D01*
X116147015Y-122544309D01*
X116116079Y-122518921D01*
X116090691Y-122487985D01*
X116071831Y-122452701D01*
X116060212Y-122414398D01*
X116056000Y-122371630D01*
X116056000Y-120706370D01*
X116060212Y-120663602D01*
X116071831Y-120625299D01*
X116090691Y-120590015D01*
X116116079Y-120559079D01*
X116147015Y-120533691D01*
X116182299Y-120514831D01*
X116220602Y-120503212D01*
X116263370Y-120499000D01*
X119448630Y-120499000D01*
X119491398Y-120503212D01*
G37*
G36*
X177630713Y-116791089D02*
G01*
X178000513Y-116944265D01*
X178000515Y-116944266D01*
X178258254Y-117116482D01*
X178333325Y-117166643D01*
X178616357Y-117449675D01*
X178616359Y-117449678D01*
X178814674Y-117746476D01*
X178838735Y-117782487D01*
X178991911Y-118152287D01*
X179070000Y-118544865D01*
X179070000Y-118945135D01*
X178991911Y-119337713D01*
X178838735Y-119707513D01*
X178616357Y-120040325D01*
X178333325Y-120323357D01*
X178333322Y-120323359D01*
X178000515Y-120545734D01*
X178000514Y-120545735D01*
X178000513Y-120545735D01*
X177630713Y-120698911D01*
X177238135Y-120777000D01*
X176837865Y-120777000D01*
X176445287Y-120698911D01*
X176075487Y-120545735D01*
X176075486Y-120545735D01*
X176075485Y-120545734D01*
X175742678Y-120323359D01*
X175742675Y-120323357D01*
X175459643Y-120040325D01*
X175237265Y-119707513D01*
X175084089Y-119337713D01*
X175006000Y-118945135D01*
X175006000Y-118544865D01*
X175084089Y-118152287D01*
X175237265Y-117782487D01*
X175261327Y-117746476D01*
X175459641Y-117449678D01*
X175459643Y-117449675D01*
X175742675Y-117166643D01*
X175817746Y-117116482D01*
X176075485Y-116944266D01*
X176075487Y-116944265D01*
X176445287Y-116791089D01*
X176837865Y-116713000D01*
X177238135Y-116713000D01*
X177630713Y-116791089D01*
G37*
G36*
X129726725Y-116854542D02*
G01*
X129906270Y-116909007D01*
X130071738Y-116997451D01*
X130216778Y-117116482D01*
X130335806Y-117261518D01*
X130424254Y-117426995D01*
X130478718Y-117606536D01*
X130492500Y-117746467D01*
X130492500Y-117935054D01*
X130478718Y-118074985D01*
X130424253Y-118254530D01*
X130335809Y-118419998D01*
X130216778Y-118565038D01*
X130071742Y-118684066D01*
X129906265Y-118772514D01*
X129726724Y-118826978D01*
X129540000Y-118845369D01*
X129353275Y-118826978D01*
X129173730Y-118772513D01*
X129008262Y-118684069D01*
X128863222Y-118565038D01*
X128744194Y-118420002D01*
X128655746Y-118254525D01*
X128601282Y-118074984D01*
X128587500Y-117935053D01*
X128587500Y-117746466D01*
X128601282Y-117606535D01*
X128655747Y-117426990D01*
X128744191Y-117261522D01*
X128863222Y-117116482D01*
X129008258Y-116997454D01*
X129173735Y-116909006D01*
X129353276Y-116854542D01*
X129540000Y-116836151D01*
X129726725Y-116854542D01*
G37*
G36*
X127186725Y-116854542D02*
G01*
X127366270Y-116909007D01*
X127531738Y-116997451D01*
X127676778Y-117116482D01*
X127795806Y-117261518D01*
X127884254Y-117426995D01*
X127938718Y-117606536D01*
X127952500Y-117746467D01*
X127952500Y-117935054D01*
X127938718Y-118074985D01*
X127884253Y-118254530D01*
X127795809Y-118419998D01*
X127676778Y-118565038D01*
X127531742Y-118684066D01*
X127366265Y-118772514D01*
X127186724Y-118826978D01*
X127000000Y-118845369D01*
X126813275Y-118826978D01*
X126633730Y-118772513D01*
X126468262Y-118684069D01*
X126323222Y-118565038D01*
X126204194Y-118420002D01*
X126115746Y-118254525D01*
X126061282Y-118074984D01*
X126047500Y-117935053D01*
X126047500Y-117746466D01*
X126061282Y-117606535D01*
X126115747Y-117426990D01*
X126204191Y-117261522D01*
X126323222Y-117116482D01*
X126468258Y-116997454D01*
X126633735Y-116909006D01*
X126813276Y-116854542D01*
X127000000Y-116836151D01*
X127186725Y-116854542D01*
G37*
G36*
X133032500Y-118840760D02*
G01*
X131127500Y-118840760D01*
X131127500Y-116840760D01*
X133032500Y-116840760D01*
X133032500Y-118840760D01*
G37*
G36*
X118768948Y-115429032D02*
G01*
X118819877Y-115434048D01*
X118879345Y-115452088D01*
X119015916Y-115493516D01*
X119113486Y-115545668D01*
X119196586Y-115590086D01*
X119196587Y-115590087D01*
X119196589Y-115590088D01*
X119354949Y-115720051D01*
X119484912Y-115878411D01*
X119581484Y-116059084D01*
X119640952Y-116255124D01*
X119661032Y-116459000D01*
X119640952Y-116662876D01*
X119581484Y-116858916D01*
X119484912Y-117039589D01*
X119354949Y-117197949D01*
X119196589Y-117327912D01*
X119196587Y-117327913D01*
X119196586Y-117327914D01*
X119113486Y-117372332D01*
X119015916Y-117424484D01*
X118879345Y-117465912D01*
X118819877Y-117483952D01*
X118768948Y-117488968D01*
X118667091Y-117499000D01*
X117044909Y-117499000D01*
X116943052Y-117488968D01*
X116892123Y-117483952D01*
X116832655Y-117465912D01*
X116696084Y-117424484D01*
X116598514Y-117372332D01*
X116515414Y-117327914D01*
X116515413Y-117327913D01*
X116515411Y-117327912D01*
X116357051Y-117197949D01*
X116227088Y-117039589D01*
X116130516Y-116858916D01*
X116071048Y-116662876D01*
X116050968Y-116459000D01*
X116071048Y-116255124D01*
X116130516Y-116059084D01*
X116227088Y-115878411D01*
X116357051Y-115720051D01*
X116515411Y-115590088D01*
X116515413Y-115590087D01*
X116515414Y-115590086D01*
X116598514Y-115545668D01*
X116696084Y-115493516D01*
X116832655Y-115452088D01*
X116892123Y-115434048D01*
X116943052Y-115429032D01*
X117044909Y-115419000D01*
X118667091Y-115419000D01*
X118768948Y-115429032D01*
G37*
G36*
X129726725Y-108868782D02*
G01*
X129906270Y-108923247D01*
X130071738Y-109011691D01*
X130216778Y-109130722D01*
X130335806Y-109275758D01*
X130424254Y-109441235D01*
X130478718Y-109620776D01*
X130492500Y-109760707D01*
X130492500Y-109949294D01*
X130478718Y-110089225D01*
X130424253Y-110268770D01*
X130335809Y-110434238D01*
X130216778Y-110579278D01*
X130071742Y-110698306D01*
X129906265Y-110786754D01*
X129726724Y-110841218D01*
X129540000Y-110859609D01*
X129353275Y-110841218D01*
X129173730Y-110786753D01*
X129008262Y-110698309D01*
X128863222Y-110579278D01*
X128744194Y-110434242D01*
X128655746Y-110268765D01*
X128601282Y-110089224D01*
X128587500Y-109949293D01*
X128587500Y-109760706D01*
X128601282Y-109620775D01*
X128655747Y-109441230D01*
X128744191Y-109275762D01*
X128863222Y-109130722D01*
X129008258Y-109011694D01*
X129173735Y-108923246D01*
X129353276Y-108868782D01*
X129540000Y-108850391D01*
X129726725Y-108868782D01*
G37*
G36*
X127186725Y-108868782D02*
G01*
X127366270Y-108923247D01*
X127531738Y-109011691D01*
X127676778Y-109130722D01*
X127795806Y-109275758D01*
X127884254Y-109441235D01*
X127938718Y-109620776D01*
X127952500Y-109760707D01*
X127952500Y-109949294D01*
X127938718Y-110089225D01*
X127884253Y-110268770D01*
X127795809Y-110434238D01*
X127676778Y-110579278D01*
X127531742Y-110698306D01*
X127366265Y-110786754D01*
X127186724Y-110841218D01*
X127000000Y-110859609D01*
X126813275Y-110841218D01*
X126633730Y-110786753D01*
X126468262Y-110698309D01*
X126323222Y-110579278D01*
X126204194Y-110434242D01*
X126115746Y-110268765D01*
X126061282Y-110089224D01*
X126047500Y-109949293D01*
X126047500Y-109760706D01*
X126061282Y-109620775D01*
X126115747Y-109441230D01*
X126204191Y-109275762D01*
X126323222Y-109130722D01*
X126468258Y-109011694D01*
X126633735Y-108923246D01*
X126813276Y-108868782D01*
X127000000Y-108850391D01*
X127186725Y-108868782D01*
G37*
G36*
X133032500Y-110855000D02*
G01*
X131127500Y-110855000D01*
X131127500Y-108855000D01*
X133032500Y-108855000D01*
X133032500Y-110855000D01*
G37*
G36*
X119491398Y-107041212D02*
G01*
X119529701Y-107052831D01*
X119564985Y-107071691D01*
X119595921Y-107097079D01*
X119621309Y-107128015D01*
X119640169Y-107163299D01*
X119651788Y-107201602D01*
X119656000Y-107244370D01*
X119656000Y-108909630D01*
X119651788Y-108952398D01*
X119640169Y-108990701D01*
X119621309Y-109025985D01*
X119595921Y-109056921D01*
X119564985Y-109082309D01*
X119529701Y-109101169D01*
X119491398Y-109112788D01*
X119448630Y-109117000D01*
X116263370Y-109117000D01*
X116220602Y-109112788D01*
X116182299Y-109101169D01*
X116147015Y-109082309D01*
X116116079Y-109056921D01*
X116090691Y-109025985D01*
X116071831Y-108990701D01*
X116060212Y-108952398D01*
X116056000Y-108909630D01*
X116056000Y-107244370D01*
X116060212Y-107201602D01*
X116071831Y-107163299D01*
X116090691Y-107128015D01*
X116116079Y-107097079D01*
X116147015Y-107071691D01*
X116182299Y-107052831D01*
X116220602Y-107041212D01*
X116263370Y-107037000D01*
X119448630Y-107037000D01*
X119491398Y-107041212D01*
G37*
G36*
X160008835Y-106594872D02*
G01*
X158877464Y-107726243D01*
X158488555Y-107337334D01*
X159619926Y-106205963D01*
X160008835Y-106594872D01*
G37*
G36*
X162059445Y-107337334D02*
G01*
X161670536Y-107726243D01*
X160539165Y-106594872D01*
X160928074Y-106205963D01*
X162059445Y-107337334D01*
G37*
G36*
X162625130Y-106771648D02*
G01*
X162236221Y-107160557D01*
X161104850Y-106029186D01*
X161493759Y-105640277D01*
X162625130Y-106771648D01*
G37*
G36*
X159443150Y-106029186D02*
G01*
X158311779Y-107160557D01*
X157922870Y-106771648D01*
X159054241Y-105640277D01*
X159443150Y-106029186D01*
G37*
G36*
X163190816Y-106205963D02*
G01*
X162801907Y-106594872D01*
X161670536Y-105463501D01*
X162059445Y-105074592D01*
X163190816Y-106205963D01*
G37*
G36*
X158877464Y-105463501D02*
G01*
X157746093Y-106594872D01*
X157357184Y-106205963D01*
X158488555Y-105074592D01*
X158877464Y-105463501D01*
G37*
G36*
X163756501Y-105640278D02*
G01*
X163367592Y-106029187D01*
X162236221Y-104897816D01*
X162625130Y-104508907D01*
X163756501Y-105640278D01*
G37*
G36*
X158311779Y-104897816D02*
G01*
X157180408Y-106029187D01*
X156791499Y-105640278D01*
X157922870Y-104508907D01*
X158311779Y-104897816D01*
G37*
G36*
X164322187Y-105074592D02*
G01*
X163933278Y-105463501D01*
X162801907Y-104332130D01*
X163190816Y-103943221D01*
X164322187Y-105074592D01*
G37*
G36*
X157746093Y-104332130D02*
G01*
X156614722Y-105463501D01*
X156225813Y-105074592D01*
X157357184Y-103943221D01*
X157746093Y-104332130D01*
G37*
G36*
X164887872Y-104508907D02*
G01*
X164498963Y-104897816D01*
X163367592Y-103766445D01*
X163756501Y-103377536D01*
X164887872Y-104508907D01*
G37*
G36*
X157180408Y-103766445D02*
G01*
X156049037Y-104897816D01*
X155660128Y-104508907D01*
X156791499Y-103377536D01*
X157180408Y-103766445D01*
G37*
G36*
X132989015Y-103063437D02*
G01*
X133029494Y-103075716D01*
X133066802Y-103095658D01*
X133099504Y-103122496D01*
X133126342Y-103155198D01*
X133146284Y-103192506D01*
X133158563Y-103232985D01*
X133163000Y-103278034D01*
X133163000Y-104239966D01*
X133158563Y-104285015D01*
X133146284Y-104325494D01*
X133126342Y-104362802D01*
X133099504Y-104395504D01*
X133066802Y-104422342D01*
X133029494Y-104442284D01*
X132989015Y-104454563D01*
X132943966Y-104459000D01*
X132232034Y-104459000D01*
X132186985Y-104454563D01*
X132146506Y-104442284D01*
X132109198Y-104422342D01*
X132076496Y-104395504D01*
X132049658Y-104362802D01*
X132029716Y-104325494D01*
X132017437Y-104285015D01*
X132013000Y-104239966D01*
X132013000Y-103278034D01*
X132017437Y-103232985D01*
X132029716Y-103192506D01*
X132049658Y-103155198D01*
X132076496Y-103122496D01*
X132109198Y-103095658D01*
X132146506Y-103075716D01*
X132186985Y-103063437D01*
X132232034Y-103059000D01*
X132943966Y-103059000D01*
X132989015Y-103063437D01*
G37*
G36*
X135039015Y-103063437D02*
G01*
X135079494Y-103075716D01*
X135116802Y-103095658D01*
X135149504Y-103122496D01*
X135176342Y-103155198D01*
X135196284Y-103192506D01*
X135208563Y-103232985D01*
X135213000Y-103278034D01*
X135213000Y-104239966D01*
X135208563Y-104285015D01*
X135196284Y-104325494D01*
X135176342Y-104362802D01*
X135149504Y-104395504D01*
X135116802Y-104422342D01*
X135079494Y-104442284D01*
X135039015Y-104454563D01*
X134993966Y-104459000D01*
X134282034Y-104459000D01*
X134236985Y-104454563D01*
X134196506Y-104442284D01*
X134159198Y-104422342D01*
X134126496Y-104395504D01*
X134099658Y-104362802D01*
X134079716Y-104325494D01*
X134067437Y-104285015D01*
X134063000Y-104239966D01*
X134063000Y-103278034D01*
X134067437Y-103232985D01*
X134079716Y-103192506D01*
X134099658Y-103155198D01*
X134126496Y-103122496D01*
X134159198Y-103095658D01*
X134196506Y-103075716D01*
X134236985Y-103063437D01*
X134282034Y-103059000D01*
X134993966Y-103059000D01*
X135039015Y-103063437D01*
G37*
G36*
X165453557Y-103943221D02*
G01*
X165064648Y-104332130D01*
X163933277Y-103200759D01*
X164322186Y-102811850D01*
X165453557Y-103943221D01*
G37*
G36*
X156614723Y-103200759D02*
G01*
X155483352Y-104332130D01*
X155094443Y-103943221D01*
X156225814Y-102811850D01*
X156614723Y-103200759D01*
G37*
G36*
X118768948Y-101967032D02*
G01*
X118819877Y-101972048D01*
X118879345Y-101990088D01*
X119015916Y-102031516D01*
X119113486Y-102083668D01*
X119196586Y-102128086D01*
X119196587Y-102128087D01*
X119196589Y-102128088D01*
X119354949Y-102258051D01*
X119484912Y-102416411D01*
X119581484Y-102597084D01*
X119601208Y-102662107D01*
X119640952Y-102793123D01*
X119661032Y-102997000D01*
X119640952Y-103200877D01*
X119631212Y-103232985D01*
X119581484Y-103396916D01*
X119484912Y-103577589D01*
X119354949Y-103735949D01*
X119196589Y-103865912D01*
X119196587Y-103865913D01*
X119196586Y-103865914D01*
X119116224Y-103908868D01*
X119015916Y-103962484D01*
X118879345Y-104003912D01*
X118819877Y-104021952D01*
X118768948Y-104026968D01*
X118667091Y-104037000D01*
X117044909Y-104037000D01*
X116943052Y-104026968D01*
X116892123Y-104021952D01*
X116832655Y-104003912D01*
X116696084Y-103962484D01*
X116595776Y-103908868D01*
X116515414Y-103865914D01*
X116515413Y-103865913D01*
X116515411Y-103865912D01*
X116357051Y-103735949D01*
X116227088Y-103577589D01*
X116130516Y-103396916D01*
X116080788Y-103232985D01*
X116071048Y-103200877D01*
X116050968Y-102997000D01*
X116071048Y-102793123D01*
X116110792Y-102662107D01*
X116130516Y-102597084D01*
X116227088Y-102416411D01*
X116357051Y-102258051D01*
X116515411Y-102128088D01*
X116515413Y-102128087D01*
X116515414Y-102128086D01*
X116598514Y-102083668D01*
X116696084Y-102031516D01*
X116832655Y-101990088D01*
X116892123Y-101972048D01*
X116943052Y-101967032D01*
X117044909Y-101957000D01*
X118667091Y-101957000D01*
X118768948Y-101967032D01*
G37*
G36*
X142641015Y-102555437D02*
G01*
X142681494Y-102567716D01*
X142718802Y-102587658D01*
X142751504Y-102614496D01*
X142778342Y-102647198D01*
X142798284Y-102684506D01*
X142810563Y-102724985D01*
X142815000Y-102770034D01*
X142815000Y-103731966D01*
X142810563Y-103777015D01*
X142798284Y-103817494D01*
X142778342Y-103854802D01*
X142751504Y-103887504D01*
X142718802Y-103914342D01*
X142681494Y-103934284D01*
X142641015Y-103946563D01*
X142595966Y-103951000D01*
X141884034Y-103951000D01*
X141838985Y-103946563D01*
X141798506Y-103934284D01*
X141761198Y-103914342D01*
X141728496Y-103887504D01*
X141701658Y-103854802D01*
X141681716Y-103817494D01*
X141669437Y-103777015D01*
X141665000Y-103731966D01*
X141665000Y-102770034D01*
X141669437Y-102724985D01*
X141681716Y-102684506D01*
X141701658Y-102647198D01*
X141728496Y-102614496D01*
X141761198Y-102587658D01*
X141798506Y-102567716D01*
X141838985Y-102555437D01*
X141884034Y-102551000D01*
X142595966Y-102551000D01*
X142641015Y-102555437D01*
G37*
G36*
X144691015Y-102555437D02*
G01*
X144731494Y-102567716D01*
X144768802Y-102587658D01*
X144801504Y-102614496D01*
X144828342Y-102647198D01*
X144848284Y-102684506D01*
X144860563Y-102724985D01*
X144865000Y-102770034D01*
X144865000Y-103731966D01*
X144860563Y-103777015D01*
X144848284Y-103817494D01*
X144828342Y-103854802D01*
X144801504Y-103887504D01*
X144768802Y-103914342D01*
X144731494Y-103934284D01*
X144691015Y-103946563D01*
X144645966Y-103951000D01*
X143934034Y-103951000D01*
X143888985Y-103946563D01*
X143848506Y-103934284D01*
X143811198Y-103914342D01*
X143778496Y-103887504D01*
X143751658Y-103854802D01*
X143731716Y-103817494D01*
X143719437Y-103777015D01*
X143715000Y-103731966D01*
X143715000Y-102770034D01*
X143719437Y-102724985D01*
X143731716Y-102684506D01*
X143751658Y-102647198D01*
X143778496Y-102614496D01*
X143811198Y-102587658D01*
X143848506Y-102567716D01*
X143888985Y-102555437D01*
X143934034Y-102551000D01*
X144645966Y-102551000D01*
X144691015Y-102555437D01*
G37*
G36*
X166019243Y-103377536D02*
G01*
X165630334Y-103766445D01*
X164498963Y-102635074D01*
X164887872Y-102246165D01*
X166019243Y-103377536D01*
G37*
G36*
X156049037Y-102635074D02*
G01*
X154917666Y-103766445D01*
X154528757Y-103377536D01*
X155660128Y-102246165D01*
X156049037Y-102635074D01*
G37*
G36*
X138024000Y-102138000D02*
G01*
X137574000Y-102138000D01*
X137574000Y-100388000D01*
X138024000Y-100388000D01*
X138024000Y-102138000D01*
G37*
G36*
X135424000Y-102138000D02*
G01*
X134974000Y-102138000D01*
X134974000Y-100388000D01*
X135424000Y-100388000D01*
X135424000Y-102138000D01*
G37*
G36*
X136074000Y-102138000D02*
G01*
X135624000Y-102138000D01*
X135624000Y-100388000D01*
X136074000Y-100388000D01*
X136074000Y-102138000D01*
G37*
G36*
X136724000Y-102138000D02*
G01*
X136274000Y-102138000D01*
X136274000Y-100388000D01*
X136724000Y-100388000D01*
X136724000Y-102138000D01*
G37*
G36*
X134774000Y-102138000D02*
G01*
X134324000Y-102138000D01*
X134324000Y-100388000D01*
X134774000Y-100388000D01*
X134774000Y-102138000D01*
G37*
G36*
X130874000Y-102138000D02*
G01*
X130424000Y-102138000D01*
X130424000Y-100388000D01*
X130874000Y-100388000D01*
X130874000Y-102138000D01*
G37*
G36*
X137374000Y-102138000D02*
G01*
X136924000Y-102138000D01*
X136924000Y-100388000D01*
X137374000Y-100388000D01*
X137374000Y-102138000D01*
G37*
G36*
X132824000Y-102138000D02*
G01*
X132374000Y-102138000D01*
X132374000Y-100388000D01*
X132824000Y-100388000D01*
X132824000Y-102138000D01*
G37*
G36*
X132174000Y-102138000D02*
G01*
X131724000Y-102138000D01*
X131724000Y-100388000D01*
X132174000Y-100388000D01*
X132174000Y-102138000D01*
G37*
G36*
X131524000Y-102138000D02*
G01*
X131074000Y-102138000D01*
X131074000Y-100388000D01*
X131524000Y-100388000D01*
X131524000Y-102138000D01*
G37*
G36*
X138674000Y-102138000D02*
G01*
X138224000Y-102138000D01*
X138224000Y-100388000D01*
X138674000Y-100388000D01*
X138674000Y-102138000D01*
G37*
G36*
X134124000Y-102138000D02*
G01*
X133674000Y-102138000D01*
X133674000Y-100388000D01*
X134124000Y-100388000D01*
X134124000Y-102138000D01*
G37*
G36*
X133474000Y-102138000D02*
G01*
X133024000Y-102138000D01*
X133024000Y-100388000D01*
X133474000Y-100388000D01*
X133474000Y-102138000D01*
G37*
G36*
X139324000Y-102138000D02*
G01*
X138874000Y-102138000D01*
X138874000Y-100388000D01*
X139324000Y-100388000D01*
X139324000Y-102138000D01*
G37*
G36*
X156049037Y-101326926D02*
G01*
X155660128Y-101715835D01*
X154528757Y-100584464D01*
X154917666Y-100195555D01*
X156049037Y-101326926D01*
G37*
G36*
X166019243Y-100584464D02*
G01*
X164887872Y-101715835D01*
X164498963Y-101326926D01*
X165630334Y-100195555D01*
X166019243Y-100584464D01*
G37*
G36*
X142632015Y-100269437D02*
G01*
X142672494Y-100281716D01*
X142709802Y-100301658D01*
X142742504Y-100328496D01*
X142769342Y-100361198D01*
X142789284Y-100398506D01*
X142801563Y-100438985D01*
X142806000Y-100484034D01*
X142806000Y-101445966D01*
X142801563Y-101491015D01*
X142789284Y-101531494D01*
X142769342Y-101568802D01*
X142742504Y-101601504D01*
X142709802Y-101628342D01*
X142672494Y-101648284D01*
X142632015Y-101660563D01*
X142586966Y-101665000D01*
X141875034Y-101665000D01*
X141829985Y-101660563D01*
X141789506Y-101648284D01*
X141752198Y-101628342D01*
X141719496Y-101601504D01*
X141692658Y-101568802D01*
X141672716Y-101531494D01*
X141660437Y-101491015D01*
X141656000Y-101445966D01*
X141656000Y-100484034D01*
X141660437Y-100438985D01*
X141672716Y-100398506D01*
X141692658Y-100361198D01*
X141719496Y-100328496D01*
X141752198Y-100301658D01*
X141789506Y-100281716D01*
X141829985Y-100269437D01*
X141875034Y-100265000D01*
X142586966Y-100265000D01*
X142632015Y-100269437D01*
G37*
G36*
X144682015Y-100269437D02*
G01*
X144722494Y-100281716D01*
X144759802Y-100301658D01*
X144792504Y-100328496D01*
X144819342Y-100361198D01*
X144839284Y-100398506D01*
X144851563Y-100438985D01*
X144856000Y-100484034D01*
X144856000Y-101445966D01*
X144851563Y-101491015D01*
X144839284Y-101531494D01*
X144819342Y-101568802D01*
X144792504Y-101601504D01*
X144759802Y-101628342D01*
X144722494Y-101648284D01*
X144682015Y-101660563D01*
X144636966Y-101665000D01*
X143925034Y-101665000D01*
X143879985Y-101660563D01*
X143839506Y-101648284D01*
X143802198Y-101628342D01*
X143769496Y-101601504D01*
X143742658Y-101568802D01*
X143722716Y-101531494D01*
X143710437Y-101491015D01*
X143706000Y-101445966D01*
X143706000Y-100484034D01*
X143710437Y-100438985D01*
X143722716Y-100398506D01*
X143742658Y-100361198D01*
X143769496Y-100328496D01*
X143802198Y-100301658D01*
X143839506Y-100281716D01*
X143879985Y-100269437D01*
X143925034Y-100265000D01*
X144636966Y-100265000D01*
X144682015Y-100269437D01*
G37*
G36*
X156614723Y-100761241D02*
G01*
X156225814Y-101150150D01*
X155094443Y-100018779D01*
X155483352Y-99629870D01*
X156614723Y-100761241D01*
G37*
G36*
X165453557Y-100018779D02*
G01*
X164322186Y-101150150D01*
X163933277Y-100761241D01*
X165064648Y-99629870D01*
X165453557Y-100018779D01*
G37*
G36*
X164887872Y-99453093D02*
G01*
X163756501Y-100584464D01*
X163367592Y-100195555D01*
X164498963Y-99064184D01*
X164887872Y-99453093D01*
G37*
G36*
X157180408Y-100195555D02*
G01*
X156791499Y-100584464D01*
X155660128Y-99453093D01*
X156049037Y-99064184D01*
X157180408Y-100195555D01*
G37*
G36*
X164322187Y-98887408D02*
G01*
X163190816Y-100018779D01*
X162801907Y-99629870D01*
X163933278Y-98498499D01*
X164322187Y-98887408D01*
G37*
G36*
X157746093Y-99629870D02*
G01*
X157357184Y-100018779D01*
X156225813Y-98887408D01*
X156614722Y-98498499D01*
X157746093Y-99629870D01*
G37*
G36*
X158311779Y-99064184D02*
G01*
X157922870Y-99453093D01*
X156791499Y-98321722D01*
X157180408Y-97932813D01*
X158311779Y-99064184D01*
G37*
G36*
X163756501Y-98321722D02*
G01*
X162625130Y-99453093D01*
X162236221Y-99064184D01*
X163367592Y-97932813D01*
X163756501Y-98321722D01*
G37*
G36*
X142641015Y-97983437D02*
G01*
X142681494Y-97995716D01*
X142718802Y-98015658D01*
X142751504Y-98042496D01*
X142778342Y-98075198D01*
X142798284Y-98112506D01*
X142810563Y-98152985D01*
X142815000Y-98198034D01*
X142815000Y-99159966D01*
X142810563Y-99205015D01*
X142798284Y-99245494D01*
X142778342Y-99282802D01*
X142751504Y-99315504D01*
X142718802Y-99342342D01*
X142681494Y-99362284D01*
X142641015Y-99374563D01*
X142595966Y-99379000D01*
X141884034Y-99379000D01*
X141838985Y-99374563D01*
X141798506Y-99362284D01*
X141761198Y-99342342D01*
X141728496Y-99315504D01*
X141701658Y-99282802D01*
X141681716Y-99245494D01*
X141669437Y-99205015D01*
X141665000Y-99159966D01*
X141665000Y-98198034D01*
X141669437Y-98152985D01*
X141681716Y-98112506D01*
X141701658Y-98075198D01*
X141728496Y-98042496D01*
X141761198Y-98015658D01*
X141798506Y-97995716D01*
X141838985Y-97983437D01*
X141884034Y-97979000D01*
X142595966Y-97979000D01*
X142641015Y-97983437D01*
G37*
G36*
X144691015Y-97983437D02*
G01*
X144731494Y-97995716D01*
X144768802Y-98015658D01*
X144801504Y-98042496D01*
X144828342Y-98075198D01*
X144848284Y-98112506D01*
X144860563Y-98152985D01*
X144865000Y-98198034D01*
X144865000Y-99159966D01*
X144860563Y-99205015D01*
X144848284Y-99245494D01*
X144828342Y-99282802D01*
X144801504Y-99315504D01*
X144768802Y-99342342D01*
X144731494Y-99362284D01*
X144691015Y-99374563D01*
X144645966Y-99379000D01*
X143934034Y-99379000D01*
X143888985Y-99374563D01*
X143848506Y-99362284D01*
X143811198Y-99342342D01*
X143778496Y-99315504D01*
X143751658Y-99282802D01*
X143731716Y-99245494D01*
X143719437Y-99205015D01*
X143715000Y-99159966D01*
X143715000Y-98198034D01*
X143719437Y-98152985D01*
X143731716Y-98112506D01*
X143751658Y-98075198D01*
X143778496Y-98042496D01*
X143811198Y-98015658D01*
X143848506Y-97995716D01*
X143888985Y-97983437D01*
X143934034Y-97979000D01*
X144645966Y-97979000D01*
X144691015Y-97983437D01*
G37*
G36*
X166500490Y-97363382D02*
G01*
X166540969Y-97375661D01*
X166578277Y-97395603D01*
X166613266Y-97424318D01*
X166635158Y-97446210D01*
X166635164Y-97446215D01*
X167094785Y-97905836D01*
X167094790Y-97905842D01*
X167116682Y-97927734D01*
X167145397Y-97962723D01*
X167165339Y-98000031D01*
X167177618Y-98040510D01*
X167181765Y-98082612D01*
X167177618Y-98124714D01*
X167165339Y-98165193D01*
X167145397Y-98202501D01*
X167116682Y-98237490D01*
X167094790Y-98259382D01*
X167094785Y-98259388D01*
X166458388Y-98895785D01*
X166458382Y-98895790D01*
X166436490Y-98917682D01*
X166401501Y-98946397D01*
X166364193Y-98966339D01*
X166323714Y-98978618D01*
X166281612Y-98982765D01*
X166239510Y-98978618D01*
X166199031Y-98966339D01*
X166161723Y-98946397D01*
X166126734Y-98917682D01*
X166104842Y-98895790D01*
X166104836Y-98895785D01*
X165645215Y-98436164D01*
X165645210Y-98436158D01*
X165623318Y-98414266D01*
X165594603Y-98379277D01*
X165574661Y-98341969D01*
X165562382Y-98301490D01*
X165558235Y-98259388D01*
X165562382Y-98217286D01*
X165574661Y-98176807D01*
X165594603Y-98139499D01*
X165623318Y-98104510D01*
X165645210Y-98082618D01*
X165645215Y-98082612D01*
X166281612Y-97446215D01*
X166281618Y-97446210D01*
X166303510Y-97424318D01*
X166338499Y-97395603D01*
X166375807Y-97375661D01*
X166416286Y-97363382D01*
X166458388Y-97359235D01*
X166500490Y-97363382D01*
G37*
G36*
X158877464Y-98498499D02*
G01*
X158488555Y-98887408D01*
X157357184Y-97756037D01*
X157746093Y-97367128D01*
X158877464Y-98498499D01*
G37*
G36*
X163190816Y-97756037D02*
G01*
X162059445Y-98887408D01*
X161670536Y-98498499D01*
X162801907Y-97367128D01*
X163190816Y-97756037D01*
G37*
G36*
X162625130Y-97190352D02*
G01*
X161493759Y-98321723D01*
X161104850Y-97932814D01*
X162236221Y-96801443D01*
X162625130Y-97190352D01*
G37*
G36*
X159443150Y-97932814D02*
G01*
X159054241Y-98321723D01*
X157922870Y-97190352D01*
X158311779Y-96801443D01*
X159443150Y-97932814D01*
G37*
G36*
X160008835Y-97367128D02*
G01*
X159619926Y-97756037D01*
X158488555Y-96624666D01*
X158877464Y-96235757D01*
X160008835Y-97367128D01*
G37*
G36*
X162059445Y-96624666D02*
G01*
X160928074Y-97756037D01*
X160539165Y-97367128D01*
X161670536Y-96235757D01*
X162059445Y-96624666D01*
G37*
G36*
X165050922Y-95913814D02*
G01*
X165091401Y-95926093D01*
X165128709Y-95946035D01*
X165163698Y-95974750D01*
X165185590Y-95996642D01*
X165185596Y-95996647D01*
X165645217Y-96456268D01*
X165645222Y-96456274D01*
X165667114Y-96478166D01*
X165695829Y-96513155D01*
X165715771Y-96550463D01*
X165728050Y-96590942D01*
X165732197Y-96633044D01*
X165728050Y-96675146D01*
X165715771Y-96715625D01*
X165695829Y-96752933D01*
X165667114Y-96787922D01*
X165645222Y-96809814D01*
X165645217Y-96809820D01*
X165008820Y-97446217D01*
X165008814Y-97446222D01*
X164986922Y-97468114D01*
X164951933Y-97496829D01*
X164914625Y-97516771D01*
X164874146Y-97529050D01*
X164832044Y-97533197D01*
X164789942Y-97529050D01*
X164749463Y-97516771D01*
X164712155Y-97496829D01*
X164677166Y-97468114D01*
X164655274Y-97446222D01*
X164655268Y-97446217D01*
X164195647Y-96986596D01*
X164195642Y-96986590D01*
X164173750Y-96964698D01*
X164145035Y-96929709D01*
X164125093Y-96892401D01*
X164112814Y-96851922D01*
X164108667Y-96809820D01*
X164112814Y-96767718D01*
X164125093Y-96727239D01*
X164145035Y-96689931D01*
X164173750Y-96654942D01*
X164195642Y-96633050D01*
X164195647Y-96633044D01*
X164832044Y-95996647D01*
X164832050Y-95996642D01*
X164853942Y-95974750D01*
X164888931Y-95946035D01*
X164926239Y-95926093D01*
X164966718Y-95913814D01*
X165008820Y-95909667D01*
X165050922Y-95913814D01*
G37*
G36*
X112914015Y-94935437D02*
G01*
X112954494Y-94947716D01*
X112991802Y-94967658D01*
X113024504Y-94994496D01*
X113051342Y-95027198D01*
X113071284Y-95064506D01*
X113083563Y-95104985D01*
X113088000Y-95150034D01*
X113088000Y-96111966D01*
X113083563Y-96157015D01*
X113071284Y-96197494D01*
X113051342Y-96234802D01*
X113024504Y-96267504D01*
X112991802Y-96294342D01*
X112954494Y-96314284D01*
X112914015Y-96326563D01*
X112868966Y-96331000D01*
X112157034Y-96331000D01*
X112111985Y-96326563D01*
X112071506Y-96314284D01*
X112034198Y-96294342D01*
X112001496Y-96267504D01*
X111974658Y-96234802D01*
X111954716Y-96197494D01*
X111942437Y-96157015D01*
X111938000Y-96111966D01*
X111938000Y-95150034D01*
X111942437Y-95104985D01*
X111954716Y-95064506D01*
X111974658Y-95027198D01*
X112001496Y-94994496D01*
X112034198Y-94967658D01*
X112071506Y-94947716D01*
X112111985Y-94935437D01*
X112157034Y-94931000D01*
X112868966Y-94931000D01*
X112914015Y-94935437D01*
G37*
G36*
X114964015Y-94935437D02*
G01*
X115004494Y-94947716D01*
X115041802Y-94967658D01*
X115074504Y-94994496D01*
X115101342Y-95027198D01*
X115121284Y-95064506D01*
X115133563Y-95104985D01*
X115138000Y-95150034D01*
X115138000Y-96111966D01*
X115133563Y-96157015D01*
X115121284Y-96197494D01*
X115101342Y-96234802D01*
X115074504Y-96267504D01*
X115041802Y-96294342D01*
X115004494Y-96314284D01*
X114964015Y-96326563D01*
X114918966Y-96331000D01*
X114207034Y-96331000D01*
X114161985Y-96326563D01*
X114121506Y-96314284D01*
X114084198Y-96294342D01*
X114051496Y-96267504D01*
X114024658Y-96234802D01*
X114004716Y-96197494D01*
X113992437Y-96157015D01*
X113988000Y-96111966D01*
X113988000Y-95150034D01*
X113992437Y-95104985D01*
X114004716Y-95064506D01*
X114024658Y-95027198D01*
X114051496Y-94994496D01*
X114084198Y-94967658D01*
X114121506Y-94947716D01*
X114161985Y-94935437D01*
X114207034Y-94931000D01*
X114918966Y-94931000D01*
X114964015Y-94935437D01*
G37*
G36*
X116969015Y-94935437D02*
G01*
X117009494Y-94947716D01*
X117046802Y-94967658D01*
X117079504Y-94994496D01*
X117106342Y-95027198D01*
X117126284Y-95064506D01*
X117138563Y-95104985D01*
X117143000Y-95150034D01*
X117143000Y-96111966D01*
X117138563Y-96157015D01*
X117126284Y-96197494D01*
X117106342Y-96234802D01*
X117079504Y-96267504D01*
X117046802Y-96294342D01*
X117009494Y-96314284D01*
X116969015Y-96326563D01*
X116923966Y-96331000D01*
X116212034Y-96331000D01*
X116166985Y-96326563D01*
X116126506Y-96314284D01*
X116089198Y-96294342D01*
X116056496Y-96267504D01*
X116029658Y-96234802D01*
X116009716Y-96197494D01*
X115997437Y-96157015D01*
X115993000Y-96111966D01*
X115993000Y-95150034D01*
X115997437Y-95104985D01*
X116009716Y-95064506D01*
X116029658Y-95027198D01*
X116056496Y-94994496D01*
X116089198Y-94967658D01*
X116126506Y-94947716D01*
X116166985Y-94935437D01*
X116212034Y-94931000D01*
X116923966Y-94931000D01*
X116969015Y-94935437D01*
G37*
G36*
X119019015Y-94935437D02*
G01*
X119059494Y-94947716D01*
X119096802Y-94967658D01*
X119129504Y-94994496D01*
X119156342Y-95027198D01*
X119176284Y-95064506D01*
X119188563Y-95104985D01*
X119193000Y-95150034D01*
X119193000Y-96111966D01*
X119188563Y-96157015D01*
X119176284Y-96197494D01*
X119156342Y-96234802D01*
X119129504Y-96267504D01*
X119096802Y-96294342D01*
X119059494Y-96314284D01*
X119019015Y-96326563D01*
X118973966Y-96331000D01*
X118262034Y-96331000D01*
X118216985Y-96326563D01*
X118176506Y-96314284D01*
X118139198Y-96294342D01*
X118106496Y-96267504D01*
X118079658Y-96234802D01*
X118059716Y-96197494D01*
X118047437Y-96157015D01*
X118043000Y-96111966D01*
X118043000Y-95150034D01*
X118047437Y-95104985D01*
X118059716Y-95064506D01*
X118079658Y-95027198D01*
X118106496Y-94994496D01*
X118139198Y-94967658D01*
X118176506Y-94947716D01*
X118216985Y-94935437D01*
X118262034Y-94931000D01*
X118973966Y-94931000D01*
X119019015Y-94935437D01*
G37*
G36*
X121200000Y-96181000D02*
G01*
X120100000Y-96181000D01*
X120100000Y-95081000D01*
X121200000Y-95081000D01*
X121200000Y-96181000D01*
G37*
G36*
X124000000Y-96181000D02*
G01*
X122900000Y-96181000D01*
X122900000Y-95081000D01*
X124000000Y-95081000D01*
X124000000Y-96181000D01*
G37*
G36*
X133474000Y-94938000D02*
G01*
X133024000Y-94938000D01*
X133024000Y-93188000D01*
X133474000Y-93188000D01*
X133474000Y-94938000D01*
G37*
G36*
X134124000Y-94938000D02*
G01*
X133674000Y-94938000D01*
X133674000Y-93188000D01*
X134124000Y-93188000D01*
X134124000Y-94938000D01*
G37*
G36*
X134774000Y-94938000D02*
G01*
X134324000Y-94938000D01*
X134324000Y-93188000D01*
X134774000Y-93188000D01*
X134774000Y-94938000D01*
G37*
G36*
X137374000Y-94938000D02*
G01*
X136924000Y-94938000D01*
X136924000Y-93188000D01*
X137374000Y-93188000D01*
X137374000Y-94938000D01*
G37*
G36*
X139324000Y-94938000D02*
G01*
X138874000Y-94938000D01*
X138874000Y-93188000D01*
X139324000Y-93188000D01*
X139324000Y-94938000D01*
G37*
G36*
X136074000Y-94938000D02*
G01*
X135624000Y-94938000D01*
X135624000Y-93188000D01*
X136074000Y-93188000D01*
X136074000Y-94938000D01*
G37*
G36*
X136724000Y-94938000D02*
G01*
X136274000Y-94938000D01*
X136274000Y-93188000D01*
X136724000Y-93188000D01*
X136724000Y-94938000D01*
G37*
G36*
X138024000Y-94938000D02*
G01*
X137574000Y-94938000D01*
X137574000Y-93188000D01*
X138024000Y-93188000D01*
X138024000Y-94938000D01*
G37*
G36*
X135424000Y-94938000D02*
G01*
X134974000Y-94938000D01*
X134974000Y-93188000D01*
X135424000Y-93188000D01*
X135424000Y-94938000D01*
G37*
G36*
X130874000Y-94938000D02*
G01*
X130424000Y-94938000D01*
X130424000Y-93188000D01*
X130874000Y-93188000D01*
X130874000Y-94938000D01*
G37*
G36*
X131524000Y-94938000D02*
G01*
X131074000Y-94938000D01*
X131074000Y-93188000D01*
X131524000Y-93188000D01*
X131524000Y-94938000D01*
G37*
G36*
X132824000Y-94938000D02*
G01*
X132374000Y-94938000D01*
X132374000Y-93188000D01*
X132824000Y-93188000D01*
X132824000Y-94938000D01*
G37*
G36*
X132174000Y-94938000D02*
G01*
X131724000Y-94938000D01*
X131724000Y-93188000D01*
X132174000Y-93188000D01*
X132174000Y-94938000D01*
G37*
G36*
X138674000Y-94938000D02*
G01*
X138224000Y-94938000D01*
X138224000Y-93188000D01*
X138674000Y-93188000D01*
X138674000Y-94938000D01*
G37*
G36*
X121813015Y-91887437D02*
G01*
X121853494Y-91899716D01*
X121890802Y-91919658D01*
X121923504Y-91946496D01*
X121950342Y-91979198D01*
X121970284Y-92016506D01*
X121982563Y-92056985D01*
X121987000Y-92102034D01*
X121987000Y-93063966D01*
X121982563Y-93109015D01*
X121970284Y-93149494D01*
X121950342Y-93186802D01*
X121923504Y-93219504D01*
X121890802Y-93246342D01*
X121853494Y-93266284D01*
X121813015Y-93278563D01*
X121767966Y-93283000D01*
X121056034Y-93283000D01*
X121010985Y-93278563D01*
X120970506Y-93266284D01*
X120933198Y-93246342D01*
X120900496Y-93219504D01*
X120873658Y-93186802D01*
X120853716Y-93149494D01*
X120841437Y-93109015D01*
X120837000Y-93063966D01*
X120837000Y-92102034D01*
X120841437Y-92056985D01*
X120853716Y-92016506D01*
X120873658Y-91979198D01*
X120900496Y-91946496D01*
X120933198Y-91919658D01*
X120970506Y-91899716D01*
X121010985Y-91887437D01*
X121056034Y-91883000D01*
X121767966Y-91883000D01*
X121813015Y-91887437D01*
G37*
G36*
X123863015Y-91887437D02*
G01*
X123903494Y-91899716D01*
X123940802Y-91919658D01*
X123973504Y-91946496D01*
X124000342Y-91979198D01*
X124020284Y-92016506D01*
X124032563Y-92056985D01*
X124037000Y-92102034D01*
X124037000Y-93063966D01*
X124032563Y-93109015D01*
X124020284Y-93149494D01*
X124000342Y-93186802D01*
X123973504Y-93219504D01*
X123940802Y-93246342D01*
X123903494Y-93266284D01*
X123863015Y-93278563D01*
X123817966Y-93283000D01*
X123106034Y-93283000D01*
X123060985Y-93278563D01*
X123020506Y-93266284D01*
X122983198Y-93246342D01*
X122950496Y-93219504D01*
X122923658Y-93186802D01*
X122903716Y-93149494D01*
X122891437Y-93109015D01*
X122887000Y-93063966D01*
X122887000Y-92102034D01*
X122891437Y-92056985D01*
X122903716Y-92016506D01*
X122923658Y-91979198D01*
X122950496Y-91946496D01*
X122983198Y-91919658D01*
X123020506Y-91899716D01*
X123060985Y-91887437D01*
X123106034Y-91883000D01*
X123817966Y-91883000D01*
X123863015Y-91887437D01*
G37*
G36*
X117267046Y-92087412D02*
G01*
X117316019Y-92092235D01*
X117353717Y-92103671D01*
X117410267Y-92120825D01*
X117497129Y-92167254D01*
X117573264Y-92229736D01*
X117635746Y-92305871D01*
X117682175Y-92392733D01*
X117698872Y-92447777D01*
X117710765Y-92486981D01*
X117720419Y-92585000D01*
X117710765Y-92683019D01*
X117699329Y-92720717D01*
X117682175Y-92777267D01*
X117635746Y-92864129D01*
X117573264Y-92940264D01*
X117497129Y-93002746D01*
X117410267Y-93049175D01*
X117353717Y-93066329D01*
X117316019Y-93077765D01*
X117275324Y-93081773D01*
X117242560Y-93085000D01*
X116093440Y-93085000D01*
X116060676Y-93081773D01*
X116019981Y-93077765D01*
X115982283Y-93066329D01*
X115925733Y-93049175D01*
X115838871Y-93002746D01*
X115762736Y-92940264D01*
X115700254Y-92864129D01*
X115653825Y-92777267D01*
X115636671Y-92720717D01*
X115625235Y-92683019D01*
X115615581Y-92585000D01*
X115625235Y-92486981D01*
X115637128Y-92447777D01*
X115653825Y-92392733D01*
X115700254Y-92305871D01*
X115762736Y-92229736D01*
X115838871Y-92167254D01*
X115925733Y-92120825D01*
X115982283Y-92103671D01*
X116019981Y-92092235D01*
X116068954Y-92087412D01*
X116093440Y-92085000D01*
X117242560Y-92085000D01*
X117267046Y-92087412D01*
G37*
G36*
X112837046Y-92087412D02*
G01*
X112886019Y-92092235D01*
X112923717Y-92103671D01*
X112980267Y-92120825D01*
X113067129Y-92167254D01*
X113143264Y-92229736D01*
X113205746Y-92305871D01*
X113252175Y-92392733D01*
X113268872Y-92447777D01*
X113280765Y-92486981D01*
X113290419Y-92585000D01*
X113280765Y-92683019D01*
X113269329Y-92720717D01*
X113252175Y-92777267D01*
X113205746Y-92864129D01*
X113143264Y-92940264D01*
X113067129Y-93002746D01*
X112980267Y-93049175D01*
X112923717Y-93066329D01*
X112886019Y-93077765D01*
X112845324Y-93081773D01*
X112812560Y-93085000D01*
X112163440Y-93085000D01*
X112130676Y-93081773D01*
X112089981Y-93077765D01*
X112052283Y-93066329D01*
X111995733Y-93049175D01*
X111908871Y-93002746D01*
X111832736Y-92940264D01*
X111770254Y-92864129D01*
X111723825Y-92777267D01*
X111706671Y-92720717D01*
X111695235Y-92683019D01*
X111685581Y-92585000D01*
X111695235Y-92486981D01*
X111707128Y-92447777D01*
X111723825Y-92392733D01*
X111770254Y-92305871D01*
X111832736Y-92229736D01*
X111908871Y-92167254D01*
X111995733Y-92120825D01*
X112052283Y-92103671D01*
X112089981Y-92092235D01*
X112138954Y-92087412D01*
X112163440Y-92085000D01*
X112812560Y-92085000D01*
X112837046Y-92087412D01*
G37*
G36*
X177630713Y-88851089D02*
G01*
X178000513Y-89004265D01*
X178000515Y-89004266D01*
X178241070Y-89165000D01*
X178333325Y-89226643D01*
X178616357Y-89509675D01*
X178616359Y-89509678D01*
X178809162Y-89798227D01*
X178838735Y-89842487D01*
X178991911Y-90212287D01*
X179070000Y-90604865D01*
X179070000Y-91005135D01*
X178991911Y-91397713D01*
X178838735Y-91767513D01*
X178838734Y-91767515D01*
X178758359Y-91887804D01*
X178616357Y-92100325D01*
X178333325Y-92383357D01*
X178333322Y-92383359D01*
X178000515Y-92605734D01*
X178000514Y-92605735D01*
X178000513Y-92605735D01*
X177630713Y-92758911D01*
X177238135Y-92837000D01*
X176837865Y-92837000D01*
X176445287Y-92758911D01*
X176075487Y-92605735D01*
X176075486Y-92605735D01*
X176075485Y-92605734D01*
X175742678Y-92383359D01*
X175742675Y-92383357D01*
X175459643Y-92100325D01*
X175317641Y-91887804D01*
X175237266Y-91767515D01*
X175237265Y-91767513D01*
X175084089Y-91397713D01*
X175006000Y-91005135D01*
X175006000Y-90604865D01*
X175084089Y-90212287D01*
X175237265Y-89842487D01*
X175266839Y-89798227D01*
X175459641Y-89509678D01*
X175459643Y-89509675D01*
X175742675Y-89226643D01*
X175834930Y-89165000D01*
X176075485Y-89004266D01*
X176075487Y-89004265D01*
X176445287Y-88851089D01*
X176837865Y-88773000D01*
X177238135Y-88773000D01*
X177630713Y-88851089D01*
G37*
G36*
X163959015Y-91125437D02*
G01*
X163999494Y-91137716D01*
X164036802Y-91157658D01*
X164069504Y-91184496D01*
X164096342Y-91217198D01*
X164116284Y-91254506D01*
X164128563Y-91294985D01*
X164133000Y-91340034D01*
X164133000Y-92301966D01*
X164128563Y-92347015D01*
X164116284Y-92387494D01*
X164096342Y-92424802D01*
X164069504Y-92457504D01*
X164036802Y-92484342D01*
X163999494Y-92504284D01*
X163959015Y-92516563D01*
X163913966Y-92521000D01*
X163202034Y-92521000D01*
X163156985Y-92516563D01*
X163116506Y-92504284D01*
X163079198Y-92484342D01*
X163046496Y-92457504D01*
X163019658Y-92424802D01*
X162999716Y-92387494D01*
X162987437Y-92347015D01*
X162983000Y-92301966D01*
X162983000Y-91340034D01*
X162987437Y-91294985D01*
X162999716Y-91254506D01*
X163019658Y-91217198D01*
X163046496Y-91184496D01*
X163079198Y-91157658D01*
X163116506Y-91137716D01*
X163156985Y-91125437D01*
X163202034Y-91121000D01*
X163913966Y-91121000D01*
X163959015Y-91125437D01*
G37*
G36*
X166009015Y-91125437D02*
G01*
X166049494Y-91137716D01*
X166086802Y-91157658D01*
X166119504Y-91184496D01*
X166146342Y-91217198D01*
X166166284Y-91254506D01*
X166178563Y-91294985D01*
X166183000Y-91340034D01*
X166183000Y-92301966D01*
X166178563Y-92347015D01*
X166166284Y-92387494D01*
X166146342Y-92424802D01*
X166119504Y-92457504D01*
X166086802Y-92484342D01*
X166049494Y-92504284D01*
X166009015Y-92516563D01*
X165963966Y-92521000D01*
X165252034Y-92521000D01*
X165206985Y-92516563D01*
X165166506Y-92504284D01*
X165129198Y-92484342D01*
X165096496Y-92457504D01*
X165069658Y-92424802D01*
X165049716Y-92387494D01*
X165037437Y-92347015D01*
X165033000Y-92301966D01*
X165033000Y-91340034D01*
X165037437Y-91294985D01*
X165049716Y-91254506D01*
X165069658Y-91217198D01*
X165096496Y-91184496D01*
X165129198Y-91157658D01*
X165166506Y-91137716D01*
X165206985Y-91125437D01*
X165252034Y-91121000D01*
X165963966Y-91121000D01*
X166009015Y-91125437D01*
G37*
G36*
X168549015Y-91125437D02*
G01*
X168589494Y-91137716D01*
X168626802Y-91157658D01*
X168659504Y-91184496D01*
X168686342Y-91217198D01*
X168706284Y-91254506D01*
X168718563Y-91294985D01*
X168723000Y-91340034D01*
X168723000Y-92301966D01*
X168718563Y-92347015D01*
X168706284Y-92387494D01*
X168686342Y-92424802D01*
X168659504Y-92457504D01*
X168626802Y-92484342D01*
X168589494Y-92504284D01*
X168549015Y-92516563D01*
X168503966Y-92521000D01*
X167792034Y-92521000D01*
X167746985Y-92516563D01*
X167706506Y-92504284D01*
X167669198Y-92484342D01*
X167636496Y-92457504D01*
X167609658Y-92424802D01*
X167589716Y-92387494D01*
X167577437Y-92347015D01*
X167573000Y-92301966D01*
X167573000Y-91340034D01*
X167577437Y-91294985D01*
X167589716Y-91254506D01*
X167609658Y-91217198D01*
X167636496Y-91184496D01*
X167669198Y-91157658D01*
X167706506Y-91137716D01*
X167746985Y-91125437D01*
X167792034Y-91121000D01*
X168503966Y-91121000D01*
X168549015Y-91125437D01*
G37*
G36*
X170599015Y-91125437D02*
G01*
X170639494Y-91137716D01*
X170676802Y-91157658D01*
X170709504Y-91184496D01*
X170736342Y-91217198D01*
X170756284Y-91254506D01*
X170768563Y-91294985D01*
X170773000Y-91340034D01*
X170773000Y-92301966D01*
X170768563Y-92347015D01*
X170756284Y-92387494D01*
X170736342Y-92424802D01*
X170709504Y-92457504D01*
X170676802Y-92484342D01*
X170639494Y-92504284D01*
X170599015Y-92516563D01*
X170553966Y-92521000D01*
X169842034Y-92521000D01*
X169796985Y-92516563D01*
X169756506Y-92504284D01*
X169719198Y-92484342D01*
X169686496Y-92457504D01*
X169659658Y-92424802D01*
X169639716Y-92387494D01*
X169627437Y-92347015D01*
X169623000Y-92301966D01*
X169623000Y-91340034D01*
X169627437Y-91294985D01*
X169639716Y-91254506D01*
X169659658Y-91217198D01*
X169686496Y-91184496D01*
X169719198Y-91157658D01*
X169756506Y-91137716D01*
X169796985Y-91125437D01*
X169842034Y-91121000D01*
X170553966Y-91121000D01*
X170599015Y-91125437D01*
G37*
G36*
X138323015Y-90871437D02*
G01*
X138363494Y-90883716D01*
X138400802Y-90903658D01*
X138433504Y-90930496D01*
X138460342Y-90963198D01*
X138480284Y-91000506D01*
X138492563Y-91040985D01*
X138497000Y-91086034D01*
X138497000Y-92047966D01*
X138492563Y-92093015D01*
X138480284Y-92133494D01*
X138460342Y-92170802D01*
X138433504Y-92203504D01*
X138400802Y-92230342D01*
X138363494Y-92250284D01*
X138323015Y-92262563D01*
X138277966Y-92267000D01*
X137566034Y-92267000D01*
X137520985Y-92262563D01*
X137480506Y-92250284D01*
X137443198Y-92230342D01*
X137410496Y-92203504D01*
X137383658Y-92170802D01*
X137363716Y-92133494D01*
X137351437Y-92093015D01*
X137347000Y-92047966D01*
X137347000Y-91086034D01*
X137351437Y-91040985D01*
X137363716Y-91000506D01*
X137383658Y-90963198D01*
X137410496Y-90930496D01*
X137443198Y-90903658D01*
X137480506Y-90883716D01*
X137520985Y-90871437D01*
X137566034Y-90867000D01*
X138277966Y-90867000D01*
X138323015Y-90871437D01*
G37*
G36*
X140373015Y-90871437D02*
G01*
X140413494Y-90883716D01*
X140450802Y-90903658D01*
X140483504Y-90930496D01*
X140510342Y-90963198D01*
X140530284Y-91000506D01*
X140542563Y-91040985D01*
X140547000Y-91086034D01*
X140547000Y-92047966D01*
X140542563Y-92093015D01*
X140530284Y-92133494D01*
X140510342Y-92170802D01*
X140483504Y-92203504D01*
X140450802Y-92230342D01*
X140413494Y-92250284D01*
X140373015Y-92262563D01*
X140327966Y-92267000D01*
X139616034Y-92267000D01*
X139570985Y-92262563D01*
X139530506Y-92250284D01*
X139493198Y-92230342D01*
X139460496Y-92203504D01*
X139433658Y-92170802D01*
X139413716Y-92133494D01*
X139401437Y-92093015D01*
X139397000Y-92047966D01*
X139397000Y-91086034D01*
X139401437Y-91040985D01*
X139413716Y-91000506D01*
X139433658Y-90963198D01*
X139460496Y-90930496D01*
X139493198Y-90903658D01*
X139530506Y-90883716D01*
X139570985Y-90871437D01*
X139616034Y-90867000D01*
X140327966Y-90867000D01*
X140373015Y-90871437D01*
G37*
G36*
X136309015Y-90871437D02*
G01*
X136349494Y-90883716D01*
X136386802Y-90903658D01*
X136419504Y-90930496D01*
X136446342Y-90963198D01*
X136466284Y-91000506D01*
X136478563Y-91040985D01*
X136483000Y-91086034D01*
X136483000Y-92047966D01*
X136478563Y-92093015D01*
X136466284Y-92133494D01*
X136446342Y-92170802D01*
X136419504Y-92203504D01*
X136386802Y-92230342D01*
X136349494Y-92250284D01*
X136309015Y-92262563D01*
X136263966Y-92267000D01*
X135552034Y-92267000D01*
X135506985Y-92262563D01*
X135466506Y-92250284D01*
X135429198Y-92230342D01*
X135396496Y-92203504D01*
X135369658Y-92170802D01*
X135349716Y-92133494D01*
X135337437Y-92093015D01*
X135333000Y-92047966D01*
X135333000Y-91086034D01*
X135337437Y-91040985D01*
X135349716Y-91000506D01*
X135369658Y-90963198D01*
X135396496Y-90930496D01*
X135429198Y-90903658D01*
X135466506Y-90883716D01*
X135506985Y-90871437D01*
X135552034Y-90867000D01*
X136263966Y-90867000D01*
X136309015Y-90871437D01*
G37*
G36*
X134259015Y-90871437D02*
G01*
X134299494Y-90883716D01*
X134336802Y-90903658D01*
X134369504Y-90930496D01*
X134396342Y-90963198D01*
X134416284Y-91000506D01*
X134428563Y-91040985D01*
X134433000Y-91086034D01*
X134433000Y-92047966D01*
X134428563Y-92093015D01*
X134416284Y-92133494D01*
X134396342Y-92170802D01*
X134369504Y-92203504D01*
X134336802Y-92230342D01*
X134299494Y-92250284D01*
X134259015Y-92262563D01*
X134213966Y-92267000D01*
X133502034Y-92267000D01*
X133456985Y-92262563D01*
X133416506Y-92250284D01*
X133379198Y-92230342D01*
X133346496Y-92203504D01*
X133319658Y-92170802D01*
X133299716Y-92133494D01*
X133287437Y-92093015D01*
X133283000Y-92047966D01*
X133283000Y-91086034D01*
X133287437Y-91040985D01*
X133299716Y-91000506D01*
X133319658Y-90963198D01*
X133346496Y-90930496D01*
X133379198Y-90903658D01*
X133416506Y-90883716D01*
X133456985Y-90871437D01*
X133502034Y-90867000D01*
X134213966Y-90867000D01*
X134259015Y-90871437D01*
G37*
G36*
X118308000Y-91815000D02*
G01*
X116858000Y-91815000D01*
X116858000Y-91215000D01*
X118308000Y-91215000D01*
X118308000Y-91815000D01*
G37*
G36*
X116190940Y-90834163D02*
G01*
X116232799Y-90842489D01*
X116291945Y-90866988D01*
X116345176Y-90902556D01*
X116390444Y-90947824D01*
X116426012Y-91001055D01*
X116450511Y-91060201D01*
X116450511Y-91060203D01*
X116461809Y-91116999D01*
X116463000Y-91122990D01*
X116463000Y-91187010D01*
X116450511Y-91249799D01*
X116426012Y-91308945D01*
X116390444Y-91362176D01*
X116345176Y-91407444D01*
X116291945Y-91443012D01*
X116232799Y-91467511D01*
X116190940Y-91475837D01*
X116170011Y-91480000D01*
X116105989Y-91480000D01*
X116085060Y-91475837D01*
X116043201Y-91467511D01*
X115984055Y-91443012D01*
X115930824Y-91407444D01*
X115885556Y-91362176D01*
X115849988Y-91308945D01*
X115825489Y-91249799D01*
X115813000Y-91187010D01*
X115813000Y-91122990D01*
X115814192Y-91116999D01*
X115825489Y-91060203D01*
X115825489Y-91060201D01*
X115849988Y-91001055D01*
X115885556Y-90947824D01*
X115930824Y-90902556D01*
X115984055Y-90866988D01*
X116043201Y-90842489D01*
X116085060Y-90834163D01*
X116105989Y-90830000D01*
X116170011Y-90830000D01*
X116190940Y-90834163D01*
G37*
G36*
X118308000Y-91015000D02*
G01*
X116858000Y-91015000D01*
X116858000Y-90415000D01*
X118308000Y-90415000D01*
X118308000Y-91015000D01*
G37*
G36*
X123863015Y-89601437D02*
G01*
X123903494Y-89613716D01*
X123940802Y-89633658D01*
X123973504Y-89660496D01*
X124000342Y-89693198D01*
X124020284Y-89730506D01*
X124032563Y-89770985D01*
X124037000Y-89816034D01*
X124037000Y-90777966D01*
X124032563Y-90823015D01*
X124020284Y-90863494D01*
X124000342Y-90900802D01*
X123973504Y-90933504D01*
X123940802Y-90960342D01*
X123903494Y-90980284D01*
X123863015Y-90992563D01*
X123817966Y-90997000D01*
X123106034Y-90997000D01*
X123060985Y-90992563D01*
X123020506Y-90980284D01*
X122983198Y-90960342D01*
X122950496Y-90933504D01*
X122923658Y-90900802D01*
X122903716Y-90863494D01*
X122891437Y-90823015D01*
X122887000Y-90777966D01*
X122887000Y-89816034D01*
X122891437Y-89770985D01*
X122903716Y-89730506D01*
X122923658Y-89693198D01*
X122950496Y-89660496D01*
X122983198Y-89633658D01*
X123020506Y-89613716D01*
X123060985Y-89601437D01*
X123106034Y-89597000D01*
X123817966Y-89597000D01*
X123863015Y-89601437D01*
G37*
G36*
X121813015Y-89601437D02*
G01*
X121853494Y-89613716D01*
X121890802Y-89633658D01*
X121923504Y-89660496D01*
X121950342Y-89693198D01*
X121970284Y-89730506D01*
X121982563Y-89770985D01*
X121987000Y-89816034D01*
X121987000Y-90777966D01*
X121982563Y-90823015D01*
X121970284Y-90863494D01*
X121950342Y-90900802D01*
X121923504Y-90933504D01*
X121890802Y-90960342D01*
X121853494Y-90980284D01*
X121813015Y-90992563D01*
X121767966Y-90997000D01*
X121056034Y-90997000D01*
X121010985Y-90992563D01*
X120970506Y-90980284D01*
X120933198Y-90960342D01*
X120900496Y-90933504D01*
X120873658Y-90900802D01*
X120853716Y-90863494D01*
X120841437Y-90823015D01*
X120837000Y-90777966D01*
X120837000Y-89816034D01*
X120841437Y-89770985D01*
X120853716Y-89730506D01*
X120873658Y-89693198D01*
X120900496Y-89660496D01*
X120933198Y-89633658D01*
X120970506Y-89613716D01*
X121010985Y-89601437D01*
X121056034Y-89597000D01*
X121767966Y-89597000D01*
X121813015Y-89601437D01*
G37*
G36*
X118308000Y-90165000D02*
G01*
X116858000Y-90165000D01*
X116858000Y-89865000D01*
X118308000Y-89865000D01*
X118308000Y-90165000D01*
G37*
G36*
X118308000Y-89665000D02*
G01*
X116858000Y-89665000D01*
X116858000Y-89365000D01*
X118308000Y-89365000D01*
X118308000Y-89665000D01*
G37*
G36*
X130177015Y-88077437D02*
G01*
X130217494Y-88089716D01*
X130254802Y-88109658D01*
X130287504Y-88136496D01*
X130314342Y-88169198D01*
X130334284Y-88206506D01*
X130346563Y-88246985D01*
X130351000Y-88292034D01*
X130351000Y-89253966D01*
X130346563Y-89299015D01*
X130334284Y-89339494D01*
X130314342Y-89376802D01*
X130287504Y-89409504D01*
X130254802Y-89436342D01*
X130217494Y-89456284D01*
X130177015Y-89468563D01*
X130131966Y-89473000D01*
X129420034Y-89473000D01*
X129374985Y-89468563D01*
X129334506Y-89456284D01*
X129297198Y-89436342D01*
X129264496Y-89409504D01*
X129237658Y-89376802D01*
X129217716Y-89339494D01*
X129205437Y-89299015D01*
X129201000Y-89253966D01*
X129201000Y-88292034D01*
X129205437Y-88246985D01*
X129217716Y-88206506D01*
X129237658Y-88169198D01*
X129264496Y-88136496D01*
X129297198Y-88109658D01*
X129334506Y-88089716D01*
X129374985Y-88077437D01*
X129420034Y-88073000D01*
X130131966Y-88073000D01*
X130177015Y-88077437D01*
G37*
G36*
X132227015Y-88077437D02*
G01*
X132267494Y-88089716D01*
X132304802Y-88109658D01*
X132337504Y-88136496D01*
X132364342Y-88169198D01*
X132384284Y-88206506D01*
X132396563Y-88246985D01*
X132401000Y-88292034D01*
X132401000Y-89253966D01*
X132396563Y-89299015D01*
X132384284Y-89339494D01*
X132364342Y-89376802D01*
X132337504Y-89409504D01*
X132304802Y-89436342D01*
X132267494Y-89456284D01*
X132227015Y-89468563D01*
X132181966Y-89473000D01*
X131470034Y-89473000D01*
X131424985Y-89468563D01*
X131384506Y-89456284D01*
X131347198Y-89436342D01*
X131314496Y-89409504D01*
X131287658Y-89376802D01*
X131267716Y-89339494D01*
X131255437Y-89299015D01*
X131251000Y-89253966D01*
X131251000Y-88292034D01*
X131255437Y-88246985D01*
X131267716Y-88206506D01*
X131287658Y-88169198D01*
X131314496Y-88136496D01*
X131347198Y-88109658D01*
X131384506Y-88089716D01*
X131424985Y-88077437D01*
X131470034Y-88073000D01*
X132181966Y-88073000D01*
X132227015Y-88077437D01*
G37*
G36*
X134259015Y-88077437D02*
G01*
X134299494Y-88089716D01*
X134336802Y-88109658D01*
X134369504Y-88136496D01*
X134396342Y-88169198D01*
X134416284Y-88206506D01*
X134428563Y-88246985D01*
X134433000Y-88292034D01*
X134433000Y-89253966D01*
X134428563Y-89299015D01*
X134416284Y-89339494D01*
X134396342Y-89376802D01*
X134369504Y-89409504D01*
X134336802Y-89436342D01*
X134299494Y-89456284D01*
X134259015Y-89468563D01*
X134213966Y-89473000D01*
X133502034Y-89473000D01*
X133456985Y-89468563D01*
X133416506Y-89456284D01*
X133379198Y-89436342D01*
X133346496Y-89409504D01*
X133319658Y-89376802D01*
X133299716Y-89339494D01*
X133287437Y-89299015D01*
X133283000Y-89253966D01*
X133283000Y-88292034D01*
X133287437Y-88246985D01*
X133299716Y-88206506D01*
X133319658Y-88169198D01*
X133346496Y-88136496D01*
X133379198Y-88109658D01*
X133416506Y-88089716D01*
X133456985Y-88077437D01*
X133502034Y-88073000D01*
X134213966Y-88073000D01*
X134259015Y-88077437D01*
G37*
G36*
X136309015Y-88077437D02*
G01*
X136349494Y-88089716D01*
X136386802Y-88109658D01*
X136419504Y-88136496D01*
X136446342Y-88169198D01*
X136466284Y-88206506D01*
X136478563Y-88246985D01*
X136483000Y-88292034D01*
X136483000Y-89253966D01*
X136478563Y-89299015D01*
X136466284Y-89339494D01*
X136446342Y-89376802D01*
X136419504Y-89409504D01*
X136386802Y-89436342D01*
X136349494Y-89456284D01*
X136309015Y-89468563D01*
X136263966Y-89473000D01*
X135552034Y-89473000D01*
X135506985Y-89468563D01*
X135466506Y-89456284D01*
X135429198Y-89436342D01*
X135396496Y-89409504D01*
X135369658Y-89376802D01*
X135349716Y-89339494D01*
X135337437Y-89299015D01*
X135333000Y-89253966D01*
X135333000Y-88292034D01*
X135337437Y-88246985D01*
X135349716Y-88206506D01*
X135369658Y-88169198D01*
X135396496Y-88136496D01*
X135429198Y-88109658D01*
X135466506Y-88089716D01*
X135506985Y-88077437D01*
X135552034Y-88073000D01*
X136263966Y-88073000D01*
X136309015Y-88077437D01*
G37*
G36*
X118308000Y-89165000D02*
G01*
X116858000Y-89165000D01*
X116858000Y-88865000D01*
X118308000Y-88865000D01*
X118308000Y-89165000D01*
G37*
G36*
X118308000Y-88665000D02*
G01*
X116858000Y-88665000D01*
X116858000Y-88365000D01*
X118308000Y-88365000D01*
X118308000Y-88665000D01*
G37*
G36*
X164556767Y-87035822D02*
G01*
X164647761Y-87073513D01*
X164693259Y-87092359D01*
X164739870Y-87123504D01*
X164816097Y-87174437D01*
X164920563Y-87278903D01*
X164920564Y-87278905D01*
X165002641Y-87401741D01*
X165002641Y-87401742D01*
X165059178Y-87538233D01*
X165088000Y-87683131D01*
X165088000Y-87830869D01*
X165059178Y-87975767D01*
X165021487Y-88066761D01*
X165002641Y-88112259D01*
X164967400Y-88165000D01*
X164920563Y-88235097D01*
X164816097Y-88339563D01*
X164778028Y-88365000D01*
X164693259Y-88421641D01*
X164647761Y-88440487D01*
X164556767Y-88478178D01*
X164411869Y-88507000D01*
X164264131Y-88507000D01*
X164119233Y-88478178D01*
X164028239Y-88440487D01*
X163982741Y-88421641D01*
X163897972Y-88365000D01*
X163859903Y-88339563D01*
X163755437Y-88235097D01*
X163708600Y-88165000D01*
X163673359Y-88112259D01*
X163654513Y-88066761D01*
X163616822Y-87975767D01*
X163588000Y-87830869D01*
X163588000Y-87683131D01*
X163616822Y-87538233D01*
X163673359Y-87401742D01*
X163673359Y-87401741D01*
X163755436Y-87278905D01*
X163755437Y-87278903D01*
X163859903Y-87174437D01*
X163936130Y-87123504D01*
X163982741Y-87092359D01*
X164028239Y-87073513D01*
X164119233Y-87035822D01*
X164264131Y-87007000D01*
X164411869Y-87007000D01*
X164556767Y-87035822D01*
G37*
G36*
X169436767Y-87035822D02*
G01*
X169527761Y-87073513D01*
X169573259Y-87092359D01*
X169619870Y-87123504D01*
X169696097Y-87174437D01*
X169800563Y-87278903D01*
X169800564Y-87278905D01*
X169882641Y-87401741D01*
X169882641Y-87401742D01*
X169939178Y-87538233D01*
X169968000Y-87683131D01*
X169968000Y-87830869D01*
X169939178Y-87975767D01*
X169901487Y-88066761D01*
X169882641Y-88112259D01*
X169847400Y-88165000D01*
X169800563Y-88235097D01*
X169696097Y-88339563D01*
X169658028Y-88365000D01*
X169573259Y-88421641D01*
X169527761Y-88440487D01*
X169436767Y-88478178D01*
X169291869Y-88507000D01*
X169144131Y-88507000D01*
X168999233Y-88478178D01*
X168908239Y-88440487D01*
X168862741Y-88421641D01*
X168777972Y-88365000D01*
X168739903Y-88339563D01*
X168635437Y-88235097D01*
X168588600Y-88165000D01*
X168553359Y-88112259D01*
X168534513Y-88066761D01*
X168496822Y-87975767D01*
X168468000Y-87830869D01*
X168468000Y-87683131D01*
X168496822Y-87538233D01*
X168553359Y-87401742D01*
X168553359Y-87401741D01*
X168635436Y-87278905D01*
X168635437Y-87278903D01*
X168739903Y-87174437D01*
X168816130Y-87123504D01*
X168862741Y-87092359D01*
X168908239Y-87073513D01*
X168999233Y-87035822D01*
X169144131Y-87007000D01*
X169291869Y-87007000D01*
X169436767Y-87035822D01*
G37*
G36*
X118308000Y-88165000D02*
G01*
X116858000Y-88165000D01*
X116858000Y-87865000D01*
X118308000Y-87865000D01*
X118308000Y-88165000D01*
G37*
G36*
X121795015Y-86553437D02*
G01*
X121835494Y-86565716D01*
X121872802Y-86585658D01*
X121905504Y-86612496D01*
X121932342Y-86645198D01*
X121952284Y-86682506D01*
X121964563Y-86722985D01*
X121969000Y-86768034D01*
X121969000Y-87729966D01*
X121964563Y-87775015D01*
X121952284Y-87815494D01*
X121932342Y-87852802D01*
X121905504Y-87885504D01*
X121872802Y-87912342D01*
X121835494Y-87932284D01*
X121795015Y-87944563D01*
X121749966Y-87949000D01*
X121038034Y-87949000D01*
X120992985Y-87944563D01*
X120952506Y-87932284D01*
X120915198Y-87912342D01*
X120882496Y-87885504D01*
X120855658Y-87852802D01*
X120835716Y-87815494D01*
X120823437Y-87775015D01*
X120819000Y-87729966D01*
X120819000Y-86768034D01*
X120823437Y-86722985D01*
X120835716Y-86682506D01*
X120855658Y-86645198D01*
X120882496Y-86612496D01*
X120915198Y-86585658D01*
X120952506Y-86565716D01*
X120992985Y-86553437D01*
X121038034Y-86549000D01*
X121749966Y-86549000D01*
X121795015Y-86553437D01*
G37*
G36*
X123845015Y-86553437D02*
G01*
X123885494Y-86565716D01*
X123922802Y-86585658D01*
X123955504Y-86612496D01*
X123982342Y-86645198D01*
X124002284Y-86682506D01*
X124014563Y-86722985D01*
X124019000Y-86768034D01*
X124019000Y-87729966D01*
X124014563Y-87775015D01*
X124002284Y-87815494D01*
X123982342Y-87852802D01*
X123955504Y-87885504D01*
X123922802Y-87912342D01*
X123885494Y-87932284D01*
X123845015Y-87944563D01*
X123799966Y-87949000D01*
X123088034Y-87949000D01*
X123042985Y-87944563D01*
X123002506Y-87932284D01*
X122965198Y-87912342D01*
X122932496Y-87885504D01*
X122905658Y-87852802D01*
X122885716Y-87815494D01*
X122873437Y-87775015D01*
X122869000Y-87729966D01*
X122869000Y-86768034D01*
X122873437Y-86722985D01*
X122885716Y-86682506D01*
X122905658Y-86645198D01*
X122932496Y-86612496D01*
X122965198Y-86585658D01*
X123002506Y-86565716D01*
X123042985Y-86553437D01*
X123088034Y-86549000D01*
X123799966Y-86549000D01*
X123845015Y-86553437D01*
G37*
G36*
X118308000Y-87665000D02*
G01*
X116858000Y-87665000D01*
X116858000Y-87365000D01*
X118308000Y-87365000D01*
X118308000Y-87665000D01*
G37*
G36*
X132227015Y-85791437D02*
G01*
X132267494Y-85803716D01*
X132304802Y-85823658D01*
X132337504Y-85850496D01*
X132364342Y-85883198D01*
X132384284Y-85920506D01*
X132396563Y-85960985D01*
X132401000Y-86006034D01*
X132401000Y-86967966D01*
X132396563Y-87013015D01*
X132384284Y-87053494D01*
X132364342Y-87090802D01*
X132337504Y-87123504D01*
X132304802Y-87150342D01*
X132267494Y-87170284D01*
X132227015Y-87182563D01*
X132181966Y-87187000D01*
X131470034Y-87187000D01*
X131424985Y-87182563D01*
X131384506Y-87170284D01*
X131347198Y-87150342D01*
X131314496Y-87123504D01*
X131287658Y-87090802D01*
X131267716Y-87053494D01*
X131255437Y-87013015D01*
X131251000Y-86967966D01*
X131251000Y-86006034D01*
X131255437Y-85960985D01*
X131267716Y-85920506D01*
X131287658Y-85883198D01*
X131314496Y-85850496D01*
X131347198Y-85823658D01*
X131384506Y-85803716D01*
X131424985Y-85791437D01*
X131470034Y-85787000D01*
X132181966Y-85787000D01*
X132227015Y-85791437D01*
G37*
G36*
X136291015Y-85791437D02*
G01*
X136331494Y-85803716D01*
X136368802Y-85823658D01*
X136401504Y-85850496D01*
X136428342Y-85883198D01*
X136448284Y-85920506D01*
X136460563Y-85960985D01*
X136465000Y-86006034D01*
X136465000Y-86967966D01*
X136460563Y-87013015D01*
X136448284Y-87053494D01*
X136428342Y-87090802D01*
X136401504Y-87123504D01*
X136368802Y-87150342D01*
X136331494Y-87170284D01*
X136291015Y-87182563D01*
X136245966Y-87187000D01*
X135534034Y-87187000D01*
X135488985Y-87182563D01*
X135448506Y-87170284D01*
X135411198Y-87150342D01*
X135378496Y-87123504D01*
X135351658Y-87090802D01*
X135331716Y-87053494D01*
X135319437Y-87013015D01*
X135315000Y-86967966D01*
X135315000Y-86006034D01*
X135319437Y-85960985D01*
X135331716Y-85920506D01*
X135351658Y-85883198D01*
X135378496Y-85850496D01*
X135411198Y-85823658D01*
X135448506Y-85803716D01*
X135488985Y-85791437D01*
X135534034Y-85787000D01*
X136245966Y-85787000D01*
X136291015Y-85791437D01*
G37*
G36*
X130177015Y-85791437D02*
G01*
X130217494Y-85803716D01*
X130254802Y-85823658D01*
X130287504Y-85850496D01*
X130314342Y-85883198D01*
X130334284Y-85920506D01*
X130346563Y-85960985D01*
X130351000Y-86006034D01*
X130351000Y-86967966D01*
X130346563Y-87013015D01*
X130334284Y-87053494D01*
X130314342Y-87090802D01*
X130287504Y-87123504D01*
X130254802Y-87150342D01*
X130217494Y-87170284D01*
X130177015Y-87182563D01*
X130131966Y-87187000D01*
X129420034Y-87187000D01*
X129374985Y-87182563D01*
X129334506Y-87170284D01*
X129297198Y-87150342D01*
X129264496Y-87123504D01*
X129237658Y-87090802D01*
X129217716Y-87053494D01*
X129205437Y-87013015D01*
X129201000Y-86967966D01*
X129201000Y-86006034D01*
X129205437Y-85960985D01*
X129217716Y-85920506D01*
X129237658Y-85883198D01*
X129264496Y-85850496D01*
X129297198Y-85823658D01*
X129334506Y-85803716D01*
X129374985Y-85791437D01*
X129420034Y-85787000D01*
X130131966Y-85787000D01*
X130177015Y-85791437D01*
G37*
G36*
X134241015Y-85791437D02*
G01*
X134281494Y-85803716D01*
X134318802Y-85823658D01*
X134351504Y-85850496D01*
X134378342Y-85883198D01*
X134398284Y-85920506D01*
X134410563Y-85960985D01*
X134415000Y-86006034D01*
X134415000Y-86967966D01*
X134410563Y-87013015D01*
X134398284Y-87053494D01*
X134378342Y-87090802D01*
X134351504Y-87123504D01*
X134318802Y-87150342D01*
X134281494Y-87170284D01*
X134241015Y-87182563D01*
X134195966Y-87187000D01*
X133484034Y-87187000D01*
X133438985Y-87182563D01*
X133398506Y-87170284D01*
X133361198Y-87150342D01*
X133328496Y-87123504D01*
X133301658Y-87090802D01*
X133281716Y-87053494D01*
X133269437Y-87013015D01*
X133265000Y-86967966D01*
X133265000Y-86006034D01*
X133269437Y-85960985D01*
X133281716Y-85920506D01*
X133301658Y-85883198D01*
X133328496Y-85850496D01*
X133361198Y-85823658D01*
X133398506Y-85803716D01*
X133438985Y-85791437D01*
X133484034Y-85787000D01*
X134195966Y-85787000D01*
X134241015Y-85791437D01*
G37*
G36*
X118308000Y-87165000D02*
G01*
X116858000Y-87165000D01*
X116858000Y-86865000D01*
X118308000Y-86865000D01*
X118308000Y-87165000D01*
G37*
G36*
X118308000Y-86665000D02*
G01*
X116858000Y-86665000D01*
X116858000Y-86365000D01*
X118308000Y-86365000D01*
X118308000Y-86665000D01*
G37*
G36*
X118308000Y-86115000D02*
G01*
X116858000Y-86115000D01*
X116858000Y-85515000D01*
X118308000Y-85515000D01*
X118308000Y-86115000D01*
G37*
G36*
X116190940Y-85054163D02*
G01*
X116232799Y-85062489D01*
X116291945Y-85086988D01*
X116345176Y-85122556D01*
X116390444Y-85167824D01*
X116426012Y-85221055D01*
X116450511Y-85280201D01*
X116450511Y-85280203D01*
X116463000Y-85342989D01*
X116463000Y-85407011D01*
X116458837Y-85427940D01*
X116450511Y-85469799D01*
X116426012Y-85528945D01*
X116390444Y-85582176D01*
X116345176Y-85627444D01*
X116291945Y-85663012D01*
X116232799Y-85687511D01*
X116190940Y-85695837D01*
X116170011Y-85700000D01*
X116105989Y-85700000D01*
X116085060Y-85695837D01*
X116043201Y-85687511D01*
X115984055Y-85663012D01*
X115930824Y-85627444D01*
X115885556Y-85582176D01*
X115849988Y-85528945D01*
X115825489Y-85469799D01*
X115817163Y-85427940D01*
X115813000Y-85407011D01*
X115813000Y-85342989D01*
X115825489Y-85280203D01*
X115825489Y-85280201D01*
X115849988Y-85221055D01*
X115885556Y-85167824D01*
X115930824Y-85122556D01*
X115984055Y-85086988D01*
X116043201Y-85062489D01*
X116085060Y-85054163D01*
X116105989Y-85050000D01*
X116170011Y-85050000D01*
X116190940Y-85054163D01*
G37*
G36*
X121795015Y-84267437D02*
G01*
X121835494Y-84279716D01*
X121872802Y-84299658D01*
X121905504Y-84326496D01*
X121932342Y-84359198D01*
X121952284Y-84396506D01*
X121964563Y-84436985D01*
X121969000Y-84482034D01*
X121969000Y-85443966D01*
X121964563Y-85489015D01*
X121952284Y-85529494D01*
X121932342Y-85566802D01*
X121905504Y-85599504D01*
X121872802Y-85626342D01*
X121835494Y-85646284D01*
X121795015Y-85658563D01*
X121749966Y-85663000D01*
X121038034Y-85663000D01*
X120992985Y-85658563D01*
X120952506Y-85646284D01*
X120915198Y-85626342D01*
X120882496Y-85599504D01*
X120855658Y-85566802D01*
X120835716Y-85529494D01*
X120823437Y-85489015D01*
X120819000Y-85443966D01*
X120819000Y-84482034D01*
X120823437Y-84436985D01*
X120835716Y-84396506D01*
X120855658Y-84359198D01*
X120882496Y-84326496D01*
X120915198Y-84299658D01*
X120952506Y-84279716D01*
X120992985Y-84267437D01*
X121038034Y-84263000D01*
X121749966Y-84263000D01*
X121795015Y-84267437D01*
G37*
G36*
X123845015Y-84267437D02*
G01*
X123885494Y-84279716D01*
X123922802Y-84299658D01*
X123955504Y-84326496D01*
X123982342Y-84359198D01*
X124002284Y-84396506D01*
X124014563Y-84436985D01*
X124019000Y-84482034D01*
X124019000Y-85443966D01*
X124014563Y-85489015D01*
X124002284Y-85529494D01*
X123982342Y-85566802D01*
X123955504Y-85599504D01*
X123922802Y-85626342D01*
X123885494Y-85646284D01*
X123845015Y-85658563D01*
X123799966Y-85663000D01*
X123088034Y-85663000D01*
X123042985Y-85658563D01*
X123002506Y-85646284D01*
X122965198Y-85626342D01*
X122932496Y-85599504D01*
X122905658Y-85566802D01*
X122885716Y-85529494D01*
X122873437Y-85489015D01*
X122869000Y-85443966D01*
X122869000Y-84482034D01*
X122873437Y-84436985D01*
X122885716Y-84396506D01*
X122905658Y-84359198D01*
X122932496Y-84326496D01*
X122965198Y-84299658D01*
X123002506Y-84279716D01*
X123042985Y-84267437D01*
X123088034Y-84263000D01*
X123799966Y-84263000D01*
X123845015Y-84267437D01*
G37*
G36*
X118308000Y-85315000D02*
G01*
X116858000Y-85315000D01*
X116858000Y-84715000D01*
X118308000Y-84715000D01*
X118308000Y-85315000D01*
G37*
G36*
X136291015Y-83505437D02*
G01*
X136331494Y-83517716D01*
X136368802Y-83537658D01*
X136401504Y-83564496D01*
X136428342Y-83597198D01*
X136448284Y-83634506D01*
X136460563Y-83674985D01*
X136465000Y-83720034D01*
X136465000Y-84681966D01*
X136460563Y-84727015D01*
X136448284Y-84767494D01*
X136428342Y-84804802D01*
X136401504Y-84837504D01*
X136368802Y-84864342D01*
X136331494Y-84884284D01*
X136291015Y-84896563D01*
X136245966Y-84901000D01*
X135534034Y-84901000D01*
X135488985Y-84896563D01*
X135448506Y-84884284D01*
X135411198Y-84864342D01*
X135378496Y-84837504D01*
X135351658Y-84804802D01*
X135331716Y-84767494D01*
X135319437Y-84727015D01*
X135315000Y-84681966D01*
X135315000Y-83720034D01*
X135319437Y-83674985D01*
X135331716Y-83634506D01*
X135351658Y-83597198D01*
X135378496Y-83564496D01*
X135411198Y-83537658D01*
X135448506Y-83517716D01*
X135488985Y-83505437D01*
X135534034Y-83501000D01*
X136245966Y-83501000D01*
X136291015Y-83505437D01*
G37*
G36*
X134241015Y-83505437D02*
G01*
X134281494Y-83517716D01*
X134318802Y-83537658D01*
X134351504Y-83564496D01*
X134378342Y-83597198D01*
X134398284Y-83634506D01*
X134410563Y-83674985D01*
X134415000Y-83720034D01*
X134415000Y-84681966D01*
X134410563Y-84727015D01*
X134398284Y-84767494D01*
X134378342Y-84804802D01*
X134351504Y-84837504D01*
X134318802Y-84864342D01*
X134281494Y-84884284D01*
X134241015Y-84896563D01*
X134195966Y-84901000D01*
X133484034Y-84901000D01*
X133438985Y-84896563D01*
X133398506Y-84884284D01*
X133361198Y-84864342D01*
X133328496Y-84837504D01*
X133301658Y-84804802D01*
X133281716Y-84767494D01*
X133269437Y-84727015D01*
X133265000Y-84681966D01*
X133265000Y-83720034D01*
X133269437Y-83674985D01*
X133281716Y-83634506D01*
X133301658Y-83597198D01*
X133328496Y-83564496D01*
X133361198Y-83537658D01*
X133398506Y-83517716D01*
X133438985Y-83505437D01*
X133484034Y-83501000D01*
X134195966Y-83501000D01*
X134241015Y-83505437D01*
G37*
G36*
X143657015Y-83505437D02*
G01*
X143697494Y-83517716D01*
X143734802Y-83537658D01*
X143767504Y-83564496D01*
X143794342Y-83597198D01*
X143814284Y-83634506D01*
X143826563Y-83674985D01*
X143831000Y-83720034D01*
X143831000Y-84681966D01*
X143826563Y-84727015D01*
X143814284Y-84767494D01*
X143794342Y-84804802D01*
X143767504Y-84837504D01*
X143734802Y-84864342D01*
X143697494Y-84884284D01*
X143657015Y-84896563D01*
X143611966Y-84901000D01*
X142900034Y-84901000D01*
X142854985Y-84896563D01*
X142814506Y-84884284D01*
X142777198Y-84864342D01*
X142744496Y-84837504D01*
X142717658Y-84804802D01*
X142697716Y-84767494D01*
X142685437Y-84727015D01*
X142681000Y-84681966D01*
X142681000Y-83720034D01*
X142685437Y-83674985D01*
X142697716Y-83634506D01*
X142717658Y-83597198D01*
X142744496Y-83564496D01*
X142777198Y-83537658D01*
X142814506Y-83517716D01*
X142854985Y-83505437D01*
X142900034Y-83501000D01*
X143611966Y-83501000D01*
X143657015Y-83505437D01*
G37*
G36*
X141607015Y-83505437D02*
G01*
X141647494Y-83517716D01*
X141684802Y-83537658D01*
X141717504Y-83564496D01*
X141744342Y-83597198D01*
X141764284Y-83634506D01*
X141776563Y-83674985D01*
X141781000Y-83720034D01*
X141781000Y-84681966D01*
X141776563Y-84727015D01*
X141764284Y-84767494D01*
X141744342Y-84804802D01*
X141717504Y-84837504D01*
X141684802Y-84864342D01*
X141647494Y-84884284D01*
X141607015Y-84896563D01*
X141561966Y-84901000D01*
X140850034Y-84901000D01*
X140804985Y-84896563D01*
X140764506Y-84884284D01*
X140727198Y-84864342D01*
X140694496Y-84837504D01*
X140667658Y-84804802D01*
X140647716Y-84767494D01*
X140635437Y-84727015D01*
X140631000Y-84681966D01*
X140631000Y-83720034D01*
X140635437Y-83674985D01*
X140647716Y-83634506D01*
X140667658Y-83597198D01*
X140694496Y-83564496D01*
X140727198Y-83537658D01*
X140764506Y-83517716D01*
X140804985Y-83505437D01*
X140850034Y-83501000D01*
X141561966Y-83501000D01*
X141607015Y-83505437D01*
G37*
G36*
X130195015Y-83505437D02*
G01*
X130235494Y-83517716D01*
X130272802Y-83537658D01*
X130305504Y-83564496D01*
X130332342Y-83597198D01*
X130352284Y-83634506D01*
X130364563Y-83674985D01*
X130369000Y-83720034D01*
X130369000Y-84681966D01*
X130364563Y-84727015D01*
X130352284Y-84767494D01*
X130332342Y-84804802D01*
X130305504Y-84837504D01*
X130272802Y-84864342D01*
X130235494Y-84884284D01*
X130195015Y-84896563D01*
X130149966Y-84901000D01*
X129438034Y-84901000D01*
X129392985Y-84896563D01*
X129352506Y-84884284D01*
X129315198Y-84864342D01*
X129282496Y-84837504D01*
X129255658Y-84804802D01*
X129235716Y-84767494D01*
X129223437Y-84727015D01*
X129219000Y-84681966D01*
X129219000Y-83720034D01*
X129223437Y-83674985D01*
X129235716Y-83634506D01*
X129255658Y-83597198D01*
X129282496Y-83564496D01*
X129315198Y-83537658D01*
X129352506Y-83517716D01*
X129392985Y-83505437D01*
X129438034Y-83501000D01*
X130149966Y-83501000D01*
X130195015Y-83505437D01*
G37*
G36*
X132245015Y-83505437D02*
G01*
X132285494Y-83517716D01*
X132322802Y-83537658D01*
X132355504Y-83564496D01*
X132382342Y-83597198D01*
X132402284Y-83634506D01*
X132414563Y-83674985D01*
X132419000Y-83720034D01*
X132419000Y-84681966D01*
X132414563Y-84727015D01*
X132402284Y-84767494D01*
X132382342Y-84804802D01*
X132355504Y-84837504D01*
X132322802Y-84864342D01*
X132285494Y-84884284D01*
X132245015Y-84896563D01*
X132199966Y-84901000D01*
X131488034Y-84901000D01*
X131442985Y-84896563D01*
X131402506Y-84884284D01*
X131365198Y-84864342D01*
X131332496Y-84837504D01*
X131305658Y-84804802D01*
X131285716Y-84767494D01*
X131273437Y-84727015D01*
X131269000Y-84681966D01*
X131269000Y-83720034D01*
X131273437Y-83674985D01*
X131285716Y-83634506D01*
X131305658Y-83597198D01*
X131332496Y-83564496D01*
X131365198Y-83537658D01*
X131402506Y-83517716D01*
X131442985Y-83505437D01*
X131488034Y-83501000D01*
X132199966Y-83501000D01*
X132245015Y-83505437D01*
G37*
G36*
X112837046Y-83447412D02*
G01*
X112886019Y-83452235D01*
X112923717Y-83463671D01*
X112980267Y-83480825D01*
X113067129Y-83527254D01*
X113143264Y-83589736D01*
X113205746Y-83665871D01*
X113252175Y-83752733D01*
X113269329Y-83809283D01*
X113280765Y-83846981D01*
X113290419Y-83945000D01*
X113280765Y-84043019D01*
X113269329Y-84080717D01*
X113252175Y-84137267D01*
X113205746Y-84224129D01*
X113143264Y-84300264D01*
X113067129Y-84362746D01*
X112980267Y-84409175D01*
X112923717Y-84426329D01*
X112886019Y-84437765D01*
X112837046Y-84442588D01*
X112812560Y-84445000D01*
X112163440Y-84445000D01*
X112138954Y-84442588D01*
X112089981Y-84437765D01*
X112052283Y-84426329D01*
X111995733Y-84409175D01*
X111908871Y-84362746D01*
X111832736Y-84300264D01*
X111770254Y-84224129D01*
X111723825Y-84137267D01*
X111706671Y-84080717D01*
X111695235Y-84043019D01*
X111685581Y-83945000D01*
X111695235Y-83846981D01*
X111706671Y-83809283D01*
X111723825Y-83752733D01*
X111770254Y-83665871D01*
X111832736Y-83589736D01*
X111908871Y-83527254D01*
X111995733Y-83480825D01*
X112052283Y-83463671D01*
X112089981Y-83452235D01*
X112138954Y-83447412D01*
X112163440Y-83445000D01*
X112812560Y-83445000D01*
X112837046Y-83447412D01*
G37*
G36*
X117267046Y-83447412D02*
G01*
X117316019Y-83452235D01*
X117353717Y-83463671D01*
X117410267Y-83480825D01*
X117497129Y-83527254D01*
X117573264Y-83589736D01*
X117635746Y-83665871D01*
X117682175Y-83752733D01*
X117699329Y-83809283D01*
X117710765Y-83846981D01*
X117720419Y-83945000D01*
X117710765Y-84043019D01*
X117699329Y-84080717D01*
X117682175Y-84137267D01*
X117635746Y-84224129D01*
X117573264Y-84300264D01*
X117497129Y-84362746D01*
X117410267Y-84409175D01*
X117353717Y-84426329D01*
X117316019Y-84437765D01*
X117267046Y-84442588D01*
X117242560Y-84445000D01*
X116093440Y-84445000D01*
X116068954Y-84442588D01*
X116019981Y-84437765D01*
X115982283Y-84426329D01*
X115925733Y-84409175D01*
X115838871Y-84362746D01*
X115762736Y-84300264D01*
X115700254Y-84224129D01*
X115653825Y-84137267D01*
X115636671Y-84080717D01*
X115625235Y-84043019D01*
X115615581Y-83945000D01*
X115625235Y-83846981D01*
X115636671Y-83809283D01*
X115653825Y-83752733D01*
X115700254Y-83665871D01*
X115762736Y-83589736D01*
X115838871Y-83527254D01*
X115925733Y-83480825D01*
X115982283Y-83463671D01*
X116019981Y-83452235D01*
X116068954Y-83447412D01*
X116093440Y-83445000D01*
X117242560Y-83445000D01*
X117267046Y-83447412D01*
G37*
G36*
X134241015Y-81219437D02*
G01*
X134281494Y-81231716D01*
X134318802Y-81251658D01*
X134351504Y-81278496D01*
X134378342Y-81311198D01*
X134398284Y-81348506D01*
X134410563Y-81388985D01*
X134415000Y-81434034D01*
X134415000Y-82395966D01*
X134410563Y-82441015D01*
X134398284Y-82481494D01*
X134378342Y-82518802D01*
X134351504Y-82551504D01*
X134318802Y-82578342D01*
X134281494Y-82598284D01*
X134241015Y-82610563D01*
X134195966Y-82615000D01*
X133484034Y-82615000D01*
X133438985Y-82610563D01*
X133398506Y-82598284D01*
X133361198Y-82578342D01*
X133328496Y-82551504D01*
X133301658Y-82518802D01*
X133281716Y-82481494D01*
X133269437Y-82441015D01*
X133265000Y-82395966D01*
X133265000Y-81434034D01*
X133269437Y-81388985D01*
X133281716Y-81348506D01*
X133301658Y-81311198D01*
X133328496Y-81278496D01*
X133361198Y-81251658D01*
X133398506Y-81231716D01*
X133438985Y-81219437D01*
X133484034Y-81215000D01*
X134195966Y-81215000D01*
X134241015Y-81219437D01*
G37*
G36*
X121795015Y-81219437D02*
G01*
X121835494Y-81231716D01*
X121872802Y-81251658D01*
X121905504Y-81278496D01*
X121932342Y-81311198D01*
X121952284Y-81348506D01*
X121964563Y-81388985D01*
X121969000Y-81434034D01*
X121969000Y-82395966D01*
X121964563Y-82441015D01*
X121952284Y-82481494D01*
X121932342Y-82518802D01*
X121905504Y-82551504D01*
X121872802Y-82578342D01*
X121835494Y-82598284D01*
X121795015Y-82610563D01*
X121749966Y-82615000D01*
X121038034Y-82615000D01*
X120992985Y-82610563D01*
X120952506Y-82598284D01*
X120915198Y-82578342D01*
X120882496Y-82551504D01*
X120855658Y-82518802D01*
X120835716Y-82481494D01*
X120823437Y-82441015D01*
X120819000Y-82395966D01*
X120819000Y-81434034D01*
X120823437Y-81388985D01*
X120835716Y-81348506D01*
X120855658Y-81311198D01*
X120882496Y-81278496D01*
X120915198Y-81251658D01*
X120952506Y-81231716D01*
X120992985Y-81219437D01*
X121038034Y-81215000D01*
X121749966Y-81215000D01*
X121795015Y-81219437D01*
G37*
G36*
X123845015Y-81219437D02*
G01*
X123885494Y-81231716D01*
X123922802Y-81251658D01*
X123955504Y-81278496D01*
X123982342Y-81311198D01*
X124002284Y-81348506D01*
X124014563Y-81388985D01*
X124019000Y-81434034D01*
X124019000Y-82395966D01*
X124014563Y-82441015D01*
X124002284Y-82481494D01*
X123982342Y-82518802D01*
X123955504Y-82551504D01*
X123922802Y-82578342D01*
X123885494Y-82598284D01*
X123845015Y-82610563D01*
X123799966Y-82615000D01*
X123088034Y-82615000D01*
X123042985Y-82610563D01*
X123002506Y-82598284D01*
X122965198Y-82578342D01*
X122932496Y-82551504D01*
X122905658Y-82518802D01*
X122885716Y-82481494D01*
X122873437Y-82441015D01*
X122869000Y-82395966D01*
X122869000Y-81434034D01*
X122873437Y-81388985D01*
X122885716Y-81348506D01*
X122905658Y-81311198D01*
X122932496Y-81278496D01*
X122965198Y-81251658D01*
X123002506Y-81231716D01*
X123042985Y-81219437D01*
X123088034Y-81215000D01*
X123799966Y-81215000D01*
X123845015Y-81219437D01*
G37*
G36*
X130195015Y-81219437D02*
G01*
X130235494Y-81231716D01*
X130272802Y-81251658D01*
X130305504Y-81278496D01*
X130332342Y-81311198D01*
X130352284Y-81348506D01*
X130364563Y-81388985D01*
X130369000Y-81434034D01*
X130369000Y-82395966D01*
X130364563Y-82441015D01*
X130352284Y-82481494D01*
X130332342Y-82518802D01*
X130305504Y-82551504D01*
X130272802Y-82578342D01*
X130235494Y-82598284D01*
X130195015Y-82610563D01*
X130149966Y-82615000D01*
X129438034Y-82615000D01*
X129392985Y-82610563D01*
X129352506Y-82598284D01*
X129315198Y-82578342D01*
X129282496Y-82551504D01*
X129255658Y-82518802D01*
X129235716Y-82481494D01*
X129223437Y-82441015D01*
X129219000Y-82395966D01*
X129219000Y-81434034D01*
X129223437Y-81388985D01*
X129235716Y-81348506D01*
X129255658Y-81311198D01*
X129282496Y-81278496D01*
X129315198Y-81251658D01*
X129352506Y-81231716D01*
X129392985Y-81219437D01*
X129438034Y-81215000D01*
X130149966Y-81215000D01*
X130195015Y-81219437D01*
G37*
G36*
X132245015Y-81219437D02*
G01*
X132285494Y-81231716D01*
X132322802Y-81251658D01*
X132355504Y-81278496D01*
X132382342Y-81311198D01*
X132402284Y-81348506D01*
X132414563Y-81388985D01*
X132419000Y-81434034D01*
X132419000Y-82395966D01*
X132414563Y-82441015D01*
X132402284Y-82481494D01*
X132382342Y-82518802D01*
X132355504Y-82551504D01*
X132322802Y-82578342D01*
X132285494Y-82598284D01*
X132245015Y-82610563D01*
X132199966Y-82615000D01*
X131488034Y-82615000D01*
X131442985Y-82610563D01*
X131402506Y-82598284D01*
X131365198Y-82578342D01*
X131332496Y-82551504D01*
X131305658Y-82518802D01*
X131285716Y-82481494D01*
X131273437Y-82441015D01*
X131269000Y-82395966D01*
X131269000Y-81434034D01*
X131273437Y-81388985D01*
X131285716Y-81348506D01*
X131305658Y-81311198D01*
X131332496Y-81278496D01*
X131365198Y-81251658D01*
X131402506Y-81231716D01*
X131442985Y-81219437D01*
X131488034Y-81215000D01*
X132199966Y-81215000D01*
X132245015Y-81219437D01*
G37*
G36*
X136291015Y-81219437D02*
G01*
X136331494Y-81231716D01*
X136368802Y-81251658D01*
X136401504Y-81278496D01*
X136428342Y-81311198D01*
X136448284Y-81348506D01*
X136460563Y-81388985D01*
X136465000Y-81434034D01*
X136465000Y-82395966D01*
X136460563Y-82441015D01*
X136448284Y-82481494D01*
X136428342Y-82518802D01*
X136401504Y-82551504D01*
X136368802Y-82578342D01*
X136331494Y-82598284D01*
X136291015Y-82610563D01*
X136245966Y-82615000D01*
X135534034Y-82615000D01*
X135488985Y-82610563D01*
X135448506Y-82598284D01*
X135411198Y-82578342D01*
X135378496Y-82551504D01*
X135351658Y-82518802D01*
X135331716Y-82481494D01*
X135319437Y-82441015D01*
X135315000Y-82395966D01*
X135315000Y-81434034D01*
X135319437Y-81388985D01*
X135331716Y-81348506D01*
X135351658Y-81311198D01*
X135378496Y-81278496D01*
X135411198Y-81251658D01*
X135448506Y-81231716D01*
X135488985Y-81219437D01*
X135534034Y-81215000D01*
X136245966Y-81215000D01*
X136291015Y-81219437D01*
G37*
G36*
X141607015Y-81219437D02*
G01*
X141647494Y-81231716D01*
X141684802Y-81251658D01*
X141717504Y-81278496D01*
X141744342Y-81311198D01*
X141764284Y-81348506D01*
X141776563Y-81388985D01*
X141781000Y-81434034D01*
X141781000Y-82395966D01*
X141776563Y-82441015D01*
X141764284Y-82481494D01*
X141744342Y-82518802D01*
X141717504Y-82551504D01*
X141684802Y-82578342D01*
X141647494Y-82598284D01*
X141607015Y-82610563D01*
X141561966Y-82615000D01*
X140850034Y-82615000D01*
X140804985Y-82610563D01*
X140764506Y-82598284D01*
X140727198Y-82578342D01*
X140694496Y-82551504D01*
X140667658Y-82518802D01*
X140647716Y-82481494D01*
X140635437Y-82441015D01*
X140631000Y-82395966D01*
X140631000Y-81434034D01*
X140635437Y-81388985D01*
X140647716Y-81348506D01*
X140667658Y-81311198D01*
X140694496Y-81278496D01*
X140727198Y-81251658D01*
X140764506Y-81231716D01*
X140804985Y-81219437D01*
X140850034Y-81215000D01*
X141561966Y-81215000D01*
X141607015Y-81219437D01*
G37*
G36*
X143657015Y-81219437D02*
G01*
X143697494Y-81231716D01*
X143734802Y-81251658D01*
X143767504Y-81278496D01*
X143794342Y-81311198D01*
X143814284Y-81348506D01*
X143826563Y-81388985D01*
X143831000Y-81434034D01*
X143831000Y-82395966D01*
X143826563Y-82441015D01*
X143814284Y-82481494D01*
X143794342Y-82518802D01*
X143767504Y-82551504D01*
X143734802Y-82578342D01*
X143697494Y-82598284D01*
X143657015Y-82610563D01*
X143611966Y-82615000D01*
X142900034Y-82615000D01*
X142854985Y-82610563D01*
X142814506Y-82598284D01*
X142777198Y-82578342D01*
X142744496Y-82551504D01*
X142717658Y-82518802D01*
X142697716Y-82481494D01*
X142685437Y-82441015D01*
X142681000Y-82395966D01*
X142681000Y-81434034D01*
X142685437Y-81388985D01*
X142697716Y-81348506D01*
X142717658Y-81311198D01*
X142744496Y-81278496D01*
X142777198Y-81251658D01*
X142814506Y-81231716D01*
X142854985Y-81219437D01*
X142900034Y-81215000D01*
X143611966Y-81215000D01*
X143657015Y-81219437D01*
G37*
G36*
X122103000Y-79735000D02*
G01*
X120553000Y-79735000D01*
X120553000Y-78435000D01*
X122103000Y-78435000D01*
X122103000Y-79735000D01*
G37*
G36*
X114143000Y-79735000D02*
G01*
X112593000Y-79735000D01*
X112593000Y-78435000D01*
X114143000Y-78435000D01*
X114143000Y-79735000D01*
G37*
G36*
X126830713Y-73611089D02*
G01*
X127200513Y-73764265D01*
X127200515Y-73764266D01*
X127456036Y-73935000D01*
X127533325Y-73986643D01*
X127816357Y-74269675D01*
X127816359Y-74269678D01*
X128011347Y-74561497D01*
X128038735Y-74602487D01*
X128191911Y-74972287D01*
X128270000Y-75364865D01*
X128270000Y-75765135D01*
X128191911Y-76157713D01*
X128038735Y-76527513D01*
X128038734Y-76527515D01*
X127819319Y-76855893D01*
X127816357Y-76860325D01*
X127533325Y-77143357D01*
X127533322Y-77143359D01*
X127200515Y-77365734D01*
X127200514Y-77365735D01*
X127200513Y-77365735D01*
X126830713Y-77518911D01*
X126438135Y-77597000D01*
X126037865Y-77597000D01*
X125645287Y-77518911D01*
X125275487Y-77365735D01*
X125275486Y-77365735D01*
X125275485Y-77365734D01*
X124942678Y-77143359D01*
X124942675Y-77143357D01*
X124659643Y-76860325D01*
X124656681Y-76855893D01*
X124437266Y-76527515D01*
X124437265Y-76527513D01*
X124284089Y-76157713D01*
X124206000Y-75765135D01*
X124206000Y-75364865D01*
X124284089Y-74972287D01*
X124437265Y-74602487D01*
X124464654Y-74561497D01*
X124659641Y-74269678D01*
X124659643Y-74269675D01*
X124942675Y-73986643D01*
X125019964Y-73935000D01*
X125275485Y-73764266D01*
X125275487Y-73764265D01*
X125645287Y-73611089D01*
X126037865Y-73533000D01*
X126438135Y-73533000D01*
X126830713Y-73611089D01*
G37*
G36*
X156887294Y-74561496D02*
G01*
X156979200Y-74589376D01*
X157050084Y-74610878D01*
X157169317Y-74674609D01*
X157200111Y-74691069D01*
X157331612Y-74798988D01*
X157439531Y-74930488D01*
X157439533Y-74930492D01*
X157519722Y-75080515D01*
X157541224Y-75151399D01*
X157569104Y-75243305D01*
X157581600Y-75370180D01*
X157581600Y-75759819D01*
X157569104Y-75886694D01*
X157519722Y-76049484D01*
X157519720Y-76049489D01*
X157461874Y-76157711D01*
X157439531Y-76199512D01*
X157331612Y-76331012D01*
X157200112Y-76438931D01*
X157200108Y-76438933D01*
X157050085Y-76519122D01*
X156979201Y-76540624D01*
X156887295Y-76568504D01*
X156718000Y-76585178D01*
X156548706Y-76568504D01*
X156456800Y-76540624D01*
X156385916Y-76519122D01*
X156235893Y-76438933D01*
X156235889Y-76438931D01*
X156104388Y-76331012D01*
X155996469Y-76199512D01*
X155974126Y-76157711D01*
X155916278Y-76049485D01*
X155866897Y-75886697D01*
X155866896Y-75886695D01*
X155854400Y-75759820D01*
X155854400Y-75370181D01*
X155866896Y-75243306D01*
X155916278Y-75080517D01*
X155916278Y-75080516D01*
X155996467Y-74930493D01*
X155996469Y-74930489D01*
X156104388Y-74798988D01*
X156235888Y-74691069D01*
X156266682Y-74674609D01*
X156385915Y-74610878D01*
X156456799Y-74589376D01*
X156548705Y-74561496D01*
X156718000Y-74544822D01*
X156887294Y-74561496D01*
G37*
G36*
X129963294Y-74561496D02*
G01*
X130055200Y-74589376D01*
X130126084Y-74610878D01*
X130245317Y-74674609D01*
X130276111Y-74691069D01*
X130407612Y-74798988D01*
X130515531Y-74930488D01*
X130515533Y-74930492D01*
X130595722Y-75080515D01*
X130617224Y-75151399D01*
X130645104Y-75243305D01*
X130657600Y-75370180D01*
X130657600Y-75759819D01*
X130645104Y-75886694D01*
X130595722Y-76049484D01*
X130595720Y-76049489D01*
X130537874Y-76157711D01*
X130515531Y-76199512D01*
X130407612Y-76331012D01*
X130276112Y-76438931D01*
X130276108Y-76438933D01*
X130126085Y-76519122D01*
X130055201Y-76540624D01*
X129963295Y-76568504D01*
X129794000Y-76585178D01*
X129624706Y-76568504D01*
X129532800Y-76540624D01*
X129461916Y-76519122D01*
X129311893Y-76438933D01*
X129311889Y-76438931D01*
X129180388Y-76331012D01*
X129072469Y-76199512D01*
X129050126Y-76157711D01*
X128992278Y-76049485D01*
X128942897Y-75886697D01*
X128942896Y-75886695D01*
X128930400Y-75759820D01*
X128930400Y-75370181D01*
X128942896Y-75243306D01*
X128992278Y-75080517D01*
X128992278Y-75080516D01*
X129072467Y-74930493D01*
X129072469Y-74930489D01*
X129180388Y-74798988D01*
X129311888Y-74691069D01*
X129342682Y-74674609D01*
X129461915Y-74610878D01*
X129532799Y-74589376D01*
X129624705Y-74561496D01*
X129794000Y-74544822D01*
X129963294Y-74561496D01*
G37*
G36*
X174667294Y-74561496D02*
G01*
X174759200Y-74589376D01*
X174830084Y-74610878D01*
X174949317Y-74674609D01*
X174980111Y-74691069D01*
X175111612Y-74798988D01*
X175219531Y-74930488D01*
X175219533Y-74930492D01*
X175299722Y-75080515D01*
X175321224Y-75151399D01*
X175349104Y-75243305D01*
X175361600Y-75370180D01*
X175361600Y-75759819D01*
X175349104Y-75886694D01*
X175299722Y-76049484D01*
X175299720Y-76049489D01*
X175241874Y-76157711D01*
X175219531Y-76199512D01*
X175111612Y-76331012D01*
X174980112Y-76438931D01*
X174980108Y-76438933D01*
X174830085Y-76519122D01*
X174759201Y-76540624D01*
X174667295Y-76568504D01*
X174498000Y-76585178D01*
X174328706Y-76568504D01*
X174236800Y-76540624D01*
X174165916Y-76519122D01*
X174015893Y-76438933D01*
X174015889Y-76438931D01*
X173884388Y-76331012D01*
X173776469Y-76199512D01*
X173754126Y-76157711D01*
X173696278Y-76049485D01*
X173646897Y-75886697D01*
X173646896Y-75886695D01*
X173634400Y-75759820D01*
X173634400Y-75370181D01*
X173646896Y-75243306D01*
X173696278Y-75080517D01*
X173696278Y-75080516D01*
X173776467Y-74930493D01*
X173776469Y-74930489D01*
X173884388Y-74798988D01*
X174015888Y-74691069D01*
X174046682Y-74674609D01*
X174165915Y-74610878D01*
X174236799Y-74589376D01*
X174328705Y-74561496D01*
X174498000Y-74544822D01*
X174667294Y-74561496D01*
G37*
G36*
X172127294Y-74561496D02*
G01*
X172219200Y-74589376D01*
X172290084Y-74610878D01*
X172409317Y-74674609D01*
X172440111Y-74691069D01*
X172571612Y-74798988D01*
X172679531Y-74930488D01*
X172679533Y-74930492D01*
X172759722Y-75080515D01*
X172781224Y-75151399D01*
X172809104Y-75243305D01*
X172821600Y-75370180D01*
X172821600Y-75759819D01*
X172809104Y-75886694D01*
X172759722Y-76049484D01*
X172759720Y-76049489D01*
X172701874Y-76157711D01*
X172679531Y-76199512D01*
X172571612Y-76331012D01*
X172440112Y-76438931D01*
X172440108Y-76438933D01*
X172290085Y-76519122D01*
X172219201Y-76540624D01*
X172127295Y-76568504D01*
X171958000Y-76585178D01*
X171788706Y-76568504D01*
X171696800Y-76540624D01*
X171625916Y-76519122D01*
X171475893Y-76438933D01*
X171475889Y-76438931D01*
X171344388Y-76331012D01*
X171236469Y-76199512D01*
X171214126Y-76157711D01*
X171156278Y-76049485D01*
X171106897Y-75886697D01*
X171106896Y-75886695D01*
X171094400Y-75759820D01*
X171094400Y-75370181D01*
X171106896Y-75243306D01*
X171156278Y-75080517D01*
X171156278Y-75080516D01*
X171236467Y-74930493D01*
X171236469Y-74930489D01*
X171344388Y-74798988D01*
X171475888Y-74691069D01*
X171506682Y-74674609D01*
X171625915Y-74610878D01*
X171696799Y-74589376D01*
X171788705Y-74561496D01*
X171958000Y-74544822D01*
X172127294Y-74561496D01*
G37*
G36*
X169587294Y-74561496D02*
G01*
X169679200Y-74589376D01*
X169750084Y-74610878D01*
X169869317Y-74674609D01*
X169900111Y-74691069D01*
X170031612Y-74798988D01*
X170139531Y-74930488D01*
X170139533Y-74930492D01*
X170219722Y-75080515D01*
X170241224Y-75151399D01*
X170269104Y-75243305D01*
X170281600Y-75370180D01*
X170281600Y-75759819D01*
X170269104Y-75886694D01*
X170219722Y-76049484D01*
X170219720Y-76049489D01*
X170161874Y-76157711D01*
X170139531Y-76199512D01*
X170031612Y-76331012D01*
X169900112Y-76438931D01*
X169900108Y-76438933D01*
X169750085Y-76519122D01*
X169679201Y-76540624D01*
X169587295Y-76568504D01*
X169418000Y-76585178D01*
X169248706Y-76568504D01*
X169156800Y-76540624D01*
X169085916Y-76519122D01*
X168935893Y-76438933D01*
X168935889Y-76438931D01*
X168804388Y-76331012D01*
X168696469Y-76199512D01*
X168674126Y-76157711D01*
X168616278Y-76049485D01*
X168566897Y-75886697D01*
X168566896Y-75886695D01*
X168554400Y-75759820D01*
X168554400Y-75370181D01*
X168566896Y-75243306D01*
X168616278Y-75080517D01*
X168616278Y-75080516D01*
X168696467Y-74930493D01*
X168696469Y-74930489D01*
X168804388Y-74798988D01*
X168935888Y-74691069D01*
X168966682Y-74674609D01*
X169085915Y-74610878D01*
X169156799Y-74589376D01*
X169248705Y-74561496D01*
X169418000Y-74544822D01*
X169587294Y-74561496D01*
G37*
G36*
X167047294Y-74561496D02*
G01*
X167139200Y-74589376D01*
X167210084Y-74610878D01*
X167329317Y-74674609D01*
X167360111Y-74691069D01*
X167491612Y-74798988D01*
X167599531Y-74930488D01*
X167599533Y-74930492D01*
X167679722Y-75080515D01*
X167701224Y-75151399D01*
X167729104Y-75243305D01*
X167741600Y-75370180D01*
X167741600Y-75759819D01*
X167729104Y-75886694D01*
X167679722Y-76049484D01*
X167679720Y-76049489D01*
X167621874Y-76157711D01*
X167599531Y-76199512D01*
X167491612Y-76331012D01*
X167360112Y-76438931D01*
X167360108Y-76438933D01*
X167210085Y-76519122D01*
X167139201Y-76540624D01*
X167047295Y-76568504D01*
X166878000Y-76585178D01*
X166708706Y-76568504D01*
X166616800Y-76540624D01*
X166545916Y-76519122D01*
X166395893Y-76438933D01*
X166395889Y-76438931D01*
X166264388Y-76331012D01*
X166156469Y-76199512D01*
X166134126Y-76157711D01*
X166076278Y-76049485D01*
X166026897Y-75886697D01*
X166026896Y-75886695D01*
X166014400Y-75759820D01*
X166014400Y-75370181D01*
X166026896Y-75243306D01*
X166076278Y-75080517D01*
X166076278Y-75080516D01*
X166156467Y-74930493D01*
X166156469Y-74930489D01*
X166264388Y-74798988D01*
X166395888Y-74691069D01*
X166426682Y-74674609D01*
X166545915Y-74610878D01*
X166616799Y-74589376D01*
X166708705Y-74561496D01*
X166878000Y-74544822D01*
X167047294Y-74561496D01*
G37*
G36*
X164507294Y-74561496D02*
G01*
X164599200Y-74589376D01*
X164670084Y-74610878D01*
X164789317Y-74674609D01*
X164820111Y-74691069D01*
X164951612Y-74798988D01*
X165059531Y-74930488D01*
X165059533Y-74930492D01*
X165139722Y-75080515D01*
X165161224Y-75151399D01*
X165189104Y-75243305D01*
X165201600Y-75370180D01*
X165201600Y-75759819D01*
X165189104Y-75886694D01*
X165139722Y-76049484D01*
X165139720Y-76049489D01*
X165081874Y-76157711D01*
X165059531Y-76199512D01*
X164951612Y-76331012D01*
X164820112Y-76438931D01*
X164820108Y-76438933D01*
X164670085Y-76519122D01*
X164599201Y-76540624D01*
X164507295Y-76568504D01*
X164338000Y-76585178D01*
X164168706Y-76568504D01*
X164076800Y-76540624D01*
X164005916Y-76519122D01*
X163855893Y-76438933D01*
X163855889Y-76438931D01*
X163724388Y-76331012D01*
X163616469Y-76199512D01*
X163594126Y-76157711D01*
X163536278Y-76049485D01*
X163486897Y-75886697D01*
X163486896Y-75886695D01*
X163474400Y-75759820D01*
X163474400Y-75370181D01*
X163486896Y-75243306D01*
X163536278Y-75080517D01*
X163536278Y-75080516D01*
X163616467Y-74930493D01*
X163616469Y-74930489D01*
X163724388Y-74798988D01*
X163855888Y-74691069D01*
X163886682Y-74674609D01*
X164005915Y-74610878D01*
X164076799Y-74589376D01*
X164168705Y-74561496D01*
X164338000Y-74544822D01*
X164507294Y-74561496D01*
G37*
G36*
X132503294Y-74561496D02*
G01*
X132595200Y-74589376D01*
X132666084Y-74610878D01*
X132785317Y-74674609D01*
X132816111Y-74691069D01*
X132947612Y-74798988D01*
X133055531Y-74930488D01*
X133055533Y-74930492D01*
X133135722Y-75080515D01*
X133157224Y-75151399D01*
X133185104Y-75243305D01*
X133197600Y-75370180D01*
X133197600Y-75759819D01*
X133185104Y-75886694D01*
X133135722Y-76049484D01*
X133135720Y-76049489D01*
X133077874Y-76157711D01*
X133055531Y-76199512D01*
X132947612Y-76331012D01*
X132816112Y-76438931D01*
X132816108Y-76438933D01*
X132666085Y-76519122D01*
X132595201Y-76540624D01*
X132503295Y-76568504D01*
X132334000Y-76585178D01*
X132164706Y-76568504D01*
X132072800Y-76540624D01*
X132001916Y-76519122D01*
X131851893Y-76438933D01*
X131851889Y-76438931D01*
X131720388Y-76331012D01*
X131612469Y-76199512D01*
X131590126Y-76157711D01*
X131532278Y-76049485D01*
X131482897Y-75886697D01*
X131482896Y-75886695D01*
X131470400Y-75759820D01*
X131470400Y-75370181D01*
X131482896Y-75243306D01*
X131532278Y-75080517D01*
X131532278Y-75080516D01*
X131612467Y-74930493D01*
X131612469Y-74930489D01*
X131720388Y-74798988D01*
X131851888Y-74691069D01*
X131882682Y-74674609D01*
X132001915Y-74610878D01*
X132072799Y-74589376D01*
X132164705Y-74561496D01*
X132334000Y-74544822D01*
X132503294Y-74561496D01*
G37*
G36*
X159427294Y-74561496D02*
G01*
X159519200Y-74589376D01*
X159590084Y-74610878D01*
X159709317Y-74674609D01*
X159740111Y-74691069D01*
X159871612Y-74798988D01*
X159979531Y-74930488D01*
X159979533Y-74930492D01*
X160059722Y-75080515D01*
X160081224Y-75151399D01*
X160109104Y-75243305D01*
X160121600Y-75370180D01*
X160121600Y-75759819D01*
X160109104Y-75886694D01*
X160059722Y-76049484D01*
X160059720Y-76049489D01*
X160001874Y-76157711D01*
X159979531Y-76199512D01*
X159871612Y-76331012D01*
X159740112Y-76438931D01*
X159740108Y-76438933D01*
X159590085Y-76519122D01*
X159519201Y-76540624D01*
X159427295Y-76568504D01*
X159258000Y-76585178D01*
X159088706Y-76568504D01*
X158996800Y-76540624D01*
X158925916Y-76519122D01*
X158775893Y-76438933D01*
X158775889Y-76438931D01*
X158644388Y-76331012D01*
X158536469Y-76199512D01*
X158514126Y-76157711D01*
X158456278Y-76049485D01*
X158406897Y-75886697D01*
X158406896Y-75886695D01*
X158394400Y-75759820D01*
X158394400Y-75370181D01*
X158406896Y-75243306D01*
X158456278Y-75080517D01*
X158456278Y-75080516D01*
X158536467Y-74930493D01*
X158536469Y-74930489D01*
X158644388Y-74798988D01*
X158775888Y-74691069D01*
X158806682Y-74674609D01*
X158925915Y-74610878D01*
X158996799Y-74589376D01*
X159088705Y-74561496D01*
X159258000Y-74544822D01*
X159427294Y-74561496D01*
G37*
G36*
X152823294Y-74561496D02*
G01*
X152915200Y-74589376D01*
X152986084Y-74610878D01*
X153105317Y-74674609D01*
X153136111Y-74691069D01*
X153267612Y-74798988D01*
X153375531Y-74930488D01*
X153375533Y-74930492D01*
X153455722Y-75080515D01*
X153477224Y-75151399D01*
X153505104Y-75243305D01*
X153517600Y-75370180D01*
X153517600Y-75759819D01*
X153505104Y-75886694D01*
X153455722Y-76049484D01*
X153455720Y-76049489D01*
X153397874Y-76157711D01*
X153375531Y-76199512D01*
X153267612Y-76331012D01*
X153136112Y-76438931D01*
X153136108Y-76438933D01*
X152986085Y-76519122D01*
X152915201Y-76540624D01*
X152823295Y-76568504D01*
X152654000Y-76585178D01*
X152484706Y-76568504D01*
X152392800Y-76540624D01*
X152321916Y-76519122D01*
X152171893Y-76438933D01*
X152171889Y-76438931D01*
X152040388Y-76331012D01*
X151932469Y-76199512D01*
X151910126Y-76157711D01*
X151852278Y-76049485D01*
X151802897Y-75886697D01*
X151802896Y-75886695D01*
X151790400Y-75759820D01*
X151790400Y-75370181D01*
X151802896Y-75243306D01*
X151852278Y-75080517D01*
X151852278Y-75080516D01*
X151932467Y-74930493D01*
X151932469Y-74930489D01*
X152040388Y-74798988D01*
X152171888Y-74691069D01*
X152202682Y-74674609D01*
X152321915Y-74610878D01*
X152392799Y-74589376D01*
X152484705Y-74561496D01*
X152654000Y-74544822D01*
X152823294Y-74561496D01*
G37*
G36*
X150283294Y-74561496D02*
G01*
X150375200Y-74589376D01*
X150446084Y-74610878D01*
X150565317Y-74674609D01*
X150596111Y-74691069D01*
X150727612Y-74798988D01*
X150835531Y-74930488D01*
X150835533Y-74930492D01*
X150915722Y-75080515D01*
X150937224Y-75151399D01*
X150965104Y-75243305D01*
X150977600Y-75370180D01*
X150977600Y-75759819D01*
X150965104Y-75886694D01*
X150915722Y-76049484D01*
X150915720Y-76049489D01*
X150857874Y-76157711D01*
X150835531Y-76199512D01*
X150727612Y-76331012D01*
X150596112Y-76438931D01*
X150596108Y-76438933D01*
X150446085Y-76519122D01*
X150375201Y-76540624D01*
X150283295Y-76568504D01*
X150114000Y-76585178D01*
X149944706Y-76568504D01*
X149852800Y-76540624D01*
X149781916Y-76519122D01*
X149631893Y-76438933D01*
X149631889Y-76438931D01*
X149500388Y-76331012D01*
X149392469Y-76199512D01*
X149370126Y-76157711D01*
X149312278Y-76049485D01*
X149262897Y-75886697D01*
X149262896Y-75886695D01*
X149250400Y-75759820D01*
X149250400Y-75370181D01*
X149262896Y-75243306D01*
X149312278Y-75080517D01*
X149312278Y-75080516D01*
X149392467Y-74930493D01*
X149392469Y-74930489D01*
X149500388Y-74798988D01*
X149631888Y-74691069D01*
X149662682Y-74674609D01*
X149781915Y-74610878D01*
X149852799Y-74589376D01*
X149944705Y-74561496D01*
X150114000Y-74544822D01*
X150283294Y-74561496D01*
G37*
G36*
X147743294Y-74561496D02*
G01*
X147835200Y-74589376D01*
X147906084Y-74610878D01*
X148025317Y-74674609D01*
X148056111Y-74691069D01*
X148187612Y-74798988D01*
X148295531Y-74930488D01*
X148295533Y-74930492D01*
X148375722Y-75080515D01*
X148397224Y-75151399D01*
X148425104Y-75243305D01*
X148437600Y-75370180D01*
X148437600Y-75759819D01*
X148425104Y-75886694D01*
X148375722Y-76049484D01*
X148375720Y-76049489D01*
X148317874Y-76157711D01*
X148295531Y-76199512D01*
X148187612Y-76331012D01*
X148056112Y-76438931D01*
X148056108Y-76438933D01*
X147906085Y-76519122D01*
X147835201Y-76540624D01*
X147743295Y-76568504D01*
X147574000Y-76585178D01*
X147404706Y-76568504D01*
X147312800Y-76540624D01*
X147241916Y-76519122D01*
X147091893Y-76438933D01*
X147091889Y-76438931D01*
X146960388Y-76331012D01*
X146852469Y-76199512D01*
X146830126Y-76157711D01*
X146772278Y-76049485D01*
X146722897Y-75886697D01*
X146722896Y-75886695D01*
X146710400Y-75759820D01*
X146710400Y-75370181D01*
X146722896Y-75243306D01*
X146772278Y-75080517D01*
X146772278Y-75080516D01*
X146852467Y-74930493D01*
X146852469Y-74930489D01*
X146960388Y-74798988D01*
X147091888Y-74691069D01*
X147122682Y-74674609D01*
X147241915Y-74610878D01*
X147312799Y-74589376D01*
X147404705Y-74561496D01*
X147574000Y-74544822D01*
X147743294Y-74561496D01*
G37*
G36*
X145203294Y-74561496D02*
G01*
X145295200Y-74589376D01*
X145366084Y-74610878D01*
X145485317Y-74674609D01*
X145516111Y-74691069D01*
X145647612Y-74798988D01*
X145755531Y-74930488D01*
X145755533Y-74930492D01*
X145835722Y-75080515D01*
X145857224Y-75151399D01*
X145885104Y-75243305D01*
X145897600Y-75370180D01*
X145897600Y-75759819D01*
X145885104Y-75886694D01*
X145835722Y-76049484D01*
X145835720Y-76049489D01*
X145777874Y-76157711D01*
X145755531Y-76199512D01*
X145647612Y-76331012D01*
X145516112Y-76438931D01*
X145516108Y-76438933D01*
X145366085Y-76519122D01*
X145295201Y-76540624D01*
X145203295Y-76568504D01*
X145034000Y-76585178D01*
X144864706Y-76568504D01*
X144772800Y-76540624D01*
X144701916Y-76519122D01*
X144551893Y-76438933D01*
X144551889Y-76438931D01*
X144420388Y-76331012D01*
X144312469Y-76199512D01*
X144290126Y-76157711D01*
X144232278Y-76049485D01*
X144182897Y-75886697D01*
X144182896Y-75886695D01*
X144170400Y-75759820D01*
X144170400Y-75370181D01*
X144182896Y-75243306D01*
X144232278Y-75080517D01*
X144232278Y-75080516D01*
X144312467Y-74930493D01*
X144312469Y-74930489D01*
X144420388Y-74798988D01*
X144551888Y-74691069D01*
X144582682Y-74674609D01*
X144701915Y-74610878D01*
X144772799Y-74589376D01*
X144864705Y-74561496D01*
X145034000Y-74544822D01*
X145203294Y-74561496D01*
G37*
G36*
X142663294Y-74561496D02*
G01*
X142755200Y-74589376D01*
X142826084Y-74610878D01*
X142945317Y-74674609D01*
X142976111Y-74691069D01*
X143107612Y-74798988D01*
X143215531Y-74930488D01*
X143215533Y-74930492D01*
X143295722Y-75080515D01*
X143317224Y-75151399D01*
X143345104Y-75243305D01*
X143357600Y-75370180D01*
X143357600Y-75759819D01*
X143345104Y-75886694D01*
X143295722Y-76049484D01*
X143295720Y-76049489D01*
X143237874Y-76157711D01*
X143215531Y-76199512D01*
X143107612Y-76331012D01*
X142976112Y-76438931D01*
X142976108Y-76438933D01*
X142826085Y-76519122D01*
X142755201Y-76540624D01*
X142663295Y-76568504D01*
X142494000Y-76585178D01*
X142324706Y-76568504D01*
X142232800Y-76540624D01*
X142161916Y-76519122D01*
X142011893Y-76438933D01*
X142011889Y-76438931D01*
X141880388Y-76331012D01*
X141772469Y-76199512D01*
X141750126Y-76157711D01*
X141692278Y-76049485D01*
X141642897Y-75886697D01*
X141642896Y-75886695D01*
X141630400Y-75759820D01*
X141630400Y-75370181D01*
X141642896Y-75243306D01*
X141692278Y-75080517D01*
X141692278Y-75080516D01*
X141772467Y-74930493D01*
X141772469Y-74930489D01*
X141880388Y-74798988D01*
X142011888Y-74691069D01*
X142042682Y-74674609D01*
X142161915Y-74610878D01*
X142232799Y-74589376D01*
X142324705Y-74561496D01*
X142494000Y-74544822D01*
X142663294Y-74561496D01*
G37*
G36*
X140123294Y-74561496D02*
G01*
X140215200Y-74589376D01*
X140286084Y-74610878D01*
X140405317Y-74674609D01*
X140436111Y-74691069D01*
X140567612Y-74798988D01*
X140675531Y-74930488D01*
X140675533Y-74930492D01*
X140755722Y-75080515D01*
X140777224Y-75151399D01*
X140805104Y-75243305D01*
X140817600Y-75370180D01*
X140817600Y-75759819D01*
X140805104Y-75886694D01*
X140755722Y-76049484D01*
X140755720Y-76049489D01*
X140697874Y-76157711D01*
X140675531Y-76199512D01*
X140567612Y-76331012D01*
X140436112Y-76438931D01*
X140436108Y-76438933D01*
X140286085Y-76519122D01*
X140215201Y-76540624D01*
X140123295Y-76568504D01*
X139954000Y-76585178D01*
X139784706Y-76568504D01*
X139692800Y-76540624D01*
X139621916Y-76519122D01*
X139471893Y-76438933D01*
X139471889Y-76438931D01*
X139340388Y-76331012D01*
X139232469Y-76199512D01*
X139210126Y-76157711D01*
X139152278Y-76049485D01*
X139102897Y-75886697D01*
X139102896Y-75886695D01*
X139090400Y-75759820D01*
X139090400Y-75370181D01*
X139102896Y-75243306D01*
X139152278Y-75080517D01*
X139152278Y-75080516D01*
X139232467Y-74930493D01*
X139232469Y-74930489D01*
X139340388Y-74798988D01*
X139471888Y-74691069D01*
X139502682Y-74674609D01*
X139621915Y-74610878D01*
X139692799Y-74589376D01*
X139784705Y-74561496D01*
X139954000Y-74544822D01*
X140123294Y-74561496D01*
G37*
G36*
X137583294Y-74561496D02*
G01*
X137675200Y-74589376D01*
X137746084Y-74610878D01*
X137865317Y-74674609D01*
X137896111Y-74691069D01*
X138027612Y-74798988D01*
X138135531Y-74930488D01*
X138135533Y-74930492D01*
X138215722Y-75080515D01*
X138237224Y-75151399D01*
X138265104Y-75243305D01*
X138277600Y-75370180D01*
X138277600Y-75759819D01*
X138265104Y-75886694D01*
X138215722Y-76049484D01*
X138215720Y-76049489D01*
X138157874Y-76157711D01*
X138135531Y-76199512D01*
X138027612Y-76331012D01*
X137896112Y-76438931D01*
X137896108Y-76438933D01*
X137746085Y-76519122D01*
X137675201Y-76540624D01*
X137583295Y-76568504D01*
X137414000Y-76585178D01*
X137244706Y-76568504D01*
X137152800Y-76540624D01*
X137081916Y-76519122D01*
X136931893Y-76438933D01*
X136931889Y-76438931D01*
X136800388Y-76331012D01*
X136692469Y-76199512D01*
X136670126Y-76157711D01*
X136612278Y-76049485D01*
X136562897Y-75886697D01*
X136562896Y-75886695D01*
X136550400Y-75759820D01*
X136550400Y-75370181D01*
X136562896Y-75243306D01*
X136612278Y-75080517D01*
X136612278Y-75080516D01*
X136692467Y-74930493D01*
X136692469Y-74930489D01*
X136800388Y-74798988D01*
X136931888Y-74691069D01*
X136962682Y-74674609D01*
X137081915Y-74610878D01*
X137152799Y-74589376D01*
X137244705Y-74561496D01*
X137414000Y-74544822D01*
X137583294Y-74561496D01*
G37*
G36*
X135043294Y-74561496D02*
G01*
X135135200Y-74589376D01*
X135206084Y-74610878D01*
X135325317Y-74674609D01*
X135356111Y-74691069D01*
X135487612Y-74798988D01*
X135595531Y-74930488D01*
X135595533Y-74930492D01*
X135675722Y-75080515D01*
X135697224Y-75151399D01*
X135725104Y-75243305D01*
X135737600Y-75370180D01*
X135737600Y-75759819D01*
X135725104Y-75886694D01*
X135675722Y-76049484D01*
X135675720Y-76049489D01*
X135617874Y-76157711D01*
X135595531Y-76199512D01*
X135487612Y-76331012D01*
X135356112Y-76438931D01*
X135356108Y-76438933D01*
X135206085Y-76519122D01*
X135135201Y-76540624D01*
X135043295Y-76568504D01*
X134874000Y-76585178D01*
X134704706Y-76568504D01*
X134612800Y-76540624D01*
X134541916Y-76519122D01*
X134391893Y-76438933D01*
X134391889Y-76438931D01*
X134260388Y-76331012D01*
X134152469Y-76199512D01*
X134130126Y-76157711D01*
X134072278Y-76049485D01*
X134022897Y-75886697D01*
X134022896Y-75886695D01*
X134010400Y-75759820D01*
X134010400Y-75370181D01*
X134022896Y-75243306D01*
X134072278Y-75080517D01*
X134072278Y-75080516D01*
X134152467Y-74930493D01*
X134152469Y-74930489D01*
X134260388Y-74798988D01*
X134391888Y-74691069D01*
X134422682Y-74674609D01*
X134541915Y-74610878D01*
X134612799Y-74589376D01*
X134704705Y-74561496D01*
X134874000Y-74544822D01*
X135043294Y-74561496D01*
G37*
G36*
X161967294Y-74561496D02*
G01*
X162059200Y-74589376D01*
X162130084Y-74610878D01*
X162249317Y-74674609D01*
X162280111Y-74691069D01*
X162411612Y-74798988D01*
X162519531Y-74930488D01*
X162519533Y-74930492D01*
X162599722Y-75080515D01*
X162621224Y-75151399D01*
X162649104Y-75243305D01*
X162661600Y-75370180D01*
X162661600Y-75759819D01*
X162649104Y-75886694D01*
X162599722Y-76049484D01*
X162599720Y-76049489D01*
X162541874Y-76157711D01*
X162519531Y-76199512D01*
X162411612Y-76331012D01*
X162280112Y-76438931D01*
X162280108Y-76438933D01*
X162130085Y-76519122D01*
X162059201Y-76540624D01*
X161967295Y-76568504D01*
X161798000Y-76585178D01*
X161628706Y-76568504D01*
X161536800Y-76540624D01*
X161465916Y-76519122D01*
X161315893Y-76438933D01*
X161315889Y-76438931D01*
X161184388Y-76331012D01*
X161076469Y-76199512D01*
X161054126Y-76157711D01*
X160996278Y-76049485D01*
X160946897Y-75886697D01*
X160946896Y-75886695D01*
X160934400Y-75759820D01*
X160934400Y-75370181D01*
X160946896Y-75243306D01*
X160996278Y-75080517D01*
X160996278Y-75080516D01*
X161076467Y-74930493D01*
X161076469Y-74930489D01*
X161184388Y-74798988D01*
X161315888Y-74691069D01*
X161346682Y-74674609D01*
X161465915Y-74610878D01*
X161536799Y-74589376D01*
X161628705Y-74561496D01*
X161798000Y-74544822D01*
X161967294Y-74561496D01*
G37*
G36*
X122103000Y-75235000D02*
G01*
X120553000Y-75235000D01*
X120553000Y-73935000D01*
X122103000Y-73935000D01*
X122103000Y-75235000D01*
G37*
G36*
X114143000Y-75235000D02*
G01*
X112593000Y-75235000D01*
X112593000Y-73935000D01*
X114143000Y-73935000D01*
X114143000Y-75235000D01*
G37*
M02*
