%TF.GenerationSoftware,KiCad,Pcbnew,5.1.6*%
%TF.CreationDate,2020-09-23T15:23:14+12:00*%
%TF.ProjectId,dumbuino,64756d62-7569-46e6-9f2e-6b696361645f,v01*%
%TF.SameCoordinates,Original*%
%TF.FileFunction,Legend,Top*%
%TF.FilePolarity,Positive*%
%FSLAX46Y46*%
G04 Gerber Fmt 4.6, Leading zero omitted, Abs format (unit mm)*
G04 Created by KiCad (PCBNEW 5.1.6) date 2020-09-23 15:23:14*
%MOMM*%
%LPD*%
G01*
G04 APERTURE LIST*
%ADD10C,0.152400*%
%ADD11C,0.200000*%
%ADD12C,0.150000*%
%ADD13C,0.120000*%
G04 APERTURE END LIST*
D10*
X157147380Y-89741828D02*
X157340904Y-90283695D01*
X157534428Y-89741828D01*
X157998885Y-89470895D02*
X158076295Y-89470895D01*
X158153704Y-89509600D01*
X158192409Y-89548304D01*
X158231114Y-89625714D01*
X158269819Y-89780533D01*
X158269819Y-89974057D01*
X158231114Y-90128876D01*
X158192409Y-90206285D01*
X158153704Y-90244990D01*
X158076295Y-90283695D01*
X157998885Y-90283695D01*
X157921476Y-90244990D01*
X157882771Y-90206285D01*
X157844066Y-90128876D01*
X157805361Y-89974057D01*
X157805361Y-89780533D01*
X157844066Y-89625714D01*
X157882771Y-89548304D01*
X157921476Y-89509600D01*
X157998885Y-89470895D01*
X159043914Y-90283695D02*
X158579457Y-90283695D01*
X158811685Y-90283695D02*
X158811685Y-89470895D01*
X158734276Y-89587009D01*
X158656866Y-89664419D01*
X158579457Y-89703123D01*
X178128990Y-112143298D02*
X178167695Y-112027183D01*
X178167695Y-111833660D01*
X178128990Y-111756250D01*
X178090285Y-111717545D01*
X178012876Y-111678840D01*
X177935466Y-111678840D01*
X177858057Y-111717545D01*
X177819352Y-111756250D01*
X177780647Y-111833660D01*
X177741942Y-111988479D01*
X177703238Y-112065888D01*
X177664533Y-112104593D01*
X177587123Y-112143298D01*
X177509714Y-112143298D01*
X177432304Y-112104593D01*
X177393600Y-112065888D01*
X177354895Y-111988479D01*
X177354895Y-111794955D01*
X177393600Y-111678840D01*
X178128990Y-111020860D02*
X178167695Y-111098269D01*
X178167695Y-111253088D01*
X178128990Y-111330498D01*
X178051580Y-111369202D01*
X177741942Y-111369202D01*
X177664533Y-111330498D01*
X177625828Y-111253088D01*
X177625828Y-111098269D01*
X177664533Y-111020860D01*
X177741942Y-110982155D01*
X177819352Y-110982155D01*
X177896761Y-111369202D01*
X178167695Y-110633812D02*
X177354895Y-110633812D01*
X177664533Y-110633812D02*
X177625828Y-110556402D01*
X177625828Y-110401583D01*
X177664533Y-110324174D01*
X177703238Y-110285469D01*
X177780647Y-110246764D01*
X178012876Y-110246764D01*
X178090285Y-110285469D01*
X178128990Y-110324174D01*
X178167695Y-110401583D01*
X178167695Y-110556402D01*
X178128990Y-110633812D01*
X178167695Y-109550079D02*
X177741942Y-109550079D01*
X177664533Y-109588783D01*
X177625828Y-109666193D01*
X177625828Y-109821012D01*
X177664533Y-109898421D01*
X178128990Y-109550079D02*
X178167695Y-109627488D01*
X178167695Y-109821012D01*
X178128990Y-109898421D01*
X178051580Y-109937126D01*
X177974171Y-109937126D01*
X177896761Y-109898421D01*
X177858057Y-109821012D01*
X177858057Y-109627488D01*
X177819352Y-109550079D01*
X178128990Y-109201736D02*
X178167695Y-109124326D01*
X178167695Y-108969507D01*
X178128990Y-108892098D01*
X178051580Y-108853393D01*
X178012876Y-108853393D01*
X177935466Y-108892098D01*
X177896761Y-108969507D01*
X177896761Y-109085621D01*
X177858057Y-109163031D01*
X177780647Y-109201736D01*
X177741942Y-109201736D01*
X177664533Y-109163031D01*
X177625828Y-109085621D01*
X177625828Y-108969507D01*
X177664533Y-108892098D01*
X177625828Y-108621164D02*
X177625828Y-108311526D01*
X177354895Y-108505050D02*
X178051580Y-108505050D01*
X178128990Y-108466345D01*
X178167695Y-108388936D01*
X178167695Y-108311526D01*
X178167695Y-108040593D02*
X177625828Y-108040593D01*
X177354895Y-108040593D02*
X177393600Y-108079298D01*
X177432304Y-108040593D01*
X177393600Y-108001888D01*
X177354895Y-108040593D01*
X177432304Y-108040593D01*
X178167695Y-107305202D02*
X177741942Y-107305202D01*
X177664533Y-107343907D01*
X177625828Y-107421317D01*
X177625828Y-107576136D01*
X177664533Y-107653545D01*
X178128990Y-107305202D02*
X178167695Y-107382612D01*
X178167695Y-107576136D01*
X178128990Y-107653545D01*
X178051580Y-107692250D01*
X177974171Y-107692250D01*
X177896761Y-107653545D01*
X177858057Y-107576136D01*
X177858057Y-107382612D01*
X177819352Y-107305202D01*
X177625828Y-106918155D02*
X178167695Y-106918155D01*
X177703238Y-106918155D02*
X177664533Y-106879450D01*
X177625828Y-106802040D01*
X177625828Y-106685926D01*
X177664533Y-106608517D01*
X177741942Y-106569812D01*
X178167695Y-106569812D01*
X178128990Y-105602193D02*
X178167695Y-105486079D01*
X178167695Y-105292555D01*
X178128990Y-105215145D01*
X178090285Y-105176440D01*
X178012876Y-105137736D01*
X177935466Y-105137736D01*
X177858057Y-105176440D01*
X177819352Y-105215145D01*
X177780647Y-105292555D01*
X177741942Y-105447374D01*
X177703238Y-105524783D01*
X177664533Y-105563488D01*
X177587123Y-105602193D01*
X177509714Y-105602193D01*
X177432304Y-105563488D01*
X177393600Y-105524783D01*
X177354895Y-105447374D01*
X177354895Y-105253850D01*
X177393600Y-105137736D01*
X178167695Y-104673279D02*
X178128990Y-104750688D01*
X178090285Y-104789393D01*
X178012876Y-104828098D01*
X177780647Y-104828098D01*
X177703238Y-104789393D01*
X177664533Y-104750688D01*
X177625828Y-104673279D01*
X177625828Y-104557164D01*
X177664533Y-104479755D01*
X177703238Y-104441050D01*
X177780647Y-104402345D01*
X178012876Y-104402345D01*
X178090285Y-104441050D01*
X178128990Y-104479755D01*
X178167695Y-104557164D01*
X178167695Y-104673279D01*
X178167695Y-103937888D02*
X178128990Y-104015298D01*
X178051580Y-104054002D01*
X177354895Y-104054002D01*
X178128990Y-103318612D02*
X178167695Y-103396021D01*
X178167695Y-103550840D01*
X178128990Y-103628250D01*
X178051580Y-103666955D01*
X177741942Y-103666955D01*
X177664533Y-103628250D01*
X177625828Y-103550840D01*
X177625828Y-103396021D01*
X177664533Y-103318612D01*
X177741942Y-103279907D01*
X177819352Y-103279907D01*
X177896761Y-103666955D01*
X178438628Y-102118764D02*
X177277485Y-102118764D01*
X177432304Y-100957621D02*
X177393600Y-100918917D01*
X177354895Y-100841507D01*
X177354895Y-100647983D01*
X177393600Y-100570574D01*
X177432304Y-100531869D01*
X177509714Y-100493164D01*
X177587123Y-100493164D01*
X177703238Y-100531869D01*
X178167695Y-100996326D01*
X178167695Y-100493164D01*
X177354895Y-99990002D02*
X177354895Y-99912593D01*
X177393600Y-99835183D01*
X177432304Y-99796479D01*
X177509714Y-99757774D01*
X177664533Y-99719069D01*
X177858057Y-99719069D01*
X178012876Y-99757774D01*
X178090285Y-99796479D01*
X178128990Y-99835183D01*
X178167695Y-99912593D01*
X178167695Y-99990002D01*
X178128990Y-100067412D01*
X178090285Y-100106117D01*
X178012876Y-100144821D01*
X177858057Y-100183526D01*
X177664533Y-100183526D01*
X177509714Y-100144821D01*
X177432304Y-100106117D01*
X177393600Y-100067412D01*
X177354895Y-99990002D01*
X177432304Y-99409431D02*
X177393600Y-99370726D01*
X177354895Y-99293317D01*
X177354895Y-99099793D01*
X177393600Y-99022383D01*
X177432304Y-98983679D01*
X177509714Y-98944974D01*
X177587123Y-98944974D01*
X177703238Y-98983679D01*
X178167695Y-99448136D01*
X178167695Y-98944974D01*
X177354895Y-98441812D02*
X177354895Y-98364402D01*
X177393600Y-98286993D01*
X177432304Y-98248288D01*
X177509714Y-98209583D01*
X177664533Y-98170879D01*
X177858057Y-98170879D01*
X178012876Y-98209583D01*
X178090285Y-98248288D01*
X178128990Y-98286993D01*
X178167695Y-98364402D01*
X178167695Y-98441812D01*
X178128990Y-98519221D01*
X178090285Y-98557926D01*
X178012876Y-98596631D01*
X177858057Y-98635336D01*
X177664533Y-98635336D01*
X177509714Y-98596631D01*
X177432304Y-98557926D01*
X177393600Y-98519221D01*
X177354895Y-98441812D01*
D11*
X144431666Y-88788761D02*
X144431666Y-86788761D01*
X144907857Y-86788761D01*
X145193571Y-86884000D01*
X145384047Y-87074476D01*
X145479285Y-87264952D01*
X145574523Y-87645904D01*
X145574523Y-87931619D01*
X145479285Y-88312571D01*
X145384047Y-88503047D01*
X145193571Y-88693523D01*
X144907857Y-88788761D01*
X144431666Y-88788761D01*
X146431666Y-86788761D02*
X146431666Y-88407809D01*
X146526904Y-88598285D01*
X146622142Y-88693523D01*
X146812619Y-88788761D01*
X147193571Y-88788761D01*
X147384047Y-88693523D01*
X147479285Y-88598285D01*
X147574523Y-88407809D01*
X147574523Y-86788761D01*
X148526904Y-88788761D02*
X148526904Y-86788761D01*
X149193571Y-88217333D01*
X149860238Y-86788761D01*
X149860238Y-88788761D01*
X151479285Y-87741142D02*
X151765000Y-87836380D01*
X151860238Y-87931619D01*
X151955476Y-88122095D01*
X151955476Y-88407809D01*
X151860238Y-88598285D01*
X151765000Y-88693523D01*
X151574523Y-88788761D01*
X150812619Y-88788761D01*
X150812619Y-86788761D01*
X151479285Y-86788761D01*
X151669761Y-86884000D01*
X151765000Y-86979238D01*
X151860238Y-87169714D01*
X151860238Y-87360190D01*
X151765000Y-87550666D01*
X151669761Y-87645904D01*
X151479285Y-87741142D01*
X150812619Y-87741142D01*
X152812619Y-86788761D02*
X152812619Y-88407809D01*
X152907857Y-88598285D01*
X153003095Y-88693523D01*
X153193571Y-88788761D01*
X153574523Y-88788761D01*
X153765000Y-88693523D01*
X153860238Y-88598285D01*
X153955476Y-88407809D01*
X153955476Y-86788761D01*
X154907857Y-88788761D02*
X154907857Y-86788761D01*
X155860238Y-88788761D02*
X155860238Y-86788761D01*
X157003095Y-88788761D01*
X157003095Y-86788761D01*
X158336428Y-86788761D02*
X158717380Y-86788761D01*
X158907857Y-86884000D01*
X159098333Y-87074476D01*
X159193571Y-87455428D01*
X159193571Y-88122095D01*
X159098333Y-88503047D01*
X158907857Y-88693523D01*
X158717380Y-88788761D01*
X158336428Y-88788761D01*
X158145952Y-88693523D01*
X157955476Y-88503047D01*
X157860238Y-88122095D01*
X157860238Y-87455428D01*
X157955476Y-87074476D01*
X158145952Y-86884000D01*
X158336428Y-86788761D01*
D10*
X161100000Y-118745000D02*
X173800000Y-118745000D01*
X138300000Y-118745000D02*
X157300000Y-118745000D01*
D12*
X174664666Y-121745285D02*
X174664666Y-121269095D01*
X174950380Y-121840523D02*
X173950380Y-121507190D01*
X174950380Y-121173857D01*
X173950380Y-120364333D02*
X173950380Y-120840523D01*
X174426571Y-120888142D01*
X174378952Y-120840523D01*
X174331333Y-120745285D01*
X174331333Y-120507190D01*
X174378952Y-120411952D01*
X174426571Y-120364333D01*
X174521809Y-120316714D01*
X174759904Y-120316714D01*
X174855142Y-120364333D01*
X174902761Y-120411952D01*
X174950380Y-120507190D01*
X174950380Y-120745285D01*
X174902761Y-120840523D01*
X174855142Y-120888142D01*
X172124666Y-121745285D02*
X172124666Y-121269095D01*
X172410380Y-121840523D02*
X171410380Y-121507190D01*
X172410380Y-121173857D01*
X171743714Y-120411952D02*
X172410380Y-120411952D01*
X171362761Y-120650047D02*
X172077047Y-120888142D01*
X172077047Y-120269095D01*
X169584666Y-121745285D02*
X169584666Y-121269095D01*
X169870380Y-121840523D02*
X168870380Y-121507190D01*
X169870380Y-121173857D01*
X168870380Y-120935761D02*
X168870380Y-120316714D01*
X169251333Y-120650047D01*
X169251333Y-120507190D01*
X169298952Y-120411952D01*
X169346571Y-120364333D01*
X169441809Y-120316714D01*
X169679904Y-120316714D01*
X169775142Y-120364333D01*
X169822761Y-120411952D01*
X169870380Y-120507190D01*
X169870380Y-120792904D01*
X169822761Y-120888142D01*
X169775142Y-120935761D01*
X167044666Y-121745285D02*
X167044666Y-121269095D01*
X167330380Y-121840523D02*
X166330380Y-121507190D01*
X167330380Y-121173857D01*
X166425619Y-120888142D02*
X166378000Y-120840523D01*
X166330380Y-120745285D01*
X166330380Y-120507190D01*
X166378000Y-120411952D01*
X166425619Y-120364333D01*
X166520857Y-120316714D01*
X166616095Y-120316714D01*
X166758952Y-120364333D01*
X167330380Y-120935761D01*
X167330380Y-120316714D01*
X164504666Y-121745285D02*
X164504666Y-121269095D01*
X164790380Y-121840523D02*
X163790380Y-121507190D01*
X164790380Y-121173857D01*
X164790380Y-120316714D02*
X164790380Y-120888142D01*
X164790380Y-120602428D02*
X163790380Y-120602428D01*
X163933238Y-120697666D01*
X164028476Y-120792904D01*
X164076095Y-120888142D01*
X161964666Y-121745285D02*
X161964666Y-121269095D01*
X162250380Y-121840523D02*
X161250380Y-121507190D01*
X162250380Y-121173857D01*
X161250380Y-120650047D02*
X161250380Y-120554809D01*
X161298000Y-120459571D01*
X161345619Y-120411952D01*
X161440857Y-120364333D01*
X161631333Y-120316714D01*
X161869428Y-120316714D01*
X162059904Y-120364333D01*
X162155142Y-120411952D01*
X162202761Y-120459571D01*
X162250380Y-120554809D01*
X162250380Y-120650047D01*
X162202761Y-120745285D01*
X162155142Y-120792904D01*
X162059904Y-120840523D01*
X161869428Y-120888142D01*
X161631333Y-120888142D01*
X161440857Y-120840523D01*
X161345619Y-120792904D01*
X161298000Y-120745285D01*
X161250380Y-120650047D01*
X144597380Y-121126238D02*
X144121190Y-121459571D01*
X144597380Y-121697667D02*
X143597380Y-121697667D01*
X143597380Y-121316714D01*
X143645000Y-121221476D01*
X143692619Y-121173857D01*
X143787857Y-121126238D01*
X143930714Y-121126238D01*
X144025952Y-121173857D01*
X144073571Y-121221476D01*
X144121190Y-121316714D01*
X144121190Y-121697667D01*
X144073571Y-120697667D02*
X144073571Y-120364333D01*
X144597380Y-120221476D02*
X144597380Y-120697667D01*
X143597380Y-120697667D01*
X143597380Y-120221476D01*
X144549761Y-119840524D02*
X144597380Y-119697667D01*
X144597380Y-119459571D01*
X144549761Y-119364333D01*
X144502142Y-119316714D01*
X144406904Y-119269095D01*
X144311666Y-119269095D01*
X144216428Y-119316714D01*
X144168809Y-119364333D01*
X144121190Y-119459571D01*
X144073571Y-119650048D01*
X144025952Y-119745286D01*
X143978333Y-119792905D01*
X143883095Y-119840524D01*
X143787857Y-119840524D01*
X143692619Y-119792905D01*
X143645000Y-119745286D01*
X143597380Y-119650048D01*
X143597380Y-119411952D01*
X143645000Y-119269095D01*
X153678000Y-121173857D02*
X153630380Y-121269095D01*
X153630380Y-121411953D01*
X153678000Y-121554810D01*
X153773238Y-121650048D01*
X153868476Y-121697667D01*
X154058952Y-121745286D01*
X154201809Y-121745286D01*
X154392285Y-121697667D01*
X154487523Y-121650048D01*
X154582761Y-121554810D01*
X154630380Y-121411953D01*
X154630380Y-121316714D01*
X154582761Y-121173857D01*
X154535142Y-121126238D01*
X154201809Y-121126238D01*
X154201809Y-121316714D01*
X154630380Y-120697667D02*
X153630380Y-120697667D01*
X154630380Y-120126238D01*
X153630380Y-120126238D01*
X154630380Y-119650048D02*
X153630380Y-119650048D01*
X153630380Y-119411953D01*
X153678000Y-119269095D01*
X153773238Y-119173857D01*
X153868476Y-119126238D01*
X154058952Y-119078619D01*
X154201809Y-119078619D01*
X154392285Y-119126238D01*
X154487523Y-119173857D01*
X154582761Y-119269095D01*
X154630380Y-119411953D01*
X154630380Y-119650048D01*
X151138000Y-121173857D02*
X151090380Y-121269095D01*
X151090380Y-121411953D01*
X151138000Y-121554810D01*
X151233238Y-121650048D01*
X151328476Y-121697667D01*
X151518952Y-121745286D01*
X151661809Y-121745286D01*
X151852285Y-121697667D01*
X151947523Y-121650048D01*
X152042761Y-121554810D01*
X152090380Y-121411953D01*
X152090380Y-121316714D01*
X152042761Y-121173857D01*
X151995142Y-121126238D01*
X151661809Y-121126238D01*
X151661809Y-121316714D01*
X152090380Y-120697667D02*
X151090380Y-120697667D01*
X152090380Y-120126238D01*
X151090380Y-120126238D01*
X152090380Y-119650048D02*
X151090380Y-119650048D01*
X151090380Y-119411953D01*
X151138000Y-119269095D01*
X151233238Y-119173857D01*
X151328476Y-119126238D01*
X151518952Y-119078619D01*
X151661809Y-119078619D01*
X151852285Y-119126238D01*
X151947523Y-119173857D01*
X152042761Y-119269095D01*
X152090380Y-119411953D01*
X152090380Y-119650048D01*
X145354476Y-118435380D02*
X145354476Y-117435380D01*
X145735428Y-117435380D01*
X145830666Y-117483000D01*
X145878285Y-117530619D01*
X145925904Y-117625857D01*
X145925904Y-117768714D01*
X145878285Y-117863952D01*
X145830666Y-117911571D01*
X145735428Y-117959190D01*
X145354476Y-117959190D01*
X146544952Y-117435380D02*
X146735428Y-117435380D01*
X146830666Y-117483000D01*
X146925904Y-117578238D01*
X146973523Y-117768714D01*
X146973523Y-118102047D01*
X146925904Y-118292523D01*
X146830666Y-118387761D01*
X146735428Y-118435380D01*
X146544952Y-118435380D01*
X146449714Y-118387761D01*
X146354476Y-118292523D01*
X146306857Y-118102047D01*
X146306857Y-117768714D01*
X146354476Y-117578238D01*
X146449714Y-117483000D01*
X146544952Y-117435380D01*
X147306857Y-117435380D02*
X147544952Y-118435380D01*
X147735428Y-117721095D01*
X147925904Y-118435380D01*
X148164000Y-117435380D01*
X148544952Y-117911571D02*
X148878285Y-117911571D01*
X149021142Y-118435380D02*
X148544952Y-118435380D01*
X148544952Y-117435380D01*
X149021142Y-117435380D01*
X150021142Y-118435380D02*
X149687809Y-117959190D01*
X149449714Y-118435380D02*
X149449714Y-117435380D01*
X149830666Y-117435380D01*
X149925904Y-117483000D01*
X149973523Y-117530619D01*
X150021142Y-117625857D01*
X150021142Y-117768714D01*
X149973523Y-117863952D01*
X149925904Y-117911571D01*
X149830666Y-117959190D01*
X149449714Y-117959190D01*
X164312095Y-118149666D02*
X164788285Y-118149666D01*
X164216857Y-118435380D02*
X164550190Y-117435380D01*
X164883523Y-118435380D01*
X165216857Y-118435380D02*
X165216857Y-117435380D01*
X165788285Y-118435380D01*
X165788285Y-117435380D01*
X166216857Y-118149666D02*
X166693047Y-118149666D01*
X166121619Y-118435380D02*
X166454952Y-117435380D01*
X166788285Y-118435380D01*
X167597809Y-118435380D02*
X167121619Y-118435380D01*
X167121619Y-117435380D01*
X168121619Y-117435380D02*
X168312095Y-117435380D01*
X168407333Y-117483000D01*
X168502571Y-117578238D01*
X168550190Y-117768714D01*
X168550190Y-118102047D01*
X168502571Y-118292523D01*
X168407333Y-118387761D01*
X168312095Y-118435380D01*
X168121619Y-118435380D01*
X168026380Y-118387761D01*
X167931142Y-118292523D01*
X167883523Y-118102047D01*
X167883523Y-117768714D01*
X167931142Y-117578238D01*
X168026380Y-117483000D01*
X168121619Y-117435380D01*
X169502571Y-117483000D02*
X169407333Y-117435380D01*
X169264476Y-117435380D01*
X169121619Y-117483000D01*
X169026380Y-117578238D01*
X168978761Y-117673476D01*
X168931142Y-117863952D01*
X168931142Y-118006809D01*
X168978761Y-118197285D01*
X169026380Y-118292523D01*
X169121619Y-118387761D01*
X169264476Y-118435380D01*
X169359714Y-118435380D01*
X169502571Y-118387761D01*
X169550190Y-118340142D01*
X169550190Y-118006809D01*
X169359714Y-118006809D01*
X170740666Y-118435380D02*
X170740666Y-117435380D01*
X171216857Y-118435380D02*
X171216857Y-117435380D01*
X171788285Y-118435380D01*
X171788285Y-117435380D01*
D10*
X139350000Y-80254000D02*
X170100000Y-80254000D01*
D12*
X175013880Y-80763809D02*
X174537690Y-81097143D01*
X175013880Y-81335238D02*
X174013880Y-81335238D01*
X174013880Y-80954285D01*
X174061500Y-80859047D01*
X174109119Y-80811428D01*
X174204357Y-80763809D01*
X174347214Y-80763809D01*
X174442452Y-80811428D01*
X174490071Y-80859047D01*
X174537690Y-80954285D01*
X174537690Y-81335238D01*
X174013880Y-80430476D02*
X175013880Y-79763809D01*
X174013880Y-79763809D02*
X175013880Y-80430476D01*
X174632928Y-78620952D02*
X174632928Y-79382857D01*
X174823404Y-79192381D02*
X174632928Y-79382857D01*
X174442452Y-79192381D01*
X174013880Y-77954285D02*
X174013880Y-77859047D01*
X174061500Y-77763809D01*
X174109119Y-77716190D01*
X174204357Y-77668571D01*
X174394833Y-77620952D01*
X174632928Y-77620952D01*
X174823404Y-77668571D01*
X174918642Y-77716190D01*
X174966261Y-77763809D01*
X175013880Y-77859047D01*
X175013880Y-77954285D01*
X174966261Y-78049524D01*
X174918642Y-78097143D01*
X174823404Y-78144762D01*
X174632928Y-78192381D01*
X174394833Y-78192381D01*
X174204357Y-78144762D01*
X174109119Y-78097143D01*
X174061500Y-78049524D01*
X174013880Y-77954285D01*
X171473880Y-81239999D02*
X171473880Y-80668571D01*
X172473880Y-80954285D02*
X171473880Y-80954285D01*
X171473880Y-80430476D02*
X172473880Y-79763809D01*
X171473880Y-79763809D02*
X172473880Y-80430476D01*
X172092928Y-79382857D02*
X172092928Y-78620952D01*
X172283404Y-78811428D02*
X172092928Y-78620952D01*
X171902452Y-78811428D01*
X172473880Y-77620952D02*
X172473880Y-78192380D01*
X172473880Y-77906666D02*
X171473880Y-77906666D01*
X171616738Y-78001904D01*
X171711976Y-78097142D01*
X171759595Y-78192380D01*
X169029119Y-78192381D02*
X168981500Y-78144762D01*
X168933880Y-78049524D01*
X168933880Y-77811428D01*
X168981500Y-77716190D01*
X169029119Y-77668571D01*
X169124357Y-77620952D01*
X169219595Y-77620952D01*
X169362452Y-77668571D01*
X169933880Y-78240000D01*
X169933880Y-77620952D01*
X167076428Y-79001905D02*
X167028809Y-78954286D01*
X166981190Y-78859048D01*
X167076428Y-78668571D01*
X167028809Y-78573333D01*
X166981190Y-78525714D01*
X166457380Y-78240000D02*
X166457380Y-77620952D01*
X166838333Y-77954286D01*
X166838333Y-77811429D01*
X166885952Y-77716190D01*
X166933571Y-77668571D01*
X167028809Y-77620952D01*
X167266904Y-77620952D01*
X167362142Y-77668571D01*
X167409761Y-77716190D01*
X167457380Y-77811429D01*
X167457380Y-78097143D01*
X167409761Y-78192381D01*
X167362142Y-78240000D01*
X164060214Y-77716190D02*
X164726880Y-77716190D01*
X163679261Y-77954286D02*
X164393547Y-78192381D01*
X164393547Y-77573333D01*
X161932928Y-79001905D02*
X161885309Y-78954286D01*
X161837690Y-78859048D01*
X161932928Y-78668571D01*
X161885309Y-78573333D01*
X161837690Y-78525714D01*
X161313880Y-77668571D02*
X161313880Y-78144762D01*
X161790071Y-78192381D01*
X161742452Y-78144762D01*
X161694833Y-78049524D01*
X161694833Y-77811429D01*
X161742452Y-77716190D01*
X161790071Y-77668571D01*
X161885309Y-77620952D01*
X162123404Y-77620952D01*
X162218642Y-77668571D01*
X162266261Y-77716190D01*
X162313880Y-77811429D01*
X162313880Y-78049524D01*
X162266261Y-78144762D01*
X162218642Y-78192381D01*
X159202428Y-79001905D02*
X159154809Y-78954286D01*
X159107190Y-78859048D01*
X159202428Y-78668571D01*
X159154809Y-78573333D01*
X159107190Y-78525714D01*
X158583380Y-77716190D02*
X158583380Y-77906667D01*
X158631000Y-78001905D01*
X158678619Y-78049524D01*
X158821476Y-78144762D01*
X159011952Y-78192381D01*
X159392904Y-78192381D01*
X159488142Y-78144762D01*
X159535761Y-78097143D01*
X159583380Y-78001905D01*
X159583380Y-77811429D01*
X159535761Y-77716190D01*
X159488142Y-77668571D01*
X159392904Y-77620952D01*
X159154809Y-77620952D01*
X159059571Y-77668571D01*
X159011952Y-77716190D01*
X158964333Y-77811429D01*
X158964333Y-78001905D01*
X159011952Y-78097143D01*
X159059571Y-78144762D01*
X159154809Y-78192381D01*
X156170380Y-78240000D02*
X156170380Y-77573333D01*
X157170380Y-78001905D01*
X152598452Y-78001905D02*
X152550833Y-78097143D01*
X152503214Y-78144762D01*
X152407976Y-78192381D01*
X152360357Y-78192381D01*
X152265119Y-78144762D01*
X152217500Y-78097143D01*
X152169880Y-78001905D01*
X152169880Y-77811428D01*
X152217500Y-77716190D01*
X152265119Y-77668571D01*
X152360357Y-77620952D01*
X152407976Y-77620952D01*
X152503214Y-77668571D01*
X152550833Y-77716190D01*
X152598452Y-77811428D01*
X152598452Y-78001905D01*
X152646071Y-78097143D01*
X152693690Y-78144762D01*
X152788928Y-78192381D01*
X152979404Y-78192381D01*
X153074642Y-78144762D01*
X153122261Y-78097143D01*
X153169880Y-78001905D01*
X153169880Y-77811428D01*
X153122261Y-77716190D01*
X153074642Y-77668571D01*
X152979404Y-77620952D01*
X152788928Y-77620952D01*
X152693690Y-77668571D01*
X152646071Y-77716190D01*
X152598452Y-77811428D01*
X150312428Y-79001905D02*
X150264809Y-78954286D01*
X150217190Y-78859048D01*
X150312428Y-78668571D01*
X150264809Y-78573333D01*
X150217190Y-78525714D01*
X150693380Y-78097143D02*
X150693380Y-77906667D01*
X150645761Y-77811429D01*
X150598142Y-77763810D01*
X150455285Y-77668571D01*
X150264809Y-77620952D01*
X149883857Y-77620952D01*
X149788619Y-77668571D01*
X149741000Y-77716190D01*
X149693380Y-77811429D01*
X149693380Y-78001905D01*
X149741000Y-78097143D01*
X149788619Y-78144762D01*
X149883857Y-78192381D01*
X150121952Y-78192381D01*
X150217190Y-78144762D01*
X150264809Y-78097143D01*
X150312428Y-78001905D01*
X150312428Y-77811429D01*
X150264809Y-77716190D01*
X150217190Y-77668571D01*
X150121952Y-77620952D01*
X147645428Y-79954285D02*
X147597809Y-79906666D01*
X147550190Y-79811428D01*
X147645428Y-79620952D01*
X147597809Y-79525714D01*
X147550190Y-79478095D01*
X148026380Y-78573333D02*
X148026380Y-79144761D01*
X148026380Y-78859047D02*
X147026380Y-78859047D01*
X147169238Y-78954285D01*
X147264476Y-79049523D01*
X147312095Y-79144761D01*
X147026380Y-77954285D02*
X147026380Y-77859047D01*
X147074000Y-77763809D01*
X147121619Y-77716190D01*
X147216857Y-77668571D01*
X147407333Y-77620952D01*
X147645428Y-77620952D01*
X147835904Y-77668571D01*
X147931142Y-77716190D01*
X147978761Y-77763809D01*
X148026380Y-77859047D01*
X148026380Y-77954285D01*
X147978761Y-78049523D01*
X147931142Y-78097142D01*
X147835904Y-78144761D01*
X147645428Y-78192380D01*
X147407333Y-78192380D01*
X147216857Y-78144761D01*
X147121619Y-78097142D01*
X147074000Y-78049523D01*
X147026380Y-77954285D01*
X144978428Y-79954285D02*
X144930809Y-79906666D01*
X144883190Y-79811428D01*
X144978428Y-79620952D01*
X144930809Y-79525714D01*
X144883190Y-79478095D01*
X145359380Y-78573333D02*
X145359380Y-79144761D01*
X145359380Y-78859047D02*
X144359380Y-78859047D01*
X144502238Y-78954285D01*
X144597476Y-79049523D01*
X144645095Y-79144761D01*
X145359380Y-77620952D02*
X145359380Y-78192380D01*
X145359380Y-77906666D02*
X144359380Y-77906666D01*
X144502238Y-78001904D01*
X144597476Y-78097142D01*
X144645095Y-78192380D01*
X142946380Y-78573333D02*
X142946380Y-79144761D01*
X142946380Y-78859047D02*
X141946380Y-78859047D01*
X142089238Y-78954285D01*
X142184476Y-79049523D01*
X142232095Y-79144761D01*
X142041619Y-78192380D02*
X141994000Y-78144761D01*
X141946380Y-78049523D01*
X141946380Y-77811428D01*
X141994000Y-77716190D01*
X142041619Y-77668571D01*
X142136857Y-77620952D01*
X142232095Y-77620952D01*
X142374952Y-77668571D01*
X142946380Y-78239999D01*
X142946380Y-77620952D01*
X140406380Y-78573333D02*
X140406380Y-79144761D01*
X140406380Y-78859047D02*
X139406380Y-78859047D01*
X139549238Y-78954285D01*
X139644476Y-79049523D01*
X139692095Y-79144761D01*
X139406380Y-78239999D02*
X139406380Y-77620952D01*
X139787333Y-77954285D01*
X139787333Y-77811428D01*
X139834952Y-77716190D01*
X139882571Y-77668571D01*
X139977809Y-77620952D01*
X140215904Y-77620952D01*
X140311142Y-77668571D01*
X140358761Y-77716190D01*
X140406380Y-77811428D01*
X140406380Y-78097142D01*
X140358761Y-78192380D01*
X140311142Y-78239999D01*
X136914000Y-79716190D02*
X136866380Y-79811428D01*
X136866380Y-79954286D01*
X136914000Y-80097143D01*
X137009238Y-80192381D01*
X137104476Y-80240000D01*
X137294952Y-80287619D01*
X137437809Y-80287619D01*
X137628285Y-80240000D01*
X137723523Y-80192381D01*
X137818761Y-80097143D01*
X137866380Y-79954286D01*
X137866380Y-79859047D01*
X137818761Y-79716190D01*
X137771142Y-79668571D01*
X137437809Y-79668571D01*
X137437809Y-79859047D01*
X137866380Y-79240000D02*
X136866380Y-79240000D01*
X137866380Y-78668571D01*
X136866380Y-78668571D01*
X137866380Y-78192381D02*
X136866380Y-78192381D01*
X136866380Y-77954286D01*
X136914000Y-77811428D01*
X137009238Y-77716190D01*
X137104476Y-77668571D01*
X137294952Y-77620952D01*
X137437809Y-77620952D01*
X137628285Y-77668571D01*
X137723523Y-77716190D01*
X137818761Y-77811428D01*
X137866380Y-77954286D01*
X137866380Y-78192381D01*
X132738761Y-80049523D02*
X132786380Y-79906666D01*
X132786380Y-79668571D01*
X132738761Y-79573333D01*
X132691142Y-79525714D01*
X132595904Y-79478095D01*
X132500666Y-79478095D01*
X132405428Y-79525714D01*
X132357809Y-79573333D01*
X132310190Y-79668571D01*
X132262571Y-79859047D01*
X132214952Y-79954285D01*
X132167333Y-80001904D01*
X132072095Y-80049523D01*
X131976857Y-80049523D01*
X131881619Y-80001904D01*
X131834000Y-79954285D01*
X131786380Y-79859047D01*
X131786380Y-79620952D01*
X131834000Y-79478095D01*
X132786380Y-79049523D02*
X131786380Y-79049523D01*
X131786380Y-78811428D01*
X131834000Y-78668571D01*
X131929238Y-78573333D01*
X132024476Y-78525714D01*
X132214952Y-78478095D01*
X132357809Y-78478095D01*
X132548285Y-78525714D01*
X132643523Y-78573333D01*
X132738761Y-78668571D01*
X132786380Y-78811428D01*
X132786380Y-79049523D01*
X132500666Y-78097142D02*
X132500666Y-77620952D01*
X132786380Y-78192380D02*
X131786380Y-77859047D01*
X132786380Y-77525714D01*
X130198761Y-80001905D02*
X130246380Y-79859048D01*
X130246380Y-79620952D01*
X130198761Y-79525714D01*
X130151142Y-79478095D01*
X130055904Y-79430476D01*
X129960666Y-79430476D01*
X129865428Y-79478095D01*
X129817809Y-79525714D01*
X129770190Y-79620952D01*
X129722571Y-79811429D01*
X129674952Y-79906667D01*
X129627333Y-79954286D01*
X129532095Y-80001905D01*
X129436857Y-80001905D01*
X129341619Y-79954286D01*
X129294000Y-79906667D01*
X129246380Y-79811429D01*
X129246380Y-79573333D01*
X129294000Y-79430476D01*
X130151142Y-78430476D02*
X130198761Y-78478095D01*
X130246380Y-78620952D01*
X130246380Y-78716190D01*
X130198761Y-78859048D01*
X130103523Y-78954286D01*
X130008285Y-79001905D01*
X129817809Y-79049524D01*
X129674952Y-79049524D01*
X129484476Y-79001905D01*
X129389238Y-78954286D01*
X129294000Y-78859048D01*
X129246380Y-78716190D01*
X129246380Y-78620952D01*
X129294000Y-78478095D01*
X129341619Y-78430476D01*
X130246380Y-77525714D02*
X130246380Y-78001905D01*
X129246380Y-78001905D01*
X149313000Y-81605380D02*
X149313000Y-80605380D01*
X149551095Y-80605380D01*
X149693952Y-80653000D01*
X149789190Y-80748238D01*
X149836809Y-80843476D01*
X149884428Y-81033952D01*
X149884428Y-81176809D01*
X149836809Y-81367285D01*
X149789190Y-81462523D01*
X149693952Y-81557761D01*
X149551095Y-81605380D01*
X149313000Y-81605380D01*
X150313000Y-81605380D02*
X150313000Y-80605380D01*
X151313000Y-80653000D02*
X151217761Y-80605380D01*
X151074904Y-80605380D01*
X150932047Y-80653000D01*
X150836809Y-80748238D01*
X150789190Y-80843476D01*
X150741571Y-81033952D01*
X150741571Y-81176809D01*
X150789190Y-81367285D01*
X150836809Y-81462523D01*
X150932047Y-81557761D01*
X151074904Y-81605380D01*
X151170142Y-81605380D01*
X151313000Y-81557761D01*
X151360619Y-81510142D01*
X151360619Y-81176809D01*
X151170142Y-81176809D01*
X151789190Y-81605380D02*
X151789190Y-80605380D01*
X152122523Y-80605380D02*
X152693952Y-80605380D01*
X152408238Y-81605380D02*
X152408238Y-80605380D01*
X152979666Y-81319666D02*
X153455857Y-81319666D01*
X152884428Y-81605380D02*
X153217761Y-80605380D01*
X153551095Y-81605380D01*
X154360619Y-81605380D02*
X153884428Y-81605380D01*
X153884428Y-80605380D01*
X155455857Y-81605380D02*
X155455857Y-80605380D01*
X155836809Y-80605380D01*
X155932047Y-80653000D01*
X155979666Y-80700619D01*
X156027285Y-80795857D01*
X156027285Y-80938714D01*
X155979666Y-81033952D01*
X155932047Y-81081571D01*
X155836809Y-81129190D01*
X155455857Y-81129190D01*
X156360619Y-80605380D02*
X156598714Y-81605380D01*
X156789190Y-80891095D01*
X156979666Y-81605380D01*
X157217761Y-80605380D01*
X157598714Y-81605380D02*
X157598714Y-80605380D01*
X157932047Y-81319666D01*
X158265380Y-80605380D01*
X158265380Y-81605380D01*
X159027285Y-81986333D02*
X158979666Y-81938714D01*
X158884428Y-81795857D01*
X158836809Y-81700619D01*
X158789190Y-81557761D01*
X158741571Y-81319666D01*
X158741571Y-81129190D01*
X158789190Y-80891095D01*
X158836809Y-80748238D01*
X158884428Y-80653000D01*
X158979666Y-80510142D01*
X159027285Y-80462523D01*
X159265380Y-81224428D02*
X159313000Y-81176809D01*
X159408238Y-81129190D01*
X159598714Y-81224428D01*
X159693952Y-81176809D01*
X159741571Y-81129190D01*
X160027285Y-81986333D02*
X160074904Y-81938714D01*
X160170142Y-81795857D01*
X160217761Y-81700619D01*
X160265380Y-81557761D01*
X160313000Y-81319666D01*
X160313000Y-81129190D01*
X160265380Y-80891095D01*
X160217761Y-80748238D01*
X160170142Y-80653000D01*
X160074904Y-80510142D01*
X160027285Y-80462523D01*
D13*
%TO.C,J3*%
X112946000Y-125189000D02*
X121766000Y-125189000D01*
X121766000Y-125189000D02*
X121766000Y-112809000D01*
X121766000Y-112809000D02*
X112946000Y-112809000D01*
X112946000Y-112809000D02*
X112946000Y-125189000D01*
X113756000Y-125189000D02*
X113756000Y-122649000D01*
X113756000Y-112809000D02*
X113756000Y-115349000D01*
X113756000Y-120539000D02*
X113756000Y-117459000D01*
X114756000Y-122539000D02*
X112946000Y-122539000D01*
X112946000Y-122539000D02*
X112946000Y-120539000D01*
X112946000Y-120539000D02*
X114756000Y-120539000D01*
X114756000Y-120539000D02*
X114756000Y-122539000D01*
X114756000Y-117459000D02*
X112946000Y-117459000D01*
X112946000Y-117459000D02*
X112946000Y-115459000D01*
X112946000Y-115459000D02*
X114756000Y-115459000D01*
X114756000Y-115459000D02*
X114756000Y-117459000D01*
X120056000Y-119539000D02*
X120056000Y-118459000D01*
X120056000Y-123539000D02*
X120056000Y-124279000D01*
X120056000Y-124279000D02*
X114756000Y-124279000D01*
X114756000Y-124279000D02*
X114756000Y-113719000D01*
X114756000Y-113719000D02*
X120056000Y-113719000D01*
X120056000Y-113719000D02*
X120056000Y-114459000D01*
X112146000Y-121239000D02*
X112746000Y-121539000D01*
X112746000Y-121539000D02*
X112146000Y-121839000D01*
X112146000Y-121839000D02*
X112146000Y-121239000D01*
X120071821Y-114472159D02*
G75*
G02*
X120056000Y-118459000I-1665821J-1986841D01*
G01*
X120071821Y-119552159D02*
G75*
G02*
X120056000Y-123539000I-1665821J-1986841D01*
G01*
%TO.C,J1*%
X111538000Y-83565000D02*
X109638000Y-83565000D01*
X115438000Y-83565000D02*
X113438000Y-83565000D01*
X111538000Y-92965000D02*
X109638000Y-92965000D01*
X115438000Y-92965000D02*
X113438000Y-92965000D01*
X109638000Y-83565000D02*
X109638000Y-92965000D01*
D12*
%TO.C,U2*%
X165241425Y-101821901D02*
X166249052Y-100814274D01*
X160274000Y-107107524D02*
X160503810Y-106877714D01*
X155147476Y-101981000D02*
X155377286Y-101751190D01*
X160274000Y-96854476D02*
X160044190Y-97084286D01*
X165400524Y-101981000D02*
X165170714Y-102210810D01*
X160274000Y-96854476D02*
X160503810Y-97084286D01*
X155147476Y-101981000D02*
X155377286Y-102210810D01*
X160274000Y-107107524D02*
X160044190Y-106877714D01*
X165400524Y-101981000D02*
X165241425Y-101821901D01*
D13*
%TO.C,Y1*%
X163653000Y-90282000D02*
X169903000Y-90282000D01*
X163653000Y-85232000D02*
X169903000Y-85232000D01*
X163653000Y-90282000D02*
G75*
G02*
X163653000Y-85232000I0J2525000D01*
G01*
X169903000Y-90282000D02*
G75*
G03*
X169903000Y-85232000I0J2525000D01*
G01*
D12*
%TO.C,U1*%
X129549000Y-100538000D02*
X130124000Y-100538000D01*
X129549000Y-94788000D02*
X130199000Y-94788000D01*
X140199000Y-94788000D02*
X139549000Y-94788000D01*
X140199000Y-100538000D02*
X139549000Y-100538000D01*
X129549000Y-100538000D02*
X129549000Y-94788000D01*
X140199000Y-100538000D02*
X140199000Y-94788000D01*
X130124000Y-100538000D02*
X130124000Y-102138000D01*
D13*
%TO.C,Reset*%
X120578000Y-73605000D02*
X120578000Y-73635000D01*
X120578000Y-80065000D02*
X120578000Y-80035000D01*
X114118000Y-80065000D02*
X114118000Y-80035000D01*
X114118000Y-73635000D02*
X114118000Y-73605000D01*
X120578000Y-75535000D02*
X120578000Y-78135000D01*
X114118000Y-73605000D02*
X120578000Y-73605000D01*
X114118000Y-75535000D02*
X114118000Y-78135000D01*
X114118000Y-80065000D02*
X120578000Y-80065000D01*
%TO.C,R10*%
X142492252Y-84911000D02*
X141969748Y-84911000D01*
X142492252Y-83491000D02*
X141969748Y-83491000D01*
%TO.C,R9*%
X122157748Y-81205000D02*
X122680252Y-81205000D01*
X122157748Y-82625000D02*
X122680252Y-82625000D01*
%TO.C,R8*%
X130557748Y-81205000D02*
X131080252Y-81205000D01*
X130557748Y-82625000D02*
X131080252Y-82625000D01*
%TO.C,R7*%
X130557748Y-83491000D02*
X131080252Y-83491000D01*
X130557748Y-84911000D02*
X131080252Y-84911000D01*
%TO.C,R6*%
X130539748Y-85777000D02*
X131062252Y-85777000D01*
X130539748Y-87197000D02*
X131062252Y-87197000D01*
%TO.C,R5*%
X143517252Y-101675000D02*
X142994748Y-101675000D01*
X143517252Y-100255000D02*
X142994748Y-100255000D01*
%TO.C,R4*%
X143526252Y-99389000D02*
X143003748Y-99389000D01*
X143526252Y-97969000D02*
X143003748Y-97969000D01*
%TO.C,R3*%
X122157748Y-84253000D02*
X122680252Y-84253000D01*
X122157748Y-85673000D02*
X122680252Y-85673000D01*
%TO.C,R2*%
X122157748Y-86539000D02*
X122680252Y-86539000D01*
X122157748Y-87959000D02*
X122680252Y-87959000D01*
%TO.C,R1*%
X130539748Y-88063000D02*
X131062252Y-88063000D01*
X130539748Y-89483000D02*
X131062252Y-89483000D01*
%TO.C,Q2*%
X134790000Y-121008760D02*
X124290000Y-121008760D01*
X134790000Y-116067760D02*
X124290000Y-116067760D01*
X134790000Y-121008760D02*
X134790000Y-116067760D01*
X124290000Y-121008760D02*
X124290000Y-116067760D01*
X134790000Y-118248760D02*
X133183000Y-118248760D01*
X130977000Y-118248760D02*
X130642000Y-118248760D01*
X128437000Y-118248760D02*
X128102000Y-118248760D01*
X125897000Y-118248760D02*
X124290000Y-118248760D01*
X131390000Y-121008760D02*
X131390000Y-118990760D01*
X127689000Y-121008760D02*
X127689000Y-118990760D01*
%TO.C,Q1*%
X134790000Y-113023000D02*
X124290000Y-113023000D01*
X134790000Y-108082000D02*
X124290000Y-108082000D01*
X134790000Y-113023000D02*
X134790000Y-108082000D01*
X124290000Y-113023000D02*
X124290000Y-108082000D01*
X134790000Y-110263000D02*
X133183000Y-110263000D01*
X130977000Y-110263000D02*
X130642000Y-110263000D01*
X128437000Y-110263000D02*
X128102000Y-110263000D01*
X125897000Y-110263000D02*
X124290000Y-110263000D01*
X131390000Y-113023000D02*
X131390000Y-111005000D01*
X127689000Y-113023000D02*
X127689000Y-111005000D01*
%TO.C,J2*%
X112946000Y-111727000D02*
X121766000Y-111727000D01*
X121766000Y-111727000D02*
X121766000Y-99347000D01*
X121766000Y-99347000D02*
X112946000Y-99347000D01*
X112946000Y-99347000D02*
X112946000Y-111727000D01*
X113756000Y-111727000D02*
X113756000Y-109187000D01*
X113756000Y-99347000D02*
X113756000Y-101887000D01*
X113756000Y-107077000D02*
X113756000Y-103997000D01*
X114756000Y-109077000D02*
X112946000Y-109077000D01*
X112946000Y-109077000D02*
X112946000Y-107077000D01*
X112946000Y-107077000D02*
X114756000Y-107077000D01*
X114756000Y-107077000D02*
X114756000Y-109077000D01*
X114756000Y-103997000D02*
X112946000Y-103997000D01*
X112946000Y-103997000D02*
X112946000Y-101997000D01*
X112946000Y-101997000D02*
X114756000Y-101997000D01*
X114756000Y-101997000D02*
X114756000Y-103997000D01*
X120056000Y-106077000D02*
X120056000Y-104997000D01*
X120056000Y-110077000D02*
X120056000Y-110817000D01*
X120056000Y-110817000D02*
X114756000Y-110817000D01*
X114756000Y-110817000D02*
X114756000Y-100257000D01*
X114756000Y-100257000D02*
X120056000Y-100257000D01*
X120056000Y-100257000D02*
X120056000Y-100997000D01*
X112146000Y-107777000D02*
X112746000Y-108077000D01*
X112746000Y-108077000D02*
X112146000Y-108377000D01*
X112146000Y-108377000D02*
X112146000Y-107777000D01*
X120071821Y-101010159D02*
G75*
G02*
X120056000Y-104997000I-1665821J-1986841D01*
G01*
X120071821Y-106090159D02*
G75*
G02*
X120056000Y-110077000I-1665821J-1986841D01*
G01*
%TO.C,FB1*%
X117854252Y-96341000D02*
X117331748Y-96341000D01*
X117854252Y-94921000D02*
X117331748Y-94921000D01*
%TO.C,13*%
X141231000Y-82875000D02*
X144091000Y-82875000D01*
X144091000Y-82875000D02*
X144091000Y-80955000D01*
X144091000Y-80955000D02*
X141231000Y-80955000D01*
%TO.C,RES*%
X133865000Y-82875000D02*
X136725000Y-82875000D01*
X136725000Y-82875000D02*
X136725000Y-80955000D01*
X136725000Y-80955000D02*
X133865000Y-80955000D01*
%TO.C,TX*%
X133865000Y-85161000D02*
X136725000Y-85161000D01*
X136725000Y-85161000D02*
X136725000Y-83241000D01*
X136725000Y-83241000D02*
X133865000Y-83241000D01*
%TO.C,RX*%
X133865000Y-87447000D02*
X136725000Y-87447000D01*
X136725000Y-87447000D02*
X136725000Y-85527000D01*
X136725000Y-85527000D02*
X133865000Y-85527000D01*
%TO.C,D2*%
X124250000Y-96631000D02*
X124250000Y-94631000D01*
X124250000Y-94631000D02*
X120400000Y-94631000D01*
X124250000Y-96631000D02*
X120400000Y-96631000D01*
%TO.C,PWR*%
X133883000Y-89733000D02*
X136743000Y-89733000D01*
X136743000Y-89733000D02*
X136743000Y-87813000D01*
X136743000Y-87813000D02*
X133883000Y-87813000D01*
%TO.C,C10*%
X169434252Y-91111000D02*
X168911748Y-91111000D01*
X169434252Y-92531000D02*
X168911748Y-92531000D01*
%TO.C,C9*%
X164321748Y-92531000D02*
X164844252Y-92531000D01*
X164321748Y-91111000D02*
X164844252Y-91111000D01*
%TO.C,C8*%
X165327903Y-98132995D02*
X164958437Y-97763529D01*
X166331995Y-97128903D02*
X165962529Y-96759437D01*
%TO.C,C7*%
X143003748Y-102541000D02*
X143526252Y-102541000D01*
X143003748Y-103961000D02*
X143526252Y-103961000D01*
%TO.C,C6*%
X135144252Y-92277000D02*
X134621748Y-92277000D01*
X135144252Y-90857000D02*
X134621748Y-90857000D01*
%TO.C,C5*%
X133351748Y-103049000D02*
X133874252Y-103049000D01*
X133351748Y-104469000D02*
X133874252Y-104469000D01*
%TO.C,C4*%
X138685748Y-90857000D02*
X139208252Y-90857000D01*
X138685748Y-92277000D02*
X139208252Y-92277000D01*
%TO.C,C3*%
X122175748Y-91873000D02*
X122698252Y-91873000D01*
X122175748Y-93293000D02*
X122698252Y-93293000D01*
%TO.C,C2*%
X122175748Y-89587000D02*
X122698252Y-89587000D01*
X122175748Y-91007000D02*
X122698252Y-91007000D01*
%TO.C,C1*%
X113799252Y-96341000D02*
X113276748Y-96341000D01*
X113799252Y-94921000D02*
X113276748Y-94921000D01*
D12*
%TO.C,P1*%
X137388000Y-122275000D02*
X137388000Y-125375000D01*
X138938000Y-122275000D02*
X137388000Y-122275000D01*
X140208000Y-125095000D02*
X140208000Y-122555000D01*
X137388000Y-125375000D02*
X138938000Y-125375000D01*
X157988000Y-122555000D02*
X140208000Y-122555000D01*
X157988000Y-125095000D02*
X157988000Y-122555000D01*
X140208000Y-125095000D02*
X157988000Y-125095000D01*
%TO.C,P2*%
X160248000Y-122275000D02*
X160248000Y-125375000D01*
X161798000Y-122275000D02*
X160248000Y-122275000D01*
X163068000Y-125095000D02*
X163068000Y-122555000D01*
X160248000Y-125375000D02*
X161798000Y-125375000D01*
X175768000Y-122555000D02*
X163068000Y-122555000D01*
X175768000Y-125095000D02*
X175768000Y-122555000D01*
X163068000Y-125095000D02*
X175768000Y-125095000D01*
%TO.C,P3*%
X128244000Y-74015000D02*
X128244000Y-77115000D01*
X129794000Y-74015000D02*
X128244000Y-74015000D01*
X131064000Y-76835000D02*
X131064000Y-74295000D01*
X128244000Y-77115000D02*
X129794000Y-77115000D01*
X153924000Y-74295000D02*
X131064000Y-74295000D01*
X153924000Y-76835000D02*
X153924000Y-74295000D01*
X131064000Y-76835000D02*
X153924000Y-76835000D01*
%TO.C,P4*%
X155168000Y-74015000D02*
X155168000Y-77115000D01*
X156718000Y-74015000D02*
X155168000Y-74015000D01*
X157988000Y-76835000D02*
X157988000Y-74295000D01*
X155168000Y-77115000D02*
X156718000Y-77115000D01*
X175768000Y-74295000D02*
X157988000Y-74295000D01*
X175768000Y-76835000D02*
X175768000Y-74295000D01*
X157988000Y-76835000D02*
X175768000Y-76835000D01*
%TO.C,P5*%
X127254000Y-123825000D02*
G75*
G03*
X127254000Y-123825000I-2286000J0D01*
G01*
%TO.C,P6*%
X179324000Y-118745000D02*
G75*
G03*
X179324000Y-118745000I-2286000J0D01*
G01*
%TO.C,P7*%
X128524000Y-75565000D02*
G75*
G03*
X128524000Y-75565000I-2286000J0D01*
G01*
%TO.C,P8*%
X179324000Y-90805000D02*
G75*
G03*
X179324000Y-90805000I-2286000J0D01*
G01*
%TO.C,J3*%
X111308380Y-119332333D02*
X112022666Y-119332333D01*
X112165523Y-119379952D01*
X112260761Y-119475190D01*
X112308380Y-119618047D01*
X112308380Y-119713285D01*
X111308380Y-118951380D02*
X111308380Y-118332333D01*
X111689333Y-118665666D01*
X111689333Y-118522809D01*
X111736952Y-118427571D01*
X111784571Y-118379952D01*
X111879809Y-118332333D01*
X112117904Y-118332333D01*
X112213142Y-118379952D01*
X112260761Y-118427571D01*
X112308380Y-118522809D01*
X112308380Y-118808523D01*
X112260761Y-118903761D01*
X112213142Y-118951380D01*
%TO.C,J1*%
X118635380Y-88598333D02*
X119349666Y-88598333D01*
X119492523Y-88645952D01*
X119587761Y-88741190D01*
X119635380Y-88884047D01*
X119635380Y-88979285D01*
X119635380Y-87598333D02*
X119635380Y-88169761D01*
X119635380Y-87884047D02*
X118635380Y-87884047D01*
X118778238Y-87979285D01*
X118873476Y-88074523D01*
X118921095Y-88169761D01*
%TO.C,U2*%
X165761526Y-102386522D02*
X166333946Y-102958942D01*
X166434961Y-102992614D01*
X166502305Y-102992614D01*
X166603320Y-102958942D01*
X166738007Y-102824255D01*
X166771679Y-102723240D01*
X166771679Y-102655896D01*
X166738007Y-102554881D01*
X166165587Y-101982461D01*
X166535977Y-101746759D02*
X166535977Y-101679416D01*
X166569648Y-101578400D01*
X166738007Y-101410042D01*
X166839022Y-101376370D01*
X166906366Y-101376370D01*
X167007381Y-101410042D01*
X167074725Y-101477385D01*
X167142068Y-101612072D01*
X167142068Y-102420194D01*
X167579801Y-101982461D01*
%TO.C,Y1*%
X166301809Y-84208190D02*
X166301809Y-84684380D01*
X165968476Y-83684380D02*
X166301809Y-84208190D01*
X166635142Y-83684380D01*
X167492285Y-84684380D02*
X166920857Y-84684380D01*
X167206571Y-84684380D02*
X167206571Y-83684380D01*
X167111333Y-83827238D01*
X167016095Y-83922476D01*
X166920857Y-83970095D01*
%TO.C,U1*%
X128076380Y-98424904D02*
X128885904Y-98424904D01*
X128981142Y-98377285D01*
X129028761Y-98329666D01*
X129076380Y-98234428D01*
X129076380Y-98043952D01*
X129028761Y-97948714D01*
X128981142Y-97901095D01*
X128885904Y-97853476D01*
X128076380Y-97853476D01*
X129076380Y-96853476D02*
X129076380Y-97424904D01*
X129076380Y-97139190D02*
X128076380Y-97139190D01*
X128219238Y-97234428D01*
X128314476Y-97329666D01*
X128362095Y-97424904D01*
%TO.C,Reset*%
X116109904Y-81478380D02*
X115776571Y-81002190D01*
X115538476Y-81478380D02*
X115538476Y-80478380D01*
X115919428Y-80478380D01*
X116014666Y-80526000D01*
X116062285Y-80573619D01*
X116109904Y-80668857D01*
X116109904Y-80811714D01*
X116062285Y-80906952D01*
X116014666Y-80954571D01*
X115919428Y-81002190D01*
X115538476Y-81002190D01*
X116919428Y-81430761D02*
X116824190Y-81478380D01*
X116633714Y-81478380D01*
X116538476Y-81430761D01*
X116490857Y-81335523D01*
X116490857Y-80954571D01*
X116538476Y-80859333D01*
X116633714Y-80811714D01*
X116824190Y-80811714D01*
X116919428Y-80859333D01*
X116967047Y-80954571D01*
X116967047Y-81049809D01*
X116490857Y-81145047D01*
X117348000Y-81430761D02*
X117443238Y-81478380D01*
X117633714Y-81478380D01*
X117728952Y-81430761D01*
X117776571Y-81335523D01*
X117776571Y-81287904D01*
X117728952Y-81192666D01*
X117633714Y-81145047D01*
X117490857Y-81145047D01*
X117395619Y-81097428D01*
X117348000Y-81002190D01*
X117348000Y-80954571D01*
X117395619Y-80859333D01*
X117490857Y-80811714D01*
X117633714Y-80811714D01*
X117728952Y-80859333D01*
X118586095Y-81430761D02*
X118490857Y-81478380D01*
X118300380Y-81478380D01*
X118205142Y-81430761D01*
X118157523Y-81335523D01*
X118157523Y-80954571D01*
X118205142Y-80859333D01*
X118300380Y-80811714D01*
X118490857Y-80811714D01*
X118586095Y-80859333D01*
X118633714Y-80954571D01*
X118633714Y-81049809D01*
X118157523Y-81145047D01*
X118919428Y-80811714D02*
X119300380Y-80811714D01*
X119062285Y-80478380D02*
X119062285Y-81335523D01*
X119109904Y-81430761D01*
X119205142Y-81478380D01*
X119300380Y-81478380D01*
%TO.C,R10*%
X145026142Y-84780380D02*
X144692809Y-84304190D01*
X144454714Y-84780380D02*
X144454714Y-83780380D01*
X144835666Y-83780380D01*
X144930904Y-83828000D01*
X144978523Y-83875619D01*
X145026142Y-83970857D01*
X145026142Y-84113714D01*
X144978523Y-84208952D01*
X144930904Y-84256571D01*
X144835666Y-84304190D01*
X144454714Y-84304190D01*
X145978523Y-84780380D02*
X145407095Y-84780380D01*
X145692809Y-84780380D02*
X145692809Y-83780380D01*
X145597571Y-83923238D01*
X145502333Y-84018476D01*
X145407095Y-84066095D01*
X146597571Y-83780380D02*
X146692809Y-83780380D01*
X146788047Y-83828000D01*
X146835666Y-83875619D01*
X146883285Y-83970857D01*
X146930904Y-84161333D01*
X146930904Y-84399428D01*
X146883285Y-84589904D01*
X146835666Y-84685142D01*
X146788047Y-84732761D01*
X146692809Y-84780380D01*
X146597571Y-84780380D01*
X146502333Y-84732761D01*
X146454714Y-84685142D01*
X146407095Y-84589904D01*
X146359476Y-84399428D01*
X146359476Y-84161333D01*
X146407095Y-83970857D01*
X146454714Y-83875619D01*
X146502333Y-83828000D01*
X146597571Y-83780380D01*
%TO.C,R9*%
X125055333Y-82367380D02*
X124722000Y-81891190D01*
X124483904Y-82367380D02*
X124483904Y-81367380D01*
X124864857Y-81367380D01*
X124960095Y-81415000D01*
X125007714Y-81462619D01*
X125055333Y-81557857D01*
X125055333Y-81700714D01*
X125007714Y-81795952D01*
X124960095Y-81843571D01*
X124864857Y-81891190D01*
X124483904Y-81891190D01*
X125531523Y-82367380D02*
X125722000Y-82367380D01*
X125817238Y-82319761D01*
X125864857Y-82272142D01*
X125960095Y-82129285D01*
X126007714Y-81938809D01*
X126007714Y-81557857D01*
X125960095Y-81462619D01*
X125912476Y-81415000D01*
X125817238Y-81367380D01*
X125626761Y-81367380D01*
X125531523Y-81415000D01*
X125483904Y-81462619D01*
X125436285Y-81557857D01*
X125436285Y-81795952D01*
X125483904Y-81891190D01*
X125531523Y-81938809D01*
X125626761Y-81986428D01*
X125817238Y-81986428D01*
X125912476Y-81938809D01*
X125960095Y-81891190D01*
X126007714Y-81795952D01*
%TO.C,R8*%
X127849333Y-82367380D02*
X127516000Y-81891190D01*
X127277904Y-82367380D02*
X127277904Y-81367380D01*
X127658857Y-81367380D01*
X127754095Y-81415000D01*
X127801714Y-81462619D01*
X127849333Y-81557857D01*
X127849333Y-81700714D01*
X127801714Y-81795952D01*
X127754095Y-81843571D01*
X127658857Y-81891190D01*
X127277904Y-81891190D01*
X128420761Y-81795952D02*
X128325523Y-81748333D01*
X128277904Y-81700714D01*
X128230285Y-81605476D01*
X128230285Y-81557857D01*
X128277904Y-81462619D01*
X128325523Y-81415000D01*
X128420761Y-81367380D01*
X128611238Y-81367380D01*
X128706476Y-81415000D01*
X128754095Y-81462619D01*
X128801714Y-81557857D01*
X128801714Y-81605476D01*
X128754095Y-81700714D01*
X128706476Y-81748333D01*
X128611238Y-81795952D01*
X128420761Y-81795952D01*
X128325523Y-81843571D01*
X128277904Y-81891190D01*
X128230285Y-81986428D01*
X128230285Y-82176904D01*
X128277904Y-82272142D01*
X128325523Y-82319761D01*
X128420761Y-82367380D01*
X128611238Y-82367380D01*
X128706476Y-82319761D01*
X128754095Y-82272142D01*
X128801714Y-82176904D01*
X128801714Y-81986428D01*
X128754095Y-81891190D01*
X128706476Y-81843571D01*
X128611238Y-81795952D01*
%TO.C,R7*%
X127849333Y-84653380D02*
X127516000Y-84177190D01*
X127277904Y-84653380D02*
X127277904Y-83653380D01*
X127658857Y-83653380D01*
X127754095Y-83701000D01*
X127801714Y-83748619D01*
X127849333Y-83843857D01*
X127849333Y-83986714D01*
X127801714Y-84081952D01*
X127754095Y-84129571D01*
X127658857Y-84177190D01*
X127277904Y-84177190D01*
X128182666Y-83653380D02*
X128849333Y-83653380D01*
X128420761Y-84653380D01*
%TO.C,R6*%
X127849333Y-86939380D02*
X127516000Y-86463190D01*
X127277904Y-86939380D02*
X127277904Y-85939380D01*
X127658857Y-85939380D01*
X127754095Y-85987000D01*
X127801714Y-86034619D01*
X127849333Y-86129857D01*
X127849333Y-86272714D01*
X127801714Y-86367952D01*
X127754095Y-86415571D01*
X127658857Y-86463190D01*
X127277904Y-86463190D01*
X128706476Y-85939380D02*
X128516000Y-85939380D01*
X128420761Y-85987000D01*
X128373142Y-86034619D01*
X128277904Y-86177476D01*
X128230285Y-86367952D01*
X128230285Y-86748904D01*
X128277904Y-86844142D01*
X128325523Y-86891761D01*
X128420761Y-86939380D01*
X128611238Y-86939380D01*
X128706476Y-86891761D01*
X128754095Y-86844142D01*
X128801714Y-86748904D01*
X128801714Y-86510809D01*
X128754095Y-86415571D01*
X128706476Y-86367952D01*
X128611238Y-86320333D01*
X128420761Y-86320333D01*
X128325523Y-86367952D01*
X128277904Y-86415571D01*
X128230285Y-86510809D01*
%TO.C,R5*%
X145883333Y-101417380D02*
X145550000Y-100941190D01*
X145311904Y-101417380D02*
X145311904Y-100417380D01*
X145692857Y-100417380D01*
X145788095Y-100465000D01*
X145835714Y-100512619D01*
X145883333Y-100607857D01*
X145883333Y-100750714D01*
X145835714Y-100845952D01*
X145788095Y-100893571D01*
X145692857Y-100941190D01*
X145311904Y-100941190D01*
X146788095Y-100417380D02*
X146311904Y-100417380D01*
X146264285Y-100893571D01*
X146311904Y-100845952D01*
X146407142Y-100798333D01*
X146645238Y-100798333D01*
X146740476Y-100845952D01*
X146788095Y-100893571D01*
X146835714Y-100988809D01*
X146835714Y-101226904D01*
X146788095Y-101322142D01*
X146740476Y-101369761D01*
X146645238Y-101417380D01*
X146407142Y-101417380D01*
X146311904Y-101369761D01*
X146264285Y-101322142D01*
%TO.C,R4*%
X145892333Y-99131380D02*
X145559000Y-98655190D01*
X145320904Y-99131380D02*
X145320904Y-98131380D01*
X145701857Y-98131380D01*
X145797095Y-98179000D01*
X145844714Y-98226619D01*
X145892333Y-98321857D01*
X145892333Y-98464714D01*
X145844714Y-98559952D01*
X145797095Y-98607571D01*
X145701857Y-98655190D01*
X145320904Y-98655190D01*
X146749476Y-98464714D02*
X146749476Y-99131380D01*
X146511380Y-98083761D02*
X146273285Y-98798047D01*
X146892333Y-98798047D01*
%TO.C,R3*%
X125055333Y-85415380D02*
X124722000Y-84939190D01*
X124483904Y-85415380D02*
X124483904Y-84415380D01*
X124864857Y-84415380D01*
X124960095Y-84463000D01*
X125007714Y-84510619D01*
X125055333Y-84605857D01*
X125055333Y-84748714D01*
X125007714Y-84843952D01*
X124960095Y-84891571D01*
X124864857Y-84939190D01*
X124483904Y-84939190D01*
X125388666Y-84415380D02*
X126007714Y-84415380D01*
X125674380Y-84796333D01*
X125817238Y-84796333D01*
X125912476Y-84843952D01*
X125960095Y-84891571D01*
X126007714Y-84986809D01*
X126007714Y-85224904D01*
X125960095Y-85320142D01*
X125912476Y-85367761D01*
X125817238Y-85415380D01*
X125531523Y-85415380D01*
X125436285Y-85367761D01*
X125388666Y-85320142D01*
%TO.C,R2*%
X125055333Y-87701380D02*
X124722000Y-87225190D01*
X124483904Y-87701380D02*
X124483904Y-86701380D01*
X124864857Y-86701380D01*
X124960095Y-86749000D01*
X125007714Y-86796619D01*
X125055333Y-86891857D01*
X125055333Y-87034714D01*
X125007714Y-87129952D01*
X124960095Y-87177571D01*
X124864857Y-87225190D01*
X124483904Y-87225190D01*
X125436285Y-86796619D02*
X125483904Y-86749000D01*
X125579142Y-86701380D01*
X125817238Y-86701380D01*
X125912476Y-86749000D01*
X125960095Y-86796619D01*
X126007714Y-86891857D01*
X126007714Y-86987095D01*
X125960095Y-87129952D01*
X125388666Y-87701380D01*
X126007714Y-87701380D01*
%TO.C,R1*%
X127849333Y-89225380D02*
X127516000Y-88749190D01*
X127277904Y-89225380D02*
X127277904Y-88225380D01*
X127658857Y-88225380D01*
X127754095Y-88273000D01*
X127801714Y-88320619D01*
X127849333Y-88415857D01*
X127849333Y-88558714D01*
X127801714Y-88653952D01*
X127754095Y-88701571D01*
X127658857Y-88749190D01*
X127277904Y-88749190D01*
X128801714Y-89225380D02*
X128230285Y-89225380D01*
X128516000Y-89225380D02*
X128516000Y-88225380D01*
X128420761Y-88368238D01*
X128325523Y-88463476D01*
X128230285Y-88511095D01*
%TO.C,Q2*%
X129444761Y-122555879D02*
X129349523Y-122508260D01*
X129254285Y-122413021D01*
X129111428Y-122270164D01*
X129016190Y-122222545D01*
X128920952Y-122222545D01*
X128968571Y-122460640D02*
X128873333Y-122413021D01*
X128778095Y-122317783D01*
X128730476Y-122127307D01*
X128730476Y-121793974D01*
X128778095Y-121603498D01*
X128873333Y-121508260D01*
X128968571Y-121460640D01*
X129159047Y-121460640D01*
X129254285Y-121508260D01*
X129349523Y-121603498D01*
X129397142Y-121793974D01*
X129397142Y-122127307D01*
X129349523Y-122317783D01*
X129254285Y-122413021D01*
X129159047Y-122460640D01*
X128968571Y-122460640D01*
X129778095Y-121555879D02*
X129825714Y-121508260D01*
X129920952Y-121460640D01*
X130159047Y-121460640D01*
X130254285Y-121508260D01*
X130301904Y-121555879D01*
X130349523Y-121651117D01*
X130349523Y-121746355D01*
X130301904Y-121889212D01*
X129730476Y-122460640D01*
X130349523Y-122460640D01*
%TO.C,Q1*%
X129444761Y-114570119D02*
X129349523Y-114522500D01*
X129254285Y-114427261D01*
X129111428Y-114284404D01*
X129016190Y-114236785D01*
X128920952Y-114236785D01*
X128968571Y-114474880D02*
X128873333Y-114427261D01*
X128778095Y-114332023D01*
X128730476Y-114141547D01*
X128730476Y-113808214D01*
X128778095Y-113617738D01*
X128873333Y-113522500D01*
X128968571Y-113474880D01*
X129159047Y-113474880D01*
X129254285Y-113522500D01*
X129349523Y-113617738D01*
X129397142Y-113808214D01*
X129397142Y-114141547D01*
X129349523Y-114332023D01*
X129254285Y-114427261D01*
X129159047Y-114474880D01*
X128968571Y-114474880D01*
X130349523Y-114474880D02*
X129778095Y-114474880D01*
X130063809Y-114474880D02*
X130063809Y-113474880D01*
X129968571Y-113617738D01*
X129873333Y-113712976D01*
X129778095Y-113760595D01*
%TO.C,J2*%
X111308380Y-105870333D02*
X112022666Y-105870333D01*
X112165523Y-105917952D01*
X112260761Y-106013190D01*
X112308380Y-106156047D01*
X112308380Y-106251285D01*
X111403619Y-105441761D02*
X111356000Y-105394142D01*
X111308380Y-105298904D01*
X111308380Y-105060809D01*
X111356000Y-104965571D01*
X111403619Y-104917952D01*
X111498857Y-104870333D01*
X111594095Y-104870333D01*
X111736952Y-104917952D01*
X112308380Y-105489380D01*
X112308380Y-104870333D01*
%TO.C,FB1*%
X116759666Y-97209571D02*
X116426333Y-97209571D01*
X116426333Y-97733380D02*
X116426333Y-96733380D01*
X116902523Y-96733380D01*
X117616809Y-97209571D02*
X117759666Y-97257190D01*
X117807285Y-97304809D01*
X117854904Y-97400047D01*
X117854904Y-97542904D01*
X117807285Y-97638142D01*
X117759666Y-97685761D01*
X117664428Y-97733380D01*
X117283476Y-97733380D01*
X117283476Y-96733380D01*
X117616809Y-96733380D01*
X117712047Y-96781000D01*
X117759666Y-96828619D01*
X117807285Y-96923857D01*
X117807285Y-97019095D01*
X117759666Y-97114333D01*
X117712047Y-97161952D01*
X117616809Y-97209571D01*
X117283476Y-97209571D01*
X118807285Y-97733380D02*
X118235857Y-97733380D01*
X118521571Y-97733380D02*
X118521571Y-96733380D01*
X118426333Y-96876238D01*
X118331095Y-96971476D01*
X118235857Y-97019095D01*
%TO.C,13*%
X144970523Y-82367380D02*
X144399095Y-82367380D01*
X144684809Y-82367380D02*
X144684809Y-81367380D01*
X144589571Y-81510238D01*
X144494333Y-81605476D01*
X144399095Y-81653095D01*
X145303857Y-81367380D02*
X145922904Y-81367380D01*
X145589571Y-81748333D01*
X145732428Y-81748333D01*
X145827666Y-81795952D01*
X145875285Y-81843571D01*
X145922904Y-81938809D01*
X145922904Y-82176904D01*
X145875285Y-82272142D01*
X145827666Y-82319761D01*
X145732428Y-82367380D01*
X145446714Y-82367380D01*
X145351476Y-82319761D01*
X145303857Y-82272142D01*
%TO.C,RES*%
X137683952Y-82367380D02*
X137350619Y-81891190D01*
X137112523Y-82367380D02*
X137112523Y-81367380D01*
X137493476Y-81367380D01*
X137588714Y-81415000D01*
X137636333Y-81462619D01*
X137683952Y-81557857D01*
X137683952Y-81700714D01*
X137636333Y-81795952D01*
X137588714Y-81843571D01*
X137493476Y-81891190D01*
X137112523Y-81891190D01*
X138112523Y-81843571D02*
X138445857Y-81843571D01*
X138588714Y-82367380D02*
X138112523Y-82367380D01*
X138112523Y-81367380D01*
X138588714Y-81367380D01*
X138969666Y-82319761D02*
X139112523Y-82367380D01*
X139350619Y-82367380D01*
X139445857Y-82319761D01*
X139493476Y-82272142D01*
X139541095Y-82176904D01*
X139541095Y-82081666D01*
X139493476Y-81986428D01*
X139445857Y-81938809D01*
X139350619Y-81891190D01*
X139160142Y-81843571D01*
X139064904Y-81795952D01*
X139017285Y-81748333D01*
X138969666Y-81653095D01*
X138969666Y-81557857D01*
X139017285Y-81462619D01*
X139064904Y-81415000D01*
X139160142Y-81367380D01*
X139398238Y-81367380D01*
X139541095Y-81415000D01*
%TO.C,TX*%
X137033095Y-83653380D02*
X137604523Y-83653380D01*
X137318809Y-84653380D02*
X137318809Y-83653380D01*
X137842619Y-83653380D02*
X138509285Y-84653380D01*
X138509285Y-83653380D02*
X137842619Y-84653380D01*
%TO.C,RX*%
X137755333Y-87066380D02*
X137422000Y-86590190D01*
X137183904Y-87066380D02*
X137183904Y-86066380D01*
X137564857Y-86066380D01*
X137660095Y-86114000D01*
X137707714Y-86161619D01*
X137755333Y-86256857D01*
X137755333Y-86399714D01*
X137707714Y-86494952D01*
X137660095Y-86542571D01*
X137564857Y-86590190D01*
X137183904Y-86590190D01*
X138088666Y-86066380D02*
X138755333Y-87066380D01*
X138755333Y-86066380D02*
X138088666Y-87066380D01*
%TO.C,D2*%
X121438904Y-97988380D02*
X121438904Y-96988380D01*
X121677000Y-96988380D01*
X121819857Y-97036000D01*
X121915095Y-97131238D01*
X121962714Y-97226476D01*
X122010333Y-97416952D01*
X122010333Y-97559809D01*
X121962714Y-97750285D01*
X121915095Y-97845523D01*
X121819857Y-97940761D01*
X121677000Y-97988380D01*
X121438904Y-97988380D01*
X122391285Y-97083619D02*
X122438904Y-97036000D01*
X122534142Y-96988380D01*
X122772238Y-96988380D01*
X122867476Y-97036000D01*
X122915095Y-97083619D01*
X122962714Y-97178857D01*
X122962714Y-97274095D01*
X122915095Y-97416952D01*
X122343666Y-97988380D01*
X122962714Y-97988380D01*
%TO.C,PWR*%
X137096666Y-89098380D02*
X137096666Y-88098380D01*
X137477619Y-88098380D01*
X137572857Y-88146000D01*
X137620476Y-88193619D01*
X137668095Y-88288857D01*
X137668095Y-88431714D01*
X137620476Y-88526952D01*
X137572857Y-88574571D01*
X137477619Y-88622190D01*
X137096666Y-88622190D01*
X138001428Y-88098380D02*
X138239523Y-89098380D01*
X138430000Y-88384095D01*
X138620476Y-89098380D01*
X138858571Y-88098380D01*
X139810952Y-89098380D02*
X139477619Y-88622190D01*
X139239523Y-89098380D02*
X139239523Y-88098380D01*
X139620476Y-88098380D01*
X139715714Y-88146000D01*
X139763333Y-88193619D01*
X139810952Y-88288857D01*
X139810952Y-88431714D01*
X139763333Y-88526952D01*
X139715714Y-88574571D01*
X139620476Y-88622190D01*
X139239523Y-88622190D01*
%TO.C,C10*%
X168530142Y-93828142D02*
X168482523Y-93875761D01*
X168339666Y-93923380D01*
X168244428Y-93923380D01*
X168101571Y-93875761D01*
X168006333Y-93780523D01*
X167958714Y-93685285D01*
X167911095Y-93494809D01*
X167911095Y-93351952D01*
X167958714Y-93161476D01*
X168006333Y-93066238D01*
X168101571Y-92971000D01*
X168244428Y-92923380D01*
X168339666Y-92923380D01*
X168482523Y-92971000D01*
X168530142Y-93018619D01*
X169482523Y-93923380D02*
X168911095Y-93923380D01*
X169196809Y-93923380D02*
X169196809Y-92923380D01*
X169101571Y-93066238D01*
X169006333Y-93161476D01*
X168911095Y-93209095D01*
X170101571Y-92923380D02*
X170196809Y-92923380D01*
X170292047Y-92971000D01*
X170339666Y-93018619D01*
X170387285Y-93113857D01*
X170434904Y-93304333D01*
X170434904Y-93542428D01*
X170387285Y-93732904D01*
X170339666Y-93828142D01*
X170292047Y-93875761D01*
X170196809Y-93923380D01*
X170101571Y-93923380D01*
X170006333Y-93875761D01*
X169958714Y-93828142D01*
X169911095Y-93732904D01*
X169863476Y-93542428D01*
X169863476Y-93304333D01*
X169911095Y-93113857D01*
X169958714Y-93018619D01*
X170006333Y-92971000D01*
X170101571Y-92923380D01*
%TO.C,C9*%
X164425333Y-93829142D02*
X164377714Y-93876761D01*
X164234857Y-93924380D01*
X164139619Y-93924380D01*
X163996761Y-93876761D01*
X163901523Y-93781523D01*
X163853904Y-93686285D01*
X163806285Y-93495809D01*
X163806285Y-93352952D01*
X163853904Y-93162476D01*
X163901523Y-93067238D01*
X163996761Y-92972000D01*
X164139619Y-92924380D01*
X164234857Y-92924380D01*
X164377714Y-92972000D01*
X164425333Y-93019619D01*
X164901523Y-93924380D02*
X165092000Y-93924380D01*
X165187238Y-93876761D01*
X165234857Y-93829142D01*
X165330095Y-93686285D01*
X165377714Y-93495809D01*
X165377714Y-93114857D01*
X165330095Y-93019619D01*
X165282476Y-92972000D01*
X165187238Y-92924380D01*
X164996761Y-92924380D01*
X164901523Y-92972000D01*
X164853904Y-93019619D01*
X164806285Y-93114857D01*
X164806285Y-93352952D01*
X164853904Y-93448190D01*
X164901523Y-93495809D01*
X164996761Y-93543428D01*
X165187238Y-93543428D01*
X165282476Y-93495809D01*
X165330095Y-93448190D01*
X165377714Y-93352952D01*
%TO.C,C8*%
X166253610Y-96273687D02*
X166186267Y-96273687D01*
X166051580Y-96206343D01*
X165984236Y-96139000D01*
X165916893Y-96004312D01*
X165916893Y-95869625D01*
X165950564Y-95768610D01*
X166051580Y-95600251D01*
X166152595Y-95499236D01*
X166320954Y-95398221D01*
X166421969Y-95364549D01*
X166556656Y-95364549D01*
X166691343Y-95431893D01*
X166758687Y-95499236D01*
X166826030Y-95633923D01*
X166826030Y-95701267D01*
X166994389Y-96341030D02*
X166960717Y-96240015D01*
X166960717Y-96172671D01*
X166994389Y-96071656D01*
X167028061Y-96037984D01*
X167129076Y-96004312D01*
X167196419Y-96004312D01*
X167297435Y-96037984D01*
X167432122Y-96172671D01*
X167465793Y-96273687D01*
X167465793Y-96341030D01*
X167432122Y-96442045D01*
X167398450Y-96475717D01*
X167297435Y-96509389D01*
X167230091Y-96509389D01*
X167129076Y-96475717D01*
X166994389Y-96341030D01*
X166893374Y-96307358D01*
X166826030Y-96307358D01*
X166725015Y-96341030D01*
X166590328Y-96475717D01*
X166556656Y-96576732D01*
X166556656Y-96644076D01*
X166590328Y-96745091D01*
X166725015Y-96879778D01*
X166826030Y-96913450D01*
X166893374Y-96913450D01*
X166994389Y-96879778D01*
X167129076Y-96745091D01*
X167162748Y-96644076D01*
X167162748Y-96576732D01*
X167129076Y-96475717D01*
%TO.C,C7*%
X145883333Y-103608142D02*
X145835714Y-103655761D01*
X145692857Y-103703380D01*
X145597619Y-103703380D01*
X145454761Y-103655761D01*
X145359523Y-103560523D01*
X145311904Y-103465285D01*
X145264285Y-103274809D01*
X145264285Y-103131952D01*
X145311904Y-102941476D01*
X145359523Y-102846238D01*
X145454761Y-102751000D01*
X145597619Y-102703380D01*
X145692857Y-102703380D01*
X145835714Y-102751000D01*
X145883333Y-102798619D01*
X146216666Y-102703380D02*
X146883333Y-102703380D01*
X146454761Y-103703380D01*
%TO.C,C6*%
X131913333Y-91924142D02*
X131865714Y-91971761D01*
X131722857Y-92019380D01*
X131627619Y-92019380D01*
X131484761Y-91971761D01*
X131389523Y-91876523D01*
X131341904Y-91781285D01*
X131294285Y-91590809D01*
X131294285Y-91447952D01*
X131341904Y-91257476D01*
X131389523Y-91162238D01*
X131484761Y-91067000D01*
X131627619Y-91019380D01*
X131722857Y-91019380D01*
X131865714Y-91067000D01*
X131913333Y-91114619D01*
X132770476Y-91019380D02*
X132580000Y-91019380D01*
X132484761Y-91067000D01*
X132437142Y-91114619D01*
X132341904Y-91257476D01*
X132294285Y-91447952D01*
X132294285Y-91828904D01*
X132341904Y-91924142D01*
X132389523Y-91971761D01*
X132484761Y-92019380D01*
X132675238Y-92019380D01*
X132770476Y-91971761D01*
X132818095Y-91924142D01*
X132865714Y-91828904D01*
X132865714Y-91590809D01*
X132818095Y-91495571D01*
X132770476Y-91447952D01*
X132675238Y-91400333D01*
X132484761Y-91400333D01*
X132389523Y-91447952D01*
X132341904Y-91495571D01*
X132294285Y-91590809D01*
%TO.C,C5*%
X136485333Y-104116142D02*
X136437714Y-104163761D01*
X136294857Y-104211380D01*
X136199619Y-104211380D01*
X136056761Y-104163761D01*
X135961523Y-104068523D01*
X135913904Y-103973285D01*
X135866285Y-103782809D01*
X135866285Y-103639952D01*
X135913904Y-103449476D01*
X135961523Y-103354238D01*
X136056761Y-103259000D01*
X136199619Y-103211380D01*
X136294857Y-103211380D01*
X136437714Y-103259000D01*
X136485333Y-103306619D01*
X137390095Y-103211380D02*
X136913904Y-103211380D01*
X136866285Y-103687571D01*
X136913904Y-103639952D01*
X137009142Y-103592333D01*
X137247238Y-103592333D01*
X137342476Y-103639952D01*
X137390095Y-103687571D01*
X137437714Y-103782809D01*
X137437714Y-104020904D01*
X137390095Y-104116142D01*
X137342476Y-104163761D01*
X137247238Y-104211380D01*
X137009142Y-104211380D01*
X136913904Y-104163761D01*
X136866285Y-104116142D01*
%TO.C,C4*%
X141583333Y-91924142D02*
X141535714Y-91971761D01*
X141392857Y-92019380D01*
X141297619Y-92019380D01*
X141154761Y-91971761D01*
X141059523Y-91876523D01*
X141011904Y-91781285D01*
X140964285Y-91590809D01*
X140964285Y-91447952D01*
X141011904Y-91257476D01*
X141059523Y-91162238D01*
X141154761Y-91067000D01*
X141297619Y-91019380D01*
X141392857Y-91019380D01*
X141535714Y-91067000D01*
X141583333Y-91114619D01*
X142440476Y-91352714D02*
X142440476Y-92019380D01*
X142202380Y-90971761D02*
X141964285Y-91686047D01*
X142583333Y-91686047D01*
%TO.C,C3*%
X125055333Y-92940142D02*
X125007714Y-92987761D01*
X124864857Y-93035380D01*
X124769619Y-93035380D01*
X124626761Y-92987761D01*
X124531523Y-92892523D01*
X124483904Y-92797285D01*
X124436285Y-92606809D01*
X124436285Y-92463952D01*
X124483904Y-92273476D01*
X124531523Y-92178238D01*
X124626761Y-92083000D01*
X124769619Y-92035380D01*
X124864857Y-92035380D01*
X125007714Y-92083000D01*
X125055333Y-92130619D01*
X125388666Y-92035380D02*
X126007714Y-92035380D01*
X125674380Y-92416333D01*
X125817238Y-92416333D01*
X125912476Y-92463952D01*
X125960095Y-92511571D01*
X126007714Y-92606809D01*
X126007714Y-92844904D01*
X125960095Y-92940142D01*
X125912476Y-92987761D01*
X125817238Y-93035380D01*
X125531523Y-93035380D01*
X125436285Y-92987761D01*
X125388666Y-92940142D01*
%TO.C,C2*%
X125055333Y-90654142D02*
X125007714Y-90701761D01*
X124864857Y-90749380D01*
X124769619Y-90749380D01*
X124626761Y-90701761D01*
X124531523Y-90606523D01*
X124483904Y-90511285D01*
X124436285Y-90320809D01*
X124436285Y-90177952D01*
X124483904Y-89987476D01*
X124531523Y-89892238D01*
X124626761Y-89797000D01*
X124769619Y-89749380D01*
X124864857Y-89749380D01*
X125007714Y-89797000D01*
X125055333Y-89844619D01*
X125436285Y-89844619D02*
X125483904Y-89797000D01*
X125579142Y-89749380D01*
X125817238Y-89749380D01*
X125912476Y-89797000D01*
X125960095Y-89844619D01*
X126007714Y-89939857D01*
X126007714Y-90035095D01*
X125960095Y-90177952D01*
X125388666Y-90749380D01*
X126007714Y-90749380D01*
%TO.C,C1*%
X113371333Y-97638142D02*
X113323714Y-97685761D01*
X113180857Y-97733380D01*
X113085619Y-97733380D01*
X112942761Y-97685761D01*
X112847523Y-97590523D01*
X112799904Y-97495285D01*
X112752285Y-97304809D01*
X112752285Y-97161952D01*
X112799904Y-96971476D01*
X112847523Y-96876238D01*
X112942761Y-96781000D01*
X113085619Y-96733380D01*
X113180857Y-96733380D01*
X113323714Y-96781000D01*
X113371333Y-96828619D01*
X114323714Y-97733380D02*
X113752285Y-97733380D01*
X114038000Y-97733380D02*
X114038000Y-96733380D01*
X113942761Y-96876238D01*
X113847523Y-96971476D01*
X113752285Y-97019095D01*
%TD*%
M02*
